<svg width="64" height="64" viewBox="0 0 64 64" fill="none" xmlns="http://www.w3.org/2000/svg">
	<path d="M9.2441 3.83149C9.2441 1.70288 7.53743 0 5.4041 0H5.26187C3.12854 0 1.42188 1.70288 1.42188 3.83149V9.79157H9.2441V3.83149Z" fill="#28DBD1"/>
	<path d="M59.8755 57.1885H60.16C62.2933 57.1885 64 55.4856 64 53.357V47.3969H56.1777V54.2084C56.4622 55.9113 58.0266 57.1885 59.8755 57.1885Z" fill="#28DBD1"/>
	<path d="M5.54667 41.2949C5.40444 41.5787 5.26222 41.8625 4.83556 41.8625L0.711111 42.8558C0.284444 42.9978 0 43.4235 0 43.8492V48.1064C0 48.5321 0.284444 48.9578 0.711111 49.0997L5.40444 50.235C5.54667 50.6607 5.83111 51.2284 5.97333 51.6541C6.11556 51.9379 6.11556 52.2217 5.97333 52.5055L3.69778 56.0532C3.55556 56.337 3.55556 56.7627 3.84 57.1884L6.82667 60.1685C7.11111 60.4523 7.68 60.5942 7.96445 60.3104L11.6622 58.0399C11.9467 57.898 12.2311 57.898 12.5156 58.0399C12.8 58.1818 13.2267 58.3237 13.5111 58.4656C13.7956 58.6075 14.08 58.8913 14.08 59.1751L15.0756 63.2904C15.2178 63.7162 15.6444 64 16.0711 64H20.3378C20.7644 64 21.1911 63.7162 21.1911 63.2904L22.1867 59.1751C22.1867 58.8913 22.4711 58.6075 22.7556 58.4656C23.04 58.3237 23.4667 58.1818 23.7511 58.0399C24.0356 57.898 24.32 57.898 24.6044 58.0399L28.3022 60.3104C28.7289 60.5942 29.1556 60.4523 29.44 60.1685L32.4267 57.1884C32.7111 56.9046 32.8533 56.337 32.5689 56.0532L30.4356 51.796C30.72 51.3703 30.8622 50.8026 31.1467 50.3769C31.2889 50.0931 31.5733 49.8093 31.8578 49.8093L35.9822 48.8159C36.4089 48.674 36.6933 48.3902 36.6933 47.8226V43.5654C36.6933 43.1397 36.4089 42.7139 35.9822 42.572L31.8578 41.5787C31.5733 41.5787 31.2889 41.2949 31.1467 41.0111C31.0044 40.7272 30.8622 40.3015 30.72 40.0177C30.5778 39.7339 30.5778 39.3082 30.72 39.1663L32.8533 35.6186C33.1378 35.1929 32.9956 34.7672 32.7111 34.4833L29.7244 31.5033C29.44 31.2195 28.8711 31.0776 28.5867 31.3614L24.8889 33.6319C24.6044 33.7738 24.32 33.7738 24.0356 33.6319C23.7511 33.49 23.3244 33.3481 23.04 33.2062C22.7556 33.0643 22.4711 32.7805 22.4711 32.4966L21.4756 28.5233C21.3333 28.0975 20.9067 27.8137 20.48 27.8137H16.2133C15.7867 27.8137 15.36 28.0975 15.2178 28.5233L14.2222 32.6386C14.08 32.9224 13.9378 33.2062 13.6533 33.3481C13.3689 33.49 12.9422 33.6319 12.6578 33.7738C12.3733 33.9157 12.0889 33.9157 11.8044 33.7738L8.10667 31.5033C7.68 31.2195 7.25333 31.3614 6.96889 31.6452L3.98222 34.6252C3.69778 34.9091 3.55556 35.4767 3.84 35.7605L6.11556 39.3082C6.25778 39.592 6.25778 39.8758 6.11556 40.1596C5.83111 40.5853 5.68889 41.0111 5.54667 41.2949ZM18.3467 38.031C22.7556 38.031 26.3111 41.5787 26.3111 45.8359C26.3111 50.0931 22.7556 53.6408 18.3467 53.6408C13.9378 53.6408 10.3822 50.0931 10.3822 45.8359C10.3822 41.5787 13.9378 38.031 18.3467 38.031Z" fill="#28DBD1"/>
	<path d="M49.6356 0H10.9512C11.6623 1.13526 12.0889 2.41242 12.0889 3.83149C12.0889 10.9268 12.0889 24.6918 12.0889 28.8071L12.2312 27.9557C12.6578 26.2528 14.2223 24.9756 15.9289 24.9756H20.1956C21.7601 24.9756 23.1823 25.969 23.7512 27.388H42.9512C43.8045 27.388 44.3734 27.9557 44.3734 28.8071C44.3734 29.6585 43.8045 30.2262 42.9512 30.2262H32.1423L34.4178 32.4967C35.4134 33.49 35.6978 34.9091 35.4134 36.1863H42.8089C43.6623 36.1863 44.2312 36.7539 44.2312 37.6053C44.2312 38.4568 43.6623 39.0244 42.8089 39.0244H33.8489L33.5645 39.3082L36.1245 39.8758C37.8312 40.3016 39.1112 41.8625 39.1112 43.5654V44.8426H42.8089C43.6623 44.8426 44.2312 45.4102 44.2312 46.2616C44.2312 47.1131 43.6623 47.6807 42.8089 47.6807H39.1112V47.8226C39.1112 49.6674 37.8312 51.0865 36.1245 51.5122L33.5645 52.0798L34.9867 54.2084C35.5556 55.0599 35.6978 56.1951 35.4134 57.0466H54.0445C53.4756 56.1951 53.0489 55.2018 52.9067 54.0665C52.9067 54.0665 52.9067 54.0665 52.9067 53.9246V53.7827C52.7645 52.6475 52.7645 58.1818 52.7645 3.12195C53.1912 1.56098 51.6267 0 49.6356 0ZM43.0934 21.4279H22.3289C21.4756 21.4279 20.9067 20.8603 20.9067 20.0089C20.9067 19.1574 21.4756 18.5898 22.3289 18.5898H43.2356C44.0889 18.5898 44.6578 19.1574 44.6578 20.0089C44.6578 20.8603 43.9467 21.4279 43.0934 21.4279ZM43.0934 12.6297H22.3289C21.4756 12.6297 20.9067 12.0621 20.9067 11.2106C20.9067 10.3592 21.4756 9.79157 22.3289 9.79157H43.2356C44.0889 9.79157 44.6578 10.3592 44.6578 11.2106C44.6578 12.0621 43.9467 12.6297 43.0934 12.6297Z" fill="#28DBD1"/>
</svg>