<svg width="64" height="64" viewBox="0 0 64 64" fill="none" xmlns="http://www.w3.org/2000/svg">
	<path d="M43.998 10.6753C43.998 11.4114 44.5957 12.0095 45.3314 12.0095H55.1467C55.0439 11.8774 54.9474 11.7412 54.8268 11.6205L44.3869 1.17407C44.2662 1.05339 44.1301 0.956974 43.998 0.853882V10.6753Z" fill="#02121D"/>
	<path fill-rule="evenodd" clip-rule="evenodd" d="M41.3312 10.6753C41.3312 12.8824 43.1255 14.6778 45.3312 14.6778H56V58.8102C56 60.1977 55.4534 61.5051 54.48 62.4792C53.4933 63.4665 52.1867 64 50.8 64L12 63.9733C9.7867 63.9733 8 62.1722 8 59.9708V4.0025C8 1.80109 9.7867 0 12 0H41.3312V10.6753ZM46 47.9231H34.5455V51H25.6364V47.9231H18V45.4615H25.6364V42.3846H34.5455V45.4615H46V47.9231ZM46 36.2308H44.0909V39.3077H35.1818V36.2308H18V33.7692H35.1818V30.6923H44.0909V33.7692H46V36.2308ZM46 24.5385H28.8182V27.6154H19.9091V24.5385H18V22.0769H19.9091V19H28.8182V22.0769H46V24.5385Z" fill="#02121D"/>
</svg>