<svg width="64" height="64" viewBox="0 0 64 64" fill="none" xmlns="http://www.w3.org/2000/svg">
	<path d="M43.998 10.6753C43.998 11.4114 44.5957 12.0095 45.3314 12.0095H55.1467C55.0439 11.8774 54.9474 11.7412 54.8268 11.6205L44.3869 1.17407C44.2662 1.05339 44.1301 0.956974 43.998 0.853882V10.6753Z" fill="#28DBD1"/>
	<path d="M45.3312 14.6778C43.1255 14.6778 41.3312 12.8824 41.3312 10.6753V0H12C9.7867 0 8 1.80109 8 4.0025V59.9708C8 62.1722 9.7867 63.9733 12 63.9733L50.8 64C52.1867 64 53.4933 63.4665 54.48 62.4792C55.4534 61.5051 56 60.1977 56 58.8102V14.6778H45.3312ZM15.9979 13.3241H26.6646V15.9924H15.9979V13.3241ZM15.9979 21.3291H47.9979V23.9974H15.9979V21.3291ZM15.9979 29.3341H47.9979V32.0024H15.9979V29.3341ZM23.9979 56.0175H15.9979V53.3491H23.9979V56.0175ZM29.3312 48.0125H15.9979V45.3441H29.3312V48.0125ZM34.6646 40.0075H15.9979V37.3391H34.6646V40.0075ZM50.6646 56.3458C50.6646 57.8168 49.4679 59.0141 47.9979 59.0141H38.6646C37.1945 59.0141 35.9979 57.8168 35.9979 56.3458V44.01C35.9979 42.539 37.1945 41.3416 38.6646 41.3416H47.9979C49.4679 41.3416 50.6646 42.539 50.6646 44.01V56.3458Z" fill="#28DBD1"/>
</svg>