<svg width="64" height="64" viewBox="0 0 64 64" fill="none" xmlns="http://www.w3.org/2000/svg">
<path d="M33.793 18.2246C34.0058 18.3221 34.2165 18.4196 34.4325 18.5181C37.3338 19.8443 40.4863 21.2929 43.3372 23.0909C47.4846 20.3283 50.6441 16.7644 50.9717 11.5122H54.9999L46.6598 0L38.3199 11.5122H42.1482C41.5277 13.9736 38.361 15.9975 33.793 18.2246Z" fill="#28DBD1"/>
<path d="M43.3372 51.5303C40.4863 53.3282 37.3338 54.7768 34.4325 56.103C34.2165 56.2017 34.0058 56.299 33.793 56.3971C38.9015 58.8873 42.2726 61.1205 42.2726 64H51.0259C51.0259 58.2455 47.7184 54.4491 43.3372 51.5303Z" fill="#28DBD1"/>
<path d="M30.3066 29.708C30.0938 29.6101 29.8831 29.5126 29.6676 29.4139C26.7657 28.0878 23.6132 26.6392 20.7623 24.8412C16.3811 27.76 13.0742 31.5564 13.0742 37.3109C13.0742 43.0648 16.3811 46.8612 20.7623 49.78C23.6132 47.9819 26.7657 46.5334 29.6676 45.2072C29.8831 45.1086 30.0938 45.0111 30.3066 44.9137C25.1982 42.423 21.8275 40.1898 21.8275 37.3109C21.8275 34.4314 25.1982 32.1982 30.3066 29.708Z" fill="#28DBD1"/>
<path d="M41.9538 23.9663C39.3844 22.4247 36.5531 21.1218 33.8369 19.8803C33.2234 19.5996 32.6316 19.3255 32.0511 19.0541C26.5604 16.4865 22.6509 14.2754 21.9539 11.5122H22.7175H23.4902H25.6799L17.3399 0L9 11.5122H11.6712H12.3995H13.1304C13.4937 17.3359 17.3411 21.0825 22.1484 23.9663C24.7178 25.5074 27.5492 26.8109 30.2653 28.0518C30.8788 28.3326 31.4706 28.6066 32.0511 28.8781C38.1206 31.7159 42.2727 34.1159 42.2727 37.3109C42.2727 40.5053 38.1206 42.9053 32.0511 45.7431C31.4706 46.0146 30.8788 46.2886 30.2653 46.5694C27.5492 47.8108 24.7178 49.1138 22.1484 50.6554C17.0963 53.6855 13.0768 57.653 13.0768 64H21.83C21.83 60.8048 25.9816 58.405 32.0511 55.567C32.6316 55.2957 33.2234 55.0217 33.8369 54.7409C36.5531 53.4999 39.3844 52.1965 41.9538 50.6554C47.006 47.6249 51.026 43.6573 51.026 37.3109C51.026 30.9645 47.006 26.9964 41.9538 23.9663Z" fill="#28DBD1"/>
</svg>
