<svg width="64" height="64" viewBox="0 0 64 64" fill="none" xmlns="http://www.w3.org/2000/svg">
<path fill-rule="evenodd" clip-rule="evenodd" d="M9.78332 20.0218C9.97375 20.0218 10.1641 20.061 10.34 20.1366C10.5159 20.2121 10.6773 20.3238 10.812 20.4633C10.9466 20.6028 11.0544 20.7701 11.1273 20.9523C11.2002 21.1346 11.2381 21.3319 11.2381 21.5292V23.2626H23.371C23.5555 23.2626 23.74 23.2996 23.9114 23.3704C24.0828 23.4413 24.2409 23.5466 24.3745 23.6786L31.3472 30.5617L42.7243 30.7769C42.7251 30.7769 42.7259 30.7769 42.7268 30.7769C44.843 30.8207 46.3784 32.6246 46.7354 34.786L58.7821 30.9562C58.7821 30.9562 58.7828 30.956 58.7828 30.956C60.9985 30.251 63.2909 31.6955 63.8739 33.9608C64.1671 35.1 63.9256 36.2728 63.3908 37.1474C62.8561 38.0219 62.0802 38.6506 61.2262 39.0857C61.2245 39.0857 61.2227 39.0857 61.221 39.0857L51.4321 44.0215C48.3576 45.6749 42.427 50 35.6275 50C29.3213 50 27.1748 48.6339 21.8851 46.5395C21.8851 46.5395 21.8844 46.5394 21.8844 46.5393C15.8846 44.1676 13.891 43.212 11.0745 42.6963L11.0125 45.6912C11.0084 45.8857 10.9676 46.0794 10.8929 46.258C10.8182 46.4366 10.7098 46.6 10.5755 46.7361C10.4413 46.8723 10.2814 46.9811 10.1074 47.0546C9.93353 47.1285 9.74571 47.1663 9.5579 47.1663H1.45478C1.26435 47.1663 1.07399 47.1271 0.898108 47.0515C0.722152 46.976 0.560818 46.8642 0.426105 46.7247C0.291465 46.5852 0.183666 46.418 0.110781 46.2357C0.0378969 46.0534 0 45.8562 0 45.659V21.5264C0 21.3291 0.0378969 21.1319 0.110781 20.9495C0.183666 20.7673 0.291465 20.6001 0.426105 20.4606C0.560818 20.3211 0.722152 20.2093 0.898108 20.1338C1.07399 20.0583 1.26435 20.019 1.45478 20.019H9.78339L9.78332 20.0218Z" fill="#28DBD1"/>
<path fill-rule="evenodd" clip-rule="evenodd" d="M52.1628 14C55.2911 14 57.8582 16.6573 57.8582 19.8937C57.8582 23.135 55.2911 25.795 52.1628 25.795C49.8567 25.795 47.8571 24.3487 46.9644 22.2904H44.547H41.2431H41.2301H37.9132H34.6093H34.5963H31.2867H27.9698C27.6871 22.2904 27.4048 22.2025 27.1689 22.0411C26.9328 21.8797 26.7439 21.6454 26.6326 21.3761C26.5214 21.1067 26.4882 20.8033 26.5384 20.515C26.5887 20.2267 26.7222 19.9546 26.9173 19.7426L28.5735 17.9436H28.5758L30.232 16.1371C30.3674 15.9894 30.5321 15.8706 30.7128 15.7902C30.8935 15.7099 31.0901 15.668 31.2867 15.668C31.4833 15.668 31.6799 15.7098 31.8606 15.7902C32.0413 15.8706 32.206 15.9894 32.3414 16.1371L33.9999 17.946L34.5986 18.5991L35.1998 17.946H35.2021L36.8583 16.1395C36.9937 15.9918 37.1584 15.873 37.3391 15.7926C37.5198 15.7123 37.7164 15.6704 37.913 15.6704C38.1096 15.6704 38.3062 15.7122 38.4869 15.7926C38.6676 15.873 38.8323 15.9918 38.9677 16.1395L40.6241 17.946H40.6262L41.2299 18.6017L41.8336 17.946H41.8359L43.4921 16.1395C43.6275 15.9918 43.7922 15.873 43.9729 15.7926C44.1536 15.7123 44.3502 15.6704 44.5468 15.6704C44.7434 15.6704 44.94 15.7122 45.1207 15.7926C45.3014 15.873 45.4661 15.9918 45.6015 16.1395L46.9283 17.5867C47.8028 15.4876 49.8258 14.0047 52.1626 14.0047L52.1628 14Z" fill="#28DBD1"/>
</svg>
