<svg width="64" height="64" viewBox="0 0 64 64" fill="none" xmlns="http://www.w3.org/2000/svg">
<g clip-path="url(#clip0)">
<path d="M45.3394 40.8253L42.9815 37.7263C43.3184 36.8506 43.4531 36.5811 43.7899 35.7053L47.6299 35.1663C47.8994 35.099 48.1015 34.8969 48.1015 34.6274V29.3727C48.1015 29.1032 47.8994 28.9011 47.6299 28.8337L43.7899 28.2948C43.4531 27.419 43.3184 27.1495 42.9815 26.2737L45.272 23.1748C45.4068 22.9727 45.4068 22.6358 45.2047 22.4337L41.4994 18.7284C41.2973 18.5263 41.0278 18.5263 40.7584 18.6611L37.6594 20.9516C36.7836 20.6148 36.5141 20.48 35.6384 20.1432L35.0994 16.3032C35.032 16.0337 34.8299 15.8316 34.5605 15.8316H29.3057C29.0362 15.8316 28.8341 16.0337 28.7668 16.3032L28.2278 20.1432C27.352 20.48 27.0826 20.6148 26.2068 20.9516L23.1078 18.6611C22.9057 18.5263 22.5689 18.5263 22.3668 18.7284L18.6615 22.4337C18.4594 22.6358 18.4594 22.9053 18.5941 23.1748L20.952 26.2737C20.6152 27.1495 20.4805 27.419 20.1436 28.2948L16.3036 28.8337C16.0341 28.9011 15.832 29.1032 15.832 29.3727V34.6274C15.832 34.8969 16.0341 35.099 16.3036 35.1663L20.1436 35.7053C20.4805 36.5811 20.6152 36.8506 20.952 37.7263L18.5941 40.8253C18.4594 41.0274 18.4594 41.3642 18.6615 41.5663L22.3668 45.2716C22.5689 45.4737 22.8383 45.4737 23.1078 45.339L26.2068 43.0485C27.0826 43.3853 27.352 43.52 28.2278 43.8569L28.7668 47.6969C28.8341 47.9663 29.0362 48.1684 29.3057 48.1684H34.5605C34.8299 48.1684 35.032 47.9663 35.0994 47.6969L35.6384 43.8569C36.5141 43.52 36.7836 43.3853 37.6594 43.0485L40.7584 45.339C40.9605 45.4737 41.2973 45.4737 41.4994 45.2716L45.2047 41.5663C45.4741 41.3642 45.4741 41.0948 45.3394 40.8253ZM32.0005 38.0632C28.6994 38.0632 25.9373 35.3684 25.9373 32C25.9373 28.6316 28.632 25.9369 32.0005 25.9369C35.3015 25.9369 38.0636 28.6316 38.0636 32C38.0636 35.3684 35.3015 38.0632 32.0005 38.0632Z" fill="#28DBD1"/>
<path d="M28.0936 6.66947H29.8452V11.52C29.8452 11.8568 30.1146 12.1937 30.5188 12.1937H33.4831C33.8199 12.1937 34.1567 11.9242 34.1567 11.52V6.66947H35.9083C36.2452 6.66947 36.5146 6.46737 36.6494 6.1979C36.7841 5.92842 36.7841 5.59158 36.582 5.38947L32.6073 0.336842C32.4725 0.134737 32.2031 0 32.0009 0C31.7315 0 31.5294 0.134737 31.3946 0.336842L27.4873 5.38947C27.3525 5.52421 27.2852 5.72632 27.2852 5.86105C27.2852 5.99579 27.2852 6.13053 27.3525 6.1979C27.5546 6.46737 27.8241 6.66947 28.0936 6.66947Z" fill="#28DBD1"/>
<path d="M10.2399 16.8421C10.3072 16.9095 10.442 16.9769 10.5767 17.0442C10.8462 17.1116 11.183 17.0442 11.3851 16.8421L12.5978 15.6295L16.0336 19.0653C16.303 19.3348 16.7072 19.3348 16.9767 19.0653L19.0651 16.9769C19.3346 16.7074 19.3346 16.3032 19.0651 16.0337L15.6294 12.5979L16.842 11.3853C17.0441 11.1832 17.1115 10.8463 17.0441 10.5769C16.9767 10.3074 16.7072 10.1053 16.3704 10.0379L10.0378 9.22949C9.7683 9.22949 9.56619 9.29686 9.36409 9.4316C9.16198 9.6337 9.09461 9.83581 9.16198 10.1053L9.9704 16.4379C10.0378 16.5726 10.1051 16.7074 10.2399 16.8421Z" fill="#28DBD1"/>
<path d="M12.1937 33.4821V30.5179C12.1937 30.1811 11.9242 29.8442 11.52 29.8442H6.66947V28.0926C6.66947 27.7558 6.46737 27.4863 6.1979 27.3516C5.92842 27.2169 5.59158 27.2169 5.38947 27.419L0.336842 31.3937C0.134737 31.5284 0 31.7979 0 32C0 32.2695 0.134737 32.4716 0.336842 32.6063L5.38947 36.5137C5.52421 36.6484 5.72632 36.6484 5.86105 36.6484C5.99579 36.6484 6.13053 36.6484 6.1979 36.5811C6.46737 36.4463 6.66947 36.1769 6.66947 35.84V34.0884H11.52C11.8568 34.1558 12.1937 33.819 12.1937 33.4821Z" fill="#28DBD1"/>
<path d="M16.9075 45.0021C16.6381 44.7326 16.2338 44.7326 15.9644 45.0021L12.5286 48.4379L11.3159 47.2252C11.1138 47.0231 10.777 46.9558 10.5075 47.0231C10.2381 47.0905 10.0359 47.36 9.96858 47.6968L9.16016 54.0295C9.16016 54.2989 9.22752 54.501 9.36226 54.7031C9.56437 54.9052 9.76647 54.9726 10.0359 54.9052L16.3686 54.0968C16.5707 54.0968 16.7054 53.9621 16.8402 53.8947C16.9075 53.8274 16.9749 53.6926 17.0423 53.5579C17.1096 53.2884 17.0423 52.9516 16.8402 52.7495L15.6275 51.5368L19.0633 48.101C19.3328 47.8316 19.3328 47.4274 19.0633 47.1579L16.9075 45.0021Z" fill="#28DBD1"/>
<path d="M35.9075 57.3305H34.1559V52.48C34.1559 52.1432 33.8865 51.8063 33.4822 51.8063H30.518C30.1812 51.8063 29.8443 52.0758 29.8443 52.48V57.3305H28.0928C27.7559 57.3305 27.4865 57.5327 27.3517 57.8021C27.217 58.0716 27.217 58.4084 27.4191 58.6105L31.3265 63.6632C31.4612 63.8653 31.7307 64 31.9328 64C32.2022 64 32.4043 63.8653 32.5391 63.6632L36.4465 58.6105C36.5812 58.4758 36.5812 58.2737 36.5812 58.139C36.5812 58.0042 36.5812 57.8695 36.5138 57.8021C36.4465 57.5327 36.177 57.3305 35.9075 57.3305Z" fill="#28DBD1"/>
<path d="M53.7618 47.1579C53.6944 47.0905 53.5596 47.0231 53.4249 46.9558C53.1554 46.8884 52.8186 46.9558 52.6165 47.1579L51.4039 48.3705L47.9681 44.9347C47.6986 44.6652 47.2944 44.6652 47.0249 44.9347L44.9365 47.0231C44.667 47.2926 44.667 47.6968 44.9365 47.9663L48.3723 51.4021L47.1596 52.6147C46.9575 52.8168 46.8902 53.1537 46.9575 53.4231C47.0249 53.6926 47.2944 53.8947 47.6312 53.9621L53.9639 54.7705C54.2333 54.7705 54.4354 54.7031 54.6375 54.5684C54.8396 54.3663 54.907 54.1642 54.8396 53.8947L54.0312 47.5621C53.9639 47.4273 53.8965 47.2926 53.7618 47.1579Z" fill="#28DBD1"/>
<path d="M63.6654 31.3937L58.6128 27.4863C58.4781 27.3515 58.276 27.2842 58.1412 27.2842C58.0065 27.2842 57.8718 27.2842 57.8044 27.3515C57.5349 27.4863 57.3328 27.7558 57.3328 28.0926V29.8442H52.4823C52.1454 29.8442 51.8086 30.1137 51.8086 30.5179V33.4821C51.8086 33.8189 52.0781 34.1558 52.4823 34.1558H57.3328V35.9073C57.3328 36.2442 57.5349 36.5137 57.8044 36.6484C58.0739 36.7831 58.4107 36.7831 58.6128 36.581L63.6654 32.6737C63.8675 32.5389 64.0023 32.2694 64.0023 32.0673C64.0023 31.7305 63.8675 31.5284 63.6654 31.3937Z" fill="#28DBD1"/>
<path d="M47.0923 18.9979C47.3617 19.2674 47.766 19.2674 48.0354 18.9979L51.4712 15.5621L52.6838 16.7747C52.886 16.9768 53.2228 17.0442 53.4923 16.9768C53.7617 16.9095 53.9638 16.64 54.0312 16.3031L54.8396 9.97051C54.8396 9.70104 54.7723 9.49893 54.6375 9.29683C54.4354 9.09472 54.2333 9.02735 53.9638 9.09472L47.6312 9.90314C47.4291 9.90314 47.2944 10.0379 47.1596 10.1052C47.0923 10.1726 47.0249 10.3074 46.9575 10.4421C46.8902 10.7116 46.9575 11.0484 47.1596 11.2505L48.3723 12.4631L44.9365 15.8989C44.667 16.1684 44.667 16.5726 44.9365 16.8421L47.0923 18.9979Z" fill="#28DBD1"/>
</g>
<defs>
<clipPath id="clip0">
<rect width="64" height="64" fill="white"/>
</clipPath>
</defs>
</svg>
