<svg width="261" height="34" viewBox="0 0 261 34" fill="none" xmlns="http://www.w3.org/2000/svg">
	<path d="M3.45329 24V19.014H5.37929C8.27729 19.014 9.73529 17.52 9.73529 15C9.73529 12.462 8.15129 11.382 5.64929 11.382H2.01329V24H3.45329ZM3.45329 12.66H5.32529C7.23329 12.66 8.24129 13.362 8.24129 15.162C8.24129 16.836 7.46729 17.754 5.37929 17.754H3.45329V12.66ZM19.3781 19.032C19.3781 16.044 18.3521 14.028 15.3641 14.028C12.3941 14.028 11.2601 16.098 11.2601 19.122C11.2601 22.128 12.2861 24.162 15.2561 24.162C18.2261 24.162 19.3781 22.056 19.3781 19.032ZM12.7001 19.014C12.7001 16.476 13.4021 15.234 15.2561 15.234C17.1461 15.234 17.9381 16.512 17.9381 19.14C17.9381 21.696 17.2541 22.938 15.3641 22.938C13.4921 22.938 12.7001 21.642 12.7001 19.014ZM24.8478 24L26.9358 15.648H27.0078L29.0058 24H30.8958L33.5238 14.208H32.1738L30.7878 19.59C30.5178 20.616 30.2658 21.696 30.0318 22.758H29.9598C29.7618 21.768 29.5458 20.886 29.3298 19.986L27.8898 14.208H26.0898L24.6138 19.986C24.3798 20.886 24.1818 21.804 23.9838 22.758H23.9118C23.6958 21.678 23.4438 20.652 23.1738 19.608L21.8058 14.208H20.3658L22.9578 24H24.8478ZM42.0893 23.244L41.4593 22.164C41.0453 22.524 40.1633 22.902 39.1913 22.902C37.2293 22.902 36.2213 21.984 36.0953 19.572H42.3233C42.3953 18.942 42.4313 18.366 42.4313 17.88C42.4313 15.558 41.1893 14.046 38.8673 14.046C36.6893 14.046 34.7093 15.504 34.7093 19.05C34.7093 22.704 36.2213 24.126 39.0113 24.126C40.4153 24.126 41.4413 23.73 42.0893 23.244ZM38.7413 15.252C40.3253 15.252 41.0453 16.188 41.0453 17.862C41.0453 17.988 41.0453 18.204 41.0273 18.42H36.1133C36.2393 16.062 37.4633 15.252 38.7413 15.252ZM46.3907 24V16.71C46.8587 15.828 47.8487 15.45 48.8027 15.45C49.1627 15.45 49.5407 15.486 49.9007 15.594V14.136C49.6847 14.082 49.3607 14.046 48.9107 14.046C47.7767 14.046 46.8767 14.586 46.4447 15.288H46.3727L46.0667 14.208H45.0047V24H46.3907ZM58.3666 23.244L57.7366 22.164C57.3226 22.524 56.4406 22.902 55.4686 22.902C53.5066 22.902 52.4986 21.984 52.3726 19.572H58.6006C58.6726 18.942 58.7086 18.366 58.7086 17.88C58.7086 15.558 57.4666 14.046 55.1446 14.046C52.9666 14.046 50.9866 15.504 50.9866 19.05C50.9866 22.704 52.4986 24.126 55.2886 24.126C56.6926 24.126 57.7186 23.73 58.3666 23.244ZM55.0186 15.252C56.6026 15.252 57.3226 16.188 57.3226 17.862C57.3226 17.988 57.3226 18.204 57.3046 18.42H52.3906C52.5166 16.062 53.7406 15.252 55.0186 15.252ZM66.9341 23.01H67.0061L67.3121 24H68.3561V10.338H66.9701V14.37C66.5201 14.28 65.9801 14.208 65.4041 14.208C62.6501 14.208 60.7601 15.99 60.7601 19.536C60.7601 22.74 62.1641 24.198 64.3781 24.198C65.6561 24.198 66.5561 23.586 66.9341 23.01ZM62.1821 19.374C62.1821 16.674 63.3161 15.432 65.4761 15.432C65.9261 15.432 66.5921 15.54 66.9701 15.666V21.408C66.5921 22.326 65.8541 22.992 64.6841 22.992C63.3881 22.992 62.1821 22.11 62.1821 19.374ZM84.0823 18.798C84.0823 15.45 82.4083 14.118 80.3563 14.118C79.1323 14.118 78.2863 14.622 77.9803 14.874H77.9083V10.338H76.5223V23.658C77.1163 23.964 78.0523 24.18 79.2763 24.18C82.5163 24.18 84.0823 21.984 84.0823 18.798ZM77.9263 22.686V16.314C78.3763 15.702 79.2043 15.342 79.9783 15.342C81.3463 15.342 82.6783 16.152 82.6783 18.996C82.6783 21.642 81.4003 22.956 79.4923 22.956C78.8803 22.956 78.3043 22.848 77.9263 22.686ZM89.8979 24.684L93.3539 14.208H91.8959L90.3839 19.014C89.7539 21.03 89.5379 21.858 89.3759 22.578H89.3039C89.0699 21.732 88.7819 20.778 88.2059 19.014L86.6219 14.208H85.1099L88.6559 24.342C88.2239 25.854 87.5579 26.502 86.3339 26.502C86.0639 26.502 85.6679 26.43 85.4159 26.34L85.1999 27.582C85.4339 27.672 85.8299 27.762 86.3159 27.762C88.3139 27.762 89.2859 26.52 89.8979 24.684Z" fill="#C1C7CB"/>
	<g clip-path="url(#clip0)">
		<path d="M104 34L127.556 24.0036L120.104 16.3855L104 34ZM112.652 8.77797L120.104 16.3855L133.415 0L112.652 8.77797Z" fill="url(#paint0_linear)"/>
		<path d="M144.973 12.4799H141.285V10.5335H150.809V12.4834H147.133V23.4851H144.973V12.4799Z" fill="white"/>
		<path d="M155.426 10.5336H157.569V16.1351H162.987V10.5336H165.147V23.4899H162.987V18.0826H157.569V23.4899H155.426V10.5336Z" fill="white"/>
		<path d="M172.568 23.0919C171.836 22.7564 171.285 22.1205 170.913 21.1842C170.541 20.2479 170.355 18.8699 170.355 17.0503C170.355 15.2362 170.544 13.8493 170.921 12.8896C171.298 11.9299 171.853 11.2752 172.585 10.9257C173.317 10.5808 174.299 10.4079 175.53 10.4072C176.761 10.4064 177.751 10.5792 178.5 10.9257C179.237 11.2713 179.792 11.9209 180.164 12.8744C180.536 13.8278 180.722 15.2179 180.722 17.0445C180.722 18.8586 180.533 20.2365 180.155 21.1783C179.777 22.1201 179.225 22.758 178.5 23.0919C177.774 23.4251 176.784 23.5921 175.53 23.5929C174.275 23.5936 173.288 23.4267 172.568 23.0919ZM177.367 21.2919C177.792 21.0578 178.097 20.6161 178.282 19.967C178.468 19.3178 178.561 18.3425 178.561 17.041C178.561 15.695 178.465 14.6885 178.273 14.0214C178.081 13.3542 177.776 12.9091 177.359 12.6859C176.941 12.4651 176.331 12.3543 175.53 12.3535C174.752 12.3535 174.153 12.4675 173.735 12.6953C173.317 12.9231 173.009 13.3679 172.812 14.0295C172.615 14.6904 172.516 15.6942 172.516 17.041C172.516 18.3518 172.606 19.3271 172.785 19.967C172.965 20.6068 173.266 21.0484 173.689 21.2919C174.107 21.5259 174.723 21.643 175.536 21.643C176.333 21.643 176.944 21.5259 177.367 21.2919Z" fill="white"/>
		<path d="M185.93 10.5335H191.156C192.248 10.5335 193.113 10.8234 193.752 11.4031C194.391 11.9829 194.71 13.0323 194.71 14.5515C194.71 15.6985 194.51 16.5349 194.109 17.0608C193.709 17.5879 193.159 17.9801 192.533 18.1856L195.007 23.4863H192.829L190.599 18.5016C189.89 18.5016 189.048 18.4895 188.073 18.4653V23.4863H185.93V10.5335ZM190.79 16.7659C191.348 16.7659 191.78 16.6052 192.088 16.2837C192.395 15.9622 192.55 15.386 192.552 14.555C192.552 13.7592 192.398 13.213 192.088 12.9165C191.778 12.62 191.346 12.4737 190.79 12.4776H188.073V16.76L190.79 16.7659Z" fill="white"/>
		<path d="M201.539 23.0744C200.888 22.7287 200.392 22.076 200.049 21.1163C199.706 20.1566 199.534 18.77 199.535 16.9567C199.535 15.2347 199.709 13.8973 200.058 12.9446C200.406 11.9919 200.917 11.3306 201.591 10.9608C202.263 10.5917 203.134 10.4072 204.204 10.4072C204.907 10.4079 205.609 10.4638 206.303 10.5745C206.912 10.6654 207.515 10.7972 208.107 10.969V12.6403C207.758 12.5708 207.262 12.5069 206.617 12.4483C205.972 12.3898 205.313 12.3606 204.642 12.3606C203.876 12.3606 203.286 12.4803 202.873 12.7199C202.461 12.9594 202.162 13.4073 201.977 14.0635C201.791 14.7189 201.698 15.6942 201.698 16.9895C201.698 18.2847 201.785 19.262 201.959 19.9213C202.133 20.5783 202.424 21.0289 202.83 21.2731C203.237 21.5173 203.835 21.6402 204.625 21.6418C205.789 21.6516 206.953 21.5871 208.109 21.4487V23.1165C207.052 23.4286 205.734 23.587 204.154 23.5917C203.061 23.5925 202.189 23.42 201.539 23.0744Z" fill="white"/>
		<path d="M213.176 10.5336H215.319V16.1351H220.737V10.5336H222.897V23.4899H220.737V18.0826H215.319V23.4899H213.176V10.5336Z" fill="white"/>
		<path d="M231.818 10.5335H234.536L238.717 23.4898H236.47L235.477 20.414H230.831L229.855 23.4863H227.648L231.818 10.5335ZM234.954 18.4688L233.142 12.3956L231.33 18.4688H234.954Z" fill="white"/>
		<path d="M243.441 10.5335H245.584V23.4898H243.441V10.5335Z" fill="white"/>
		<path d="M251.262 10.5335H252.986L258.84 19.7855V10.5335H261.001V23.4898H259.276L253.422 14.2437V23.4898H251.262V10.5335Z" fill="white"/>
	</g>
	<defs>
		<linearGradient id="paint0_linear" x1="104" y1="17" x2="133.415" y2="17" gradientUnits="userSpaceOnUse">
			<stop stop-color="#00CCFF"/>
			<stop offset="1" stop-color="#33FF99"/>
		</linearGradient>
		<clipPath id="clip0">
			<rect width="157" height="34" fill="white" transform="translate(104)"/>
		</clipPath>
	</defs>
</svg>