<svg width="1290" height="278" viewBox="0 0 1290 278" fill="none" xmlns="http://www.w3.org/2000/svg">
<path opacity="0.5" d="M16.5016 22V7.98H14.0016V22H16.5016ZM22.3502 22V14.28C22.7102 13.38 23.5502 12.72 24.6102 12.72C25.8102 12.72 26.4502 13.48 26.4502 14.84V22H28.9302V14.3C28.9102 11.8 27.6302 10.6 25.4302 10.6C24.0502 10.6 22.9102 11.3 22.3702 11.96H22.2902L21.7902 10.86H19.8902V22H22.3502ZM34.2638 25.88V21.86C34.8038 21.98 35.3838 22.04 36.0038 22.04C38.8638 22.04 41.1238 20 41.1238 15.96C41.1238 12.44 39.4638 10.66 36.9838 10.66C35.5838 10.66 34.7038 11.3 34.2438 11.86H34.1638L33.6438 10.86H31.8238V25.88H34.2638ZM34.2438 19.7V13.8C34.6038 13.2 35.2838 12.68 36.2237 12.68C37.5038 12.68 38.6038 13.64 38.6038 16.2C38.6038 18.94 37.5838 20 35.7438 20C35.3838 20 34.6838 19.92 34.2438 19.7ZM50.0239 20.92H50.1039L50.4839 22H52.5239V10.86H50.0639V18.42C49.9439 19.3 49.2039 20.26 47.8039 20.26C46.5639 20.26 45.9039 19.54 45.9039 18.08V10.86H43.4239V18.38C43.4439 20.98 44.6439 22.22 47.0039 22.22C48.5639 22.22 49.5039 21.58 50.0239 20.92ZM61.7561 21.48L61.0961 19.6C60.7161 19.88 60.1561 20.06 59.5161 20.06C58.6961 20.06 58.1761 19.62 58.1761 18.66V12.76H61.0761V10.86H58.1761V8H56.5761L55.7561 10.72L54.2361 11.22V12.76H55.7561V18.66C55.7561 21.14 56.9961 22.1 58.8761 22.1C60.5361 22.1 61.3561 21.74 61.7561 21.48ZM72.8913 13.28C73.3113 11.8 73.6113 10.78 73.8513 9.7H73.9313C74.1713 10.82 74.4513 11.76 74.8913 13.34L75.7713 16.34H71.9713L72.8913 13.28ZM70.2913 22L71.3513 18.44H76.3913L77.4513 22H80.0713L75.7113 7.98H72.1113L67.7713 22H70.2913ZM89.2047 18.82C89.2047 15.08 83.8047 15.82 83.8047 13.84C83.8047 13.18 84.3247 12.68 85.3247 12.68C86.2847 12.68 87.0847 13.18 87.5447 13.68L89.1247 12.08C88.4047 11.28 87.1447 10.66 85.3847 10.66C82.8447 10.66 81.3647 12.24 81.3647 13.98C81.3647 17.72 86.7447 17 86.7447 18.96C86.7447 19.64 86.2447 20.2 85.0847 20.2C83.7647 20.2 82.6847 19.5 82.1247 18.88L80.6447 20.62C81.2847 21.28 82.7247 22.2 84.9647 22.2C87.9847 22.2 89.2047 20.32 89.2047 18.82ZM98.9703 18.82C98.9703 15.08 93.5703 15.82 93.5703 13.84C93.5703 13.18 94.0903 12.68 95.0903 12.68C96.0503 12.68 96.8503 13.18 97.3103 13.68L98.8903 12.08C98.1703 11.28 96.9103 10.66 95.1503 10.66C92.6103 10.66 91.1303 12.24 91.1303 13.98C91.1303 17.72 96.5103 17 96.5103 18.96C96.5103 19.64 96.0103 20.2 94.8503 20.2C93.5303 20.2 92.4503 19.5 91.8903 18.88L90.4103 20.62C91.0503 21.28 92.4903 22.2 94.7303 22.2C97.7503 22.2 98.9703 20.32 98.9703 18.82ZM109.736 21.04L108.656 19.26C108.216 19.68 107.336 20.2 106.156 20.2C104.136 20.2 103.216 19.2 103.136 17.08H109.956C110.056 16.28 110.076 15.68 110.076 15.12C110.076 12.42 108.516 10.66 105.756 10.66C102.816 10.66 100.716 12.62 100.716 16.4C100.716 20.34 102.476 22.2 105.876 22.2C107.796 22.2 108.916 21.68 109.736 21.04ZM105.656 12.58C107.076 12.58 107.736 13.4 107.736 14.92V15.36H103.176C103.256 13.54 104.276 12.58 105.656 12.58ZM118.787 21.48L118.127 19.6C117.747 19.88 117.187 20.06 116.547 20.06C115.727 20.06 115.207 19.62 115.207 18.66V12.76H118.107V10.86H115.207V8H113.607L112.787 10.72L111.267 11.22V12.76H112.787V18.66C112.787 21.14 114.027 22.1 115.907 22.1C117.567 22.1 118.387 21.74 118.787 21.48Z" fill="white"/>
<path opacity="0.5" d="M340.691 18.16C340.691 13.74 334.171 14.22 334.171 11.58C334.171 10.66 334.871 9.96 336.131 9.96C337.491 9.96 338.311 10.66 338.791 11.14L340.331 9.26C339.751 8.64 338.371 7.78 336.331 7.78C333.571 7.78 331.611 9.52 331.611 11.78C331.611 16.2 338.151 15.74 338.151 18.32C338.151 19.28 337.411 20.06 335.931 20.06C334.231 20.06 333.051 19.12 332.391 18.5L330.951 20.56C331.551 21.16 333.151 22.2 335.631 22.2C338.971 22.2 340.691 20.26 340.691 18.16ZM347.212 22L349.232 13.78H349.312L351.092 22H354.072L356.992 10.86H354.752L353.432 16.3C353.132 17.52 352.872 18.66 352.692 19.88H352.612C352.492 18.7 352.212 17.6 351.952 16.5L350.592 10.86H348.052L346.552 16.54C346.292 17.56 346.052 18.7 345.912 19.88H345.832C345.652 18.56 345.432 17.54 345.152 16.38L343.832 10.86H341.352L344.272 22H347.212ZM364.171 20.86H364.251C364.571 21.58 365.191 22.12 366.271 22.12C366.651 22.12 367.051 22.06 367.411 21.84V20.12H367.111C366.491 20.12 366.231 19.68 366.231 18.92V14.24C366.231 11.68 364.711 10.68 362.031 10.68C359.631 10.68 358.551 12.08 358.131 12.66L359.891 13.98C360.191 13.38 360.811 12.7 362.031 12.7C363.151 12.7 363.911 13.12 363.911 14.58V15.58C360.251 15.44 357.891 16.64 357.891 19.16C357.891 20.72 359.031 22.2 361.151 22.2C362.871 22.2 363.711 21.44 364.171 20.86ZM360.311 18.94C360.311 17.7 361.691 17.18 363.911 17.3V19.22C363.511 19.8 362.731 20.28 361.791 20.28C360.831 20.28 360.311 19.7 360.311 18.94ZM371.869 25.88V21.86C372.409 21.98 372.989 22.04 373.609 22.04C376.469 22.04 378.729 20 378.729 15.96C378.729 12.44 377.069 10.66 374.589 10.66C373.189 10.66 372.309 11.3 371.849 11.86H371.769L371.249 10.86H369.429V25.88H371.869ZM371.849 19.7V13.8C372.209 13.2 372.889 12.68 373.829 12.68C375.109 12.68 376.209 13.64 376.209 16.2C376.209 18.94 375.189 20 373.349 20C372.989 20 372.289 19.92 371.849 19.7Z" fill="white"/>
<path opacity="0.5" d="M588.795 22V7.98H586.295V22H588.795ZM594.643 22V14.28C595.003 13.38 595.843 12.72 596.903 12.72C598.103 12.72 598.743 13.48 598.743 14.84V22H601.223V14.3C601.203 11.8 599.923 10.6 597.723 10.6C596.343 10.6 595.203 11.3 594.663 11.96H594.583L594.083 10.86H592.183V22H594.643ZM610.397 21.48L609.737 19.6C609.357 19.88 608.797 20.06 608.157 20.06C607.337 20.06 606.817 19.62 606.817 18.66V12.76H609.717V10.86H606.817V8H605.217L604.397 10.72L602.877 11.22V12.76H604.397V18.66C604.397 21.14 605.637 22.1 607.517 22.1C609.177 22.1 609.997 21.74 610.397 21.48ZM620.408 21.04L619.328 19.26C618.888 19.68 618.008 20.2 616.828 20.2C614.808 20.2 613.888 19.2 613.808 17.08H620.628C620.728 16.28 620.748 15.68 620.748 15.12C620.748 12.42 619.188 10.66 616.428 10.66C613.488 10.66 611.388 12.62 611.388 16.4C611.388 20.34 613.148 22.2 616.548 22.2C618.468 22.2 619.588 21.68 620.408 21.04ZM616.328 12.58C617.748 12.58 618.408 13.4 618.408 14.92V15.36H613.848C613.928 13.54 614.948 12.58 616.328 12.58ZM625.619 22V14.18C626.219 13.46 627.279 13.08 628.279 13.08C628.679 13.08 629.139 13.12 629.539 13.2V10.74C629.299 10.68 628.919 10.64 628.539 10.64C627.139 10.64 626.139 11.36 625.679 12.34H625.599L625.079 10.86H623.179V22H625.619ZM633.588 22V14.28C633.848 13.46 634.628 12.72 635.608 12.72C636.788 12.72 637.408 13.48 637.408 14.96V22H639.888V14.2C640.188 13.38 641.008 12.72 641.988 12.72C642.988 12.72 643.708 13.32 643.708 14.76V22H646.168V14.32C646.168 11.82 644.928 10.62 642.748 10.62C641.108 10.62 639.988 11.38 639.468 12.22H639.388C638.988 11.34 638.228 10.62 636.548 10.62C635.208 10.62 634.168 11.22 633.628 11.96H633.548L633.108 10.86H631.128V22H633.588ZM657.517 21.04L656.437 19.26C655.997 19.68 655.117 20.2 653.937 20.2C651.917 20.2 650.997 19.2 650.917 17.08H657.737C657.837 16.28 657.857 15.68 657.857 15.12C657.857 12.42 656.297 10.66 653.537 10.66C650.597 10.66 648.497 12.62 648.497 16.4C648.497 20.34 650.257 22.2 653.657 22.2C655.577 22.2 656.697 21.68 657.517 21.04ZM653.437 12.58C654.857 12.58 655.517 13.4 655.517 14.92V15.36H650.957C651.037 13.54 652.057 12.58 653.437 12.58ZM666.569 21H666.649L667.069 22H668.969V6.84H666.529V11.04C666.109 10.94 665.609 10.82 664.709 10.82C662.069 10.82 659.689 12.52 659.689 16.98C659.689 20.62 661.369 22.2 663.769 22.2C665.249 22.2 666.209 21.46 666.569 21ZM662.189 16.74C662.189 13.7 663.329 12.86 665.029 12.86C665.549 12.86 666.249 13 666.589 13.2V18.94C666.149 19.7 665.469 20.2 664.469 20.2C663.189 20.2 662.189 19.26 662.189 16.74ZM674.629 22V10.86H672.169V22H674.629ZM674.869 7.84C674.869 6.94 674.229 6.28 673.329 6.28C672.509 6.28 671.849 6.94 671.849 7.84C671.849 8.66 672.509 9.3 673.329 9.3C674.229 9.3 674.869 8.66 674.869 7.84ZM683.449 20.86H683.529C683.849 21.58 684.469 22.12 685.549 22.12C685.929 22.12 686.329 22.06 686.689 21.84V20.12H686.389C685.769 20.12 685.509 19.68 685.509 18.92V14.24C685.509 11.68 683.989 10.68 681.309 10.68C678.909 10.68 677.829 12.08 677.409 12.66L679.169 13.98C679.469 13.38 680.089 12.7 681.309 12.7C682.429 12.7 683.189 13.12 683.189 14.58V15.58C679.529 15.44 677.169 16.64 677.169 19.16C677.169 20.72 678.309 22.2 680.429 22.2C682.149 22.2 682.989 21.44 683.449 20.86ZM679.589 18.94C679.589 17.7 680.969 17.18 683.189 17.3V19.22C682.789 19.8 682.009 20.28 681.069 20.28C680.109 20.28 679.589 19.7 679.589 18.94ZM691.147 22V14.18C691.747 13.46 692.807 13.08 693.807 13.08C694.207 13.08 694.667 13.12 695.067 13.2V10.74C694.827 10.68 694.447 10.64 694.067 10.64C692.667 10.64 691.667 11.36 691.207 12.34H691.127L690.607 10.86H688.707V22H691.147ZM701.619 22.64L705.419 10.86H702.879L701.579 15.28C701.059 17.06 700.799 18.28 700.639 19.22H700.559C700.379 18.26 699.979 16.8 699.479 15.28L698.019 10.86H695.279L699.419 22.12C699.159 23.46 698.499 24.12 697.319 24.12C696.879 24.12 696.459 24.02 696.159 23.88L695.759 25.94C696.039 26.06 696.679 26.24 697.379 26.24C699.859 26.24 700.959 24.64 701.619 22.64Z" fill="white"/>
<path opacity="0.5" d="M920.691 18.16C920.691 13.74 914.171 14.22 914.171 11.58C914.171 10.66 914.871 9.96 916.131 9.96C917.491 9.96 918.311 10.66 918.791 11.14L920.331 9.26C919.751 8.64 918.371 7.78 916.331 7.78C913.571 7.78 911.611 9.52 911.611 11.78C911.611 16.2 918.151 15.74 918.151 18.32C918.151 19.28 917.411 20.06 915.931 20.06C914.231 20.06 913.051 19.12 912.391 18.5L910.951 20.56C911.551 21.16 913.151 22.2 915.631 22.2C918.971 22.2 920.691 20.26 920.691 18.16ZM927.212 22L929.232 13.78H929.312L931.092 22H934.072L936.992 10.86H934.752L933.432 16.3C933.132 17.52 932.872 18.66 932.692 19.88H932.612C932.492 18.7 932.212 17.6 931.952 16.5L930.592 10.86H928.052L926.552 16.54C926.292 17.56 926.052 18.7 925.912 19.88H925.832C925.652 18.56 925.432 17.54 925.152 16.38L923.832 10.86H921.352L924.272 22H927.212ZM944.171 20.86H944.251C944.571 21.58 945.191 22.12 946.271 22.12C946.651 22.12 947.051 22.06 947.411 21.84V20.12H947.111C946.491 20.12 946.231 19.68 946.231 18.92V14.24C946.231 11.68 944.711 10.68 942.031 10.68C939.631 10.68 938.551 12.08 938.131 12.66L939.891 13.98C940.191 13.38 940.811 12.7 942.031 12.7C943.151 12.7 943.911 13.12 943.911 14.58V15.58C940.251 15.44 937.891 16.64 937.891 19.16C937.891 20.72 939.031 22.2 941.151 22.2C942.871 22.2 943.711 21.44 944.171 20.86ZM940.311 18.94C940.311 17.7 941.691 17.18 943.911 17.3V19.22C943.511 19.8 942.731 20.28 941.791 20.28C940.831 20.28 940.311 19.7 940.311 18.94ZM951.869 25.88V21.86C952.409 21.98 952.989 22.04 953.609 22.04C956.469 22.04 958.729 20 958.729 15.96C958.729 12.44 957.069 10.66 954.589 10.66C953.189 10.66 952.309 11.3 951.849 11.86H951.769L951.249 10.86H949.429V25.88H951.869ZM951.849 19.7V13.8C952.209 13.2 952.889 12.68 953.829 12.68C955.109 12.68 956.209 13.64 956.209 16.2C956.209 18.94 955.189 20 953.349 20C952.989 20 952.289 19.92 951.849 19.7Z" fill="white"/>
<path opacity="0.5" d="M1191.22 22V16.8H1192.76C1196.52 16.8 1198 14.78 1198 12.08C1198 9.1 1196.06 7.98 1193.22 7.98H1188.72V22H1191.22ZM1191.22 10.12H1192.78C1194.56 10.12 1195.4 10.8 1195.4 12.42C1195.4 13.78 1194.8 14.72 1192.66 14.72H1191.22V10.12ZM1202.6 22V14.18C1203.2 13.46 1204.26 13.08 1205.26 13.08C1205.66 13.08 1206.12 13.12 1206.52 13.2V10.74C1206.28 10.68 1205.9 10.64 1205.52 10.64C1204.12 10.64 1203.12 11.36 1202.66 12.34H1202.58L1202.06 10.86H1200.16V22H1202.6ZM1217.33 16.38C1217.33 12.94 1216.15 10.66 1212.47 10.66C1208.89 10.66 1207.51 13.04 1207.51 16.48C1207.51 19.9 1208.71 22.2 1212.37 22.2C1215.93 22.2 1217.33 19.82 1217.33 16.38ZM1210.05 16.36C1210.05 13.84 1210.71 12.64 1212.35 12.64C1214.11 12.64 1214.81 13.94 1214.81 16.5C1214.81 19 1214.23 20.22 1212.47 20.22C1210.73 20.22 1210.05 18.9 1210.05 16.36ZM1222.21 20.78V10.86H1219.75V20.7C1219.75 23.16 1219.03 23.88 1217.63 24.42L1218.43 26.4C1221.37 25.52 1222.21 23.28 1222.21 20.78ZM1222.47 7.84C1222.47 6.94 1221.81 6.28 1220.93 6.28C1220.09 6.28 1219.43 6.94 1219.43 7.84C1219.43 8.66 1220.09 9.3 1220.93 9.3C1221.81 9.3 1222.47 8.66 1222.47 7.84ZM1233.64 21.04L1232.56 19.26C1232.12 19.68 1231.24 20.2 1230.06 20.2C1228.04 20.2 1227.12 19.2 1227.04 17.08H1233.86C1233.96 16.28 1233.98 15.68 1233.98 15.12C1233.98 12.42 1232.42 10.66 1229.66 10.66C1226.72 10.66 1224.62 12.62 1224.62 16.4C1224.62 20.34 1226.38 22.2 1229.78 22.2C1231.7 22.2 1232.82 21.68 1233.64 21.04ZM1229.56 12.58C1230.98 12.58 1231.64 13.4 1231.64 14.92V15.36H1227.08C1227.16 13.54 1228.18 12.58 1229.56 12.58ZM1244.31 20.64L1242.75 19.14C1242.41 19.64 1241.77 20.14 1240.75 20.14C1239.19 20.14 1238.33 19 1238.33 16.34C1238.33 13.66 1239.29 12.72 1240.77 12.72C1241.89 12.72 1242.49 13.38 1242.75 13.72L1244.41 12.1C1243.79 11.3 1242.59 10.66 1240.81 10.66C1237.89 10.66 1235.81 12.56 1235.81 16.56C1235.81 20.58 1237.63 22.2 1240.53 22.2C1242.73 22.2 1243.75 21.36 1244.31 20.64ZM1252.53 21.48L1251.87 19.6C1251.49 19.88 1250.93 20.06 1250.29 20.06C1249.47 20.06 1248.95 19.62 1248.95 18.66V12.76H1251.85V10.86H1248.95V8H1247.35L1246.53 10.72L1245.01 11.22V12.76H1246.53V18.66C1246.53 21.14 1247.77 22.1 1249.65 22.1C1251.31 22.1 1252.13 21.74 1252.53 21.48ZM1261.54 18.82C1261.54 15.08 1256.14 15.82 1256.14 13.84C1256.14 13.18 1256.66 12.68 1257.66 12.68C1258.62 12.68 1259.42 13.18 1259.88 13.68L1261.46 12.08C1260.74 11.28 1259.48 10.66 1257.72 10.66C1255.18 10.66 1253.7 12.24 1253.7 13.98C1253.7 17.72 1259.08 17 1259.08 18.96C1259.08 19.64 1258.58 20.2 1257.42 20.2C1256.1 20.2 1255.02 19.5 1254.46 18.88L1252.98 20.62C1253.62 21.28 1255.06 22.2 1257.3 22.2C1260.32 22.2 1261.54 20.32 1261.54 18.82Z" fill="white"/>
<g filter="url(#filter0_d)">
<rect width="130" height="50" transform="translate(580 148)" fill="#28DBD1"/>
<path d="M616.349 180L619.949 174.08H620.049L623.709 180H625.609L620.989 172.76L625.269 165.98H623.469L620.149 171.48H620.049L616.689 165.98H614.789L619.109 172.8L614.529 180H616.349ZM629.427 180V174.18H630.527C631.547 174.18 632.167 174.6 632.707 175.52L635.247 180H637.147L634.567 175.62C633.927 174.54 633.427 174.08 632.867 173.82V173.74C634.547 173.56 636.027 172.22 636.027 169.92C636.027 167.12 634.267 165.98 631.347 165.98H627.827V180H629.427ZM629.427 167.4H631.127C633.247 167.4 634.387 168.14 634.387 170.1C634.387 172.04 633.167 172.8 631.227 172.8H629.427V167.4ZM649.466 175.12V165.98H647.866V175.32C647.866 177.82 646.586 178.76 644.546 178.76C642.446 178.76 641.106 177.64 641.106 175.12V165.98H639.506V175.36C639.506 178.38 641.206 180.2 644.366 180.2C647.506 180.2 649.466 178.5 649.466 175.12ZM654.699 180V171.6C654.699 170.2 654.679 169.08 654.639 167.88H654.799C655.319 168.96 655.839 170.02 656.399 171.06L661.159 180H663.359V165.98H661.859V174.26C661.859 175.44 661.859 176.74 661.899 178.02H661.759C661.259 176.98 660.679 175.88 660.139 174.86L655.419 165.98H653.179V180H654.699ZM674.864 180V178.58H668.744V173.6H673.884V172.18H668.744V167.4H674.584V165.98H667.144V180H674.864Z" fill="#02121D"/>
</g>
<path d="M917.092 169.74C917.392 168.76 917.652 167.92 917.892 167.08H917.972C918.232 167.94 918.472 168.76 918.792 169.78L920.292 174.5H915.572L917.092 169.74ZM913.812 180L915.112 175.92H920.752L922.052 180H923.732L919.192 165.98H916.712L912.172 180H913.812ZM927.307 180V167.86H927.427L931.547 177.98H933.247L937.387 167.86H937.507V180H939.047V165.98H936.507L932.487 175.98H932.367L928.347 165.98H925.787V180H927.307ZM944.358 180V167.86H944.478L948.598 177.98H950.298L954.438 167.86H954.558V180H956.098V165.98H953.558L949.538 175.98H949.418L945.398 165.98H942.838V180H944.358Z" fill="white"/>
<rect x="871" y="149" width="128" height="48" stroke="#28DBD1" stroke-width="2"/>
<path d="M331.137 180V167.4H334.857V165.98H325.797V167.4H329.537V180H331.137ZM345.473 179.02L344.593 177.88C344.093 178.36 343.273 178.74 341.853 178.74C339.173 178.74 337.753 176.76 337.753 172.96C337.753 169 339.253 167.22 341.693 167.22C343.153 167.22 343.973 167.66 344.573 168.16L345.573 166.94C345.113 166.54 343.993 165.78 341.853 165.78C338.113 165.78 336.113 168.5 336.113 173.1C336.113 177.42 337.773 180.2 341.633 180.2C343.633 180.2 344.853 179.62 345.473 179.02ZM362.621 179.02L361.741 177.88C361.241 178.36 360.421 178.74 359.001 178.74C356.321 178.74 354.901 176.76 354.901 172.96C354.901 169 356.401 167.22 358.841 167.22C360.301 167.22 361.121 167.66 361.721 168.16L362.721 166.94C362.261 166.54 361.141 165.78 359.001 165.78C355.261 165.78 353.261 168.5 353.261 173.1C353.261 177.42 354.921 180.2 358.781 180.2C360.781 180.2 362.001 179.62 362.621 179.02ZM372.928 180V178.58H366.908V165.98H365.308V180H372.928ZM376.732 180V174.46H378.872C382.092 174.46 383.712 172.8 383.712 170C383.712 167.18 381.952 165.98 379.172 165.98H375.132V180H376.732ZM376.732 167.4H378.812C380.932 167.4 382.052 168.18 382.052 170.18C382.052 172.04 381.192 173.06 378.872 173.06H376.732V167.4Z" fill="white"/>
<rect x="291" y="149" width="128" height="48" stroke="#28DBD1" stroke-width="2"/>
<rect width="130" height="50" transform="translate(0 148)" fill="#0A1F2F"/>
<path d="M57.6957 180V178.58H51.5757V173.6H56.7157V172.18H51.5757V167.4H57.4157V165.98H49.9757V180H57.6957ZM64.2226 180V167.4H67.9426V165.98H58.8826V167.4H62.6226V180H64.2226ZM71.6538 180V173.62H78.4338V180H80.0338V165.98H78.4338V172.2H71.6538V165.98H70.0538V180H71.6538Z" fill="white"/>
<rect width="130" height="50" transform="translate(0 228)" fill="#0A1F2F"/>
<path d="M45.8037 260C50.1037 260 51.9437 257.42 51.9437 252.86C51.9437 248.16 50.0437 245.98 45.8237 245.98H42.1437V260H45.8037ZM43.7437 247.4H45.6837C48.6637 247.4 50.3037 248.86 50.3037 253.04C50.3037 257.06 48.8637 258.58 45.7837 258.58H43.7437V247.4ZM65.2543 252.92C65.2543 247.76 63.2143 245.78 59.8943 245.78C56.5143 245.78 54.3743 247.88 54.3743 253.06C54.3743 258.22 56.3943 260.2 59.7343 260.2C63.0943 260.2 65.2543 258.1 65.2543 252.92ZM56.0143 252.92C56.0143 248.56 57.4943 247.22 59.7743 247.22C62.1143 247.22 63.6143 248.68 63.6143 253.06C63.6143 257.4 62.1543 258.76 59.8343 258.76C57.5143 258.76 56.0143 257.3 56.0143 252.92ZM77.6346 258.94V252.88H76.0346V258.24C75.4746 258.62 74.4746 258.8 73.5746 258.8C70.8346 258.8 69.3346 257.12 69.3346 252.9C69.3346 248.32 71.5746 247.24 73.6146 247.24C75.0146 247.24 75.9346 247.62 76.5346 248.2L77.5746 246.98C77.1146 246.54 76.0346 245.78 73.7146 245.78C70.3746 245.78 67.6946 247.98 67.6946 253.04C67.6946 257.82 69.6146 260.2 73.2346 260.2C75.3946 260.2 76.7346 259.68 77.6346 258.94ZM88.7895 260V258.58H82.6695V253.6H87.8095V252.18H82.6695V247.4H88.5095V245.98H81.0695V260H88.7895Z" fill="white"/>
<rect width="130" height="50" transform="translate(0 68)" fill="#0A1F2F"/>
<path d="M55.0365 100C58.3765 100 59.7365 98.32 59.7365 96.04C59.7365 94.02 58.5965 92.98 57.1365 92.8V92.72C58.2565 92.44 59.0365 91.26 59.0365 89.56C59.0365 86.92 57.2165 85.98 55.0565 85.98H50.7765V100H55.0365ZM52.3365 93.64H55.0765C56.7165 93.64 58.1165 94.16 58.1165 96.14C58.1165 97.86 57.1965 98.6 55.1565 98.6H52.3365V93.64ZM52.3365 87.38H54.7565C56.4165 87.38 57.4565 88.04 57.4565 89.72C57.4565 91.48 56.6165 92.24 54.8365 92.24H52.3365V87.38ZM65.9609 100V87.4H69.6809V85.98H60.6209V87.4H64.3609V100H65.9609ZM80.2968 99.02L79.4168 97.88C78.9168 98.36 78.0968 98.74 76.6768 98.74C73.9968 98.74 72.5768 96.76 72.5768 92.96C72.5768 89 74.0768 87.22 76.5168 87.22C77.9768 87.22 78.7968 87.66 79.3968 88.16L80.3968 86.94C79.9368 86.54 78.8168 85.78 76.6768 85.78C72.9368 85.78 70.9368 88.5 70.9368 93.1C70.9368 97.42 72.5968 100.2 76.4568 100.2C78.4568 100.2 79.6768 99.62 80.2968 99.02Z" fill="white"/>
<rect width="130" height="50" transform="translate(1160 148)" fill="#0A1F2F"/>
<path d="M1193.56 180V167.4H1197.28V165.98H1188.22V167.4H1191.96V180H1193.56ZM1208.97 172.92C1208.97 167.76 1206.93 165.78 1203.61 165.78C1200.23 165.78 1198.09 167.88 1198.09 173.06C1198.09 178.22 1200.11 180.2 1203.45 180.2C1206.81 180.2 1208.97 178.1 1208.97 172.92ZM1199.73 172.92C1199.73 168.56 1201.21 167.22 1203.49 167.22C1205.83 167.22 1207.33 168.68 1207.33 173.06C1207.33 177.4 1205.87 178.76 1203.55 178.76C1201.23 178.76 1199.73 177.3 1199.73 172.92ZM1221.45 180L1216.01 172.98L1220.99 165.98H1219.13L1214.19 172.98V173.06L1219.41 180H1221.45ZM1213.67 180V165.98H1212.07V180H1213.67ZM1231.35 180V178.58H1225.23V173.6H1230.37V172.18H1225.23V167.4H1231.07V165.98H1223.63V180H1231.35ZM1235.71 180V171.6C1235.71 170.2 1235.69 169.08 1235.65 167.88H1235.81C1236.33 168.96 1236.85 170.02 1237.41 171.06L1242.17 180H1244.37V165.98H1242.87V174.26C1242.87 175.44 1242.87 176.74 1242.91 178.02H1242.77C1242.27 176.98 1241.69 175.88 1241.15 174.86L1236.43 165.98H1234.19V180H1235.71ZM1260.94 180V178.58H1256.92C1256.2 178.58 1255.32 178.58 1254.62 178.6V178.52C1255.32 177.8 1256.02 177.08 1256.7 176.36C1257.38 175.58 1258.06 174.84 1258.7 174.1C1259.98 172.62 1260.66 171.18 1260.66 169.62C1260.66 167.54 1259.22 166.1 1256.88 166.1C1254.64 166.1 1253.32 167.52 1252.98 169.12L1254.58 169.5C1254.76 168.46 1255.4 167.52 1256.78 167.52C1258.12 167.52 1259.02 168.36 1259.02 169.74C1259.02 170.98 1258.6 171.94 1257.58 173.12C1256.1 174.88 1254.46 176.68 1252.72 178.58L1252.96 180H1260.94Z" fill="white"/>
<rect width="130" height="50" transform="translate(1160 228)" fill="#0A1F2F"/>
<path d="M1193.45 260V247.4H1197.17V245.98H1188.11V247.4H1191.85V260H1193.45ZM1208.86 252.92C1208.86 247.76 1206.82 245.78 1203.5 245.78C1200.12 245.78 1197.98 247.88 1197.98 253.06C1197.98 258.22 1200 260.2 1203.34 260.2C1206.7 260.2 1208.86 258.1 1208.86 252.92ZM1199.62 252.92C1199.62 248.56 1201.1 247.22 1203.38 247.22C1205.72 247.22 1207.22 248.68 1207.22 253.06C1207.22 257.4 1205.76 258.76 1203.44 258.76C1201.12 258.76 1199.62 257.3 1199.62 252.92ZM1221.34 260L1215.9 252.98L1220.88 245.98H1219.02L1214.08 252.98V253.06L1219.3 260H1221.34ZM1213.56 260V245.98H1211.96V260H1213.56ZM1231.24 260V258.58H1225.12V253.6H1230.26V252.18H1225.12V247.4H1230.96V245.98H1223.52V260H1231.24ZM1235.61 260V251.6C1235.61 250.2 1235.59 249.08 1235.55 247.88H1235.71C1236.23 248.96 1236.75 250.02 1237.31 251.06L1242.07 260H1244.27V245.98H1242.77V254.26C1242.77 255.44 1242.77 256.74 1242.81 258.02H1242.67C1242.17 256.98 1241.59 255.88 1241.05 254.86L1236.33 245.98H1234.09V260H1235.61ZM1260.87 256.08C1260.87 253.96 1259.69 253.18 1258.43 253V252.92C1259.55 252.64 1260.51 251.56 1260.51 249.66C1260.51 247.32 1259.03 246.06 1256.67 246.06C1254.53 246.06 1253.13 247.36 1252.81 248.98L1254.35 249.28C1254.57 248.32 1255.19 247.46 1256.61 247.46C1258.19 247.46 1258.91 248.48 1258.91 249.78C1258.91 251.52 1258.13 252.42 1256.21 252.42H1255.33V253.78H1256.21C1258.29 253.78 1259.35 254.38 1259.35 256.16C1259.35 257.8 1258.61 258.76 1256.67 258.76C1255.25 258.76 1254.43 258 1253.97 257.22L1252.59 258.08C1253.19 259.16 1254.53 260.16 1256.49 260.16C1259.29 260.16 1260.87 258.7 1260.87 256.08Z" fill="white"/>
<rect width="130" height="50" transform="translate(1160 68)" fill="#0A1F2F"/>
<path d="M1194.25 100V87.4H1197.97V85.98H1188.91V87.4H1192.65V100H1194.25ZM1209.66 92.92C1209.66 87.76 1207.62 85.78 1204.3 85.78C1200.92 85.78 1198.78 87.88 1198.78 93.06C1198.78 98.22 1200.8 100.2 1204.14 100.2C1207.5 100.2 1209.66 98.1 1209.66 92.92ZM1200.42 92.92C1200.42 88.56 1201.9 87.22 1204.18 87.22C1206.52 87.22 1208.02 88.68 1208.02 93.06C1208.02 97.4 1206.56 98.76 1204.24 98.76C1201.92 98.76 1200.42 97.3 1200.42 92.92ZM1222.14 100L1216.7 92.98L1221.68 85.98H1219.82L1214.88 92.98V93.06L1220.1 100H1222.14ZM1214.36 100V85.98H1212.76V100H1214.36ZM1232.04 100V98.58H1225.92V93.6H1231.06V92.18H1225.92V87.4H1231.76V85.98H1224.32V100H1232.04ZM1236.41 100V91.6C1236.41 90.2 1236.39 89.08 1236.35 87.88H1236.51C1237.03 88.96 1237.55 90.02 1238.11 91.06L1242.87 100H1245.07V85.98H1243.57V94.26C1243.57 95.44 1243.57 96.74 1243.61 98.02H1243.47C1242.97 96.98 1242.39 95.88 1241.85 94.86L1237.13 85.98H1234.89V100H1236.41ZM1258.75 100V86.22H1257.07L1253.07 88.88L1253.99 90.18L1255.73 88.96L1257.19 87.94H1257.27C1257.23 89.18 1257.21 90.44 1257.19 91.68V100H1258.75Z" fill="white"/>
<path fill-rule="evenodd" clip-rule="evenodd" d="M544.5 178.062L555 172L544.5 165.938V171L445 171L445 173L544.5 173V178.062Z" fill="#5A6E7D"/>
<path fill-rule="evenodd" clip-rule="evenodd" d="M834.5 178.062L845 172L834.5 165.938V171L735 171V173L834.5 173V178.062Z" fill="#5A6E7D"/>
<path fill-rule="evenodd" clip-rule="evenodd" d="M1124.5 178.062L1135 172L1124.5 165.938V171L1025 171V173L1124.5 173V178.062Z" fill="#5A6E7D"/>
<path fill-rule="evenodd" clip-rule="evenodd" d="M254.5 178.062L265 172L254.5 165.938V171L155 171L155 173L254.5 173V178.062Z" fill="#5A6E7D"/>
<path fill-rule="evenodd" clip-rule="evenodd" d="M253.889 222.477L261.683 213.189L249.743 211.083L251.474 215.84L157.975 249.871L158.659 251.751L252.158 217.72L253.889 222.477Z" fill="#5A6E7D"/>
<path fill-rule="evenodd" clip-rule="evenodd" d="M1119.5 252.916L1131.44 250.811L1123.65 241.523L1121.91 246.28L1028.42 212.249L1027.73 214.129L1121.23 248.16L1119.5 252.916Z" fill="#5A6E7D"/>
<path fill-rule="evenodd" clip-rule="evenodd" d="M249.743 132.916L261.683 130.811L253.89 121.523L252.159 126.28L158.659 92.2493L157.975 94.1287L251.475 128.16L249.743 132.916Z" fill="#5A6E7D"/>
<path fill-rule="evenodd" clip-rule="evenodd" d="M1123.65 102.477L1131.44 93.1889L1119.5 91.0835L1121.23 95.8405L1027.73 129.871L1028.42 131.751L1121.92 97.7198L1123.65 102.477Z" fill="#5A6E7D"/>
<defs>
<filter id="filter0_d" x="550" y="118" width="190" height="110" filterUnits="userSpaceOnUse" color-interpolation-filters="sRGB">
<feFlood flood-opacity="0" result="BackgroundImageFix"/>
<feColorMatrix in="SourceAlpha" type="matrix" values="0 0 0 0 0 0 0 0 0 0 0 0 0 0 0 0 0 0 127 0"/>
<feOffset/>
<feGaussianBlur stdDeviation="15"/>
<feColorMatrix type="matrix" values="0 0 0 0 0.156863 0 0 0 0 0.858824 0 0 0 0 0.819608 0 0 0 0.5 0"/>
<feBlend mode="normal" in2="BackgroundImageFix" result="effect1_dropShadow"/>
<feBlend mode="normal" in="SourceGraphic" in2="effect1_dropShadow" result="shape"/>
</filter>
</defs>
</svg>
