<svg width="64" height="64" viewBox="0 0 64 64" fill="#28DBD1" xmlns="http://www.w3.org/2000/svg">
	<path d="M55.7181 59.5537H50.4628V50.7958C50.4628 46.3495 48.4574 42.24 44.9309 39.4105L41.1968 36.4463C39.8138 35.3684 39.0532 33.7516 39.0532 32C39.0532 30.2484 39.8138 28.6316 41.1968 27.5537L44.9309 24.5895C48.4574 21.76 50.4628 17.6505 50.4628 13.2716V4.44632H55.7181C56.9628 4.44632 58 3.43579 58 2.22316C58 1.01053 56.9628 0 55.7181 0H8.28192C7.03723 0 6 1.01053 6 2.22316C6 3.43579 7.03723 4.44632 8.28192 4.44632H13.5372V13.2716C13.5372 17.6505 15.5426 21.76 19.0691 24.6568L22.8032 27.5537C24.1862 28.6316 24.9468 30.2484 24.9468 32C24.9468 33.7516 24.1862 35.3011 22.8032 36.4463L19.0691 39.4105C15.5426 42.24 13.5372 46.3495 13.5372 50.7958V59.5537H8.28192C7.03723 59.5537 6 60.5642 6 61.7768C6 62.9895 7.03723 64 8.28192 64H55.7181C56.9628 64 58 62.9895 58 61.7768C58 60.5642 56.9628 59.5537 55.7181 59.5537ZM45.8989 4.44632V13.2716C45.8989 14.7537 45.5532 16.1684 44.9309 17.5158H19.0691C18.4468 16.1684 18.1011 14.7537 18.1011 13.2716V4.44632H45.8989ZM21.9734 42.8463L25.7074 39.8821C28.0585 37.9958 29.4415 35.2337 29.5106 32.2695L30.6862 33.1453C31.4468 33.7516 32.6223 33.7516 33.383 33.1453L34.5585 32.2695C34.6277 35.2337 36.0106 37.9958 38.3617 39.8821L42.0957 42.8463C44.516 44.8 45.9681 47.6968 45.9681 50.7284V58.6105L33.9362 53.2211C32.7606 52.6821 31.4468 52.6821 30.2713 53.2211L18.2394 58.6105V50.7284C18.1011 47.6968 19.5532 44.8 21.9734 42.8463Z"/>
	<g>
		<path d="M31.999 62.863C32.992 62.863 33.7969 62.0788 33.7969 61.1114C33.7969 60.1441 32.992 59.3599 31.999 59.3599C31.0061 59.3599 30.2012 60.1441 30.2012 61.1114C30.2012 62.0788 31.0061 62.863 31.999 62.863Z"/>
		<path d="M31.999 56.863C32.992 56.863 33.7969 56.0788 33.7969 55.1114C33.7969 54.1441 32.992 53.3599 31.999 53.3599C31.0061 53.3599 30.2012 54.1441 30.2012 55.1114C30.2012 56.0788 31.0061 56.863 31.999 56.863Z"/>
		<path d="M31.999 50.863C32.992 50.863 33.7969 50.0788 33.7969 49.1114C33.7969 48.1441 32.992 47.3599 31.999 47.3599C31.0061 47.3599 30.2012 48.1441 30.2012 49.1114C30.2012 50.0788 31.0061 50.863 31.999 50.863Z"/>
		<path d="M31.999 45.2043C32.992 45.2043 33.7969 44.4201 33.7969 43.4527C33.7969 42.4854 32.992 41.7012 31.999 41.7012C31.0061 41.7012 30.2012 42.4854 30.2012 43.4527C30.2012 44.4201 31.0061 45.2043 31.999 45.2043Z"/>
		<path d="M31.999 39.478C32.992 39.478 33.7969 38.6938 33.7969 37.7264C33.7969 36.7591 32.992 35.9749 31.999 35.9749C31.0061 35.9749 30.2012 36.7591 30.2012 37.7264C30.2012 38.6938 31.0061 39.478 31.999 39.478Z"/>
		<path d="M31.999 33.478C32.992 33.478 33.7969 32.6938 33.7969 31.7264C33.7969 30.7591 32.992 29.9749 31.999 29.9749C31.0061 29.9749 30.2012 30.7591 30.2012 31.7264C30.2012 32.6938 31.0061 33.478 31.999 33.478Z"/>
		<path d="M31.999 27.478C32.992 27.478 33.7969 26.6938 33.7969 25.7264C33.7969 24.7591 32.992 23.9749 31.999 23.9749C31.0061 23.9749 30.2012 24.7591 30.2012 25.7264C30.2012 26.6938 31.0061 27.478 31.999 27.478Z"/>
	</g>
</svg>