<svg width="251" height="28" viewBox="0 0 251 28" fill="none" xmlns="http://www.w3.org/2000/svg">
<path d="M7.03747 6.65922H0.75V0.60134H20.2763V6.65922H14.0669V26.5306H7.03747V6.65922Z" fill="white"/>
<path d="M44.6985 0.60134V26.5306H37.669V16.4599H30.3662V26.5306H23.4148V0.60134H30.3662V10.5177H37.669V0.60134H44.6985Z" fill="white"/>
<path d="M59.8796 27.0322C55.8962 27.0322 53.0193 25.9647 51.249 23.8296C49.5046 21.6946 48.6324 18.312 48.6324 13.6817C48.6324 9.00006 49.5046 5.56597 51.249 3.37948C52.9933 1.19298 55.8702 0.0997314 59.8796 0.0997314C63.889 0.0997314 66.7659 1.19298 68.5102 3.37948C70.2546 5.56597 71.1267 8.9872 71.1267 13.6431C71.1267 18.0933 70.2676 21.4374 68.5493 23.6753C66.8309 25.9132 63.9411 27.0322 59.8796 27.0322ZM59.8796 21.0901C60.895 21.0901 61.689 20.8457 62.2618 20.357C62.8606 19.8425 63.2902 19.0579 63.5505 18.0033C63.8109 16.9229 63.9411 15.4695 63.9411 13.6431C63.9411 10.9165 63.6416 8.97433 63.0428 7.81678C62.444 6.6335 61.3896 6.04186 59.8796 6.04186C58.3956 6.04186 57.3412 6.6335 56.7163 7.81678C56.1175 9.00006 55.8181 10.955 55.8181 13.6817C55.8181 16.0997 56.0785 17.939 56.5992 19.1994C57.1199 20.4599 58.2133 21.0901 59.8796 21.0901Z" fill="white"/>
<path d="M75.1671 0.60134H85.6723C88.9527 0.60134 91.413 1.36018 93.0532 2.87787C94.7195 4.39555 95.5526 6.6335 95.5526 9.5917C95.5526 12.5499 94.4852 15.0322 92.3503 17.0386L95.2011 26.5306H87.5859L85.6723 18.6978H82.1185V26.5306H75.1671V0.60134ZM85.7895 12.8329C86.6226 12.8329 87.2604 12.5242 87.703 11.9068C88.1717 11.2637 88.406 10.492 88.406 9.5917C88.406 8.7171 88.1456 7.97112 87.6249 7.35376C87.1303 6.73639 86.4794 6.42771 85.6723 6.42771H82.1185V12.8329H85.7895Z" fill="white"/>
<path d="M107.465 27.0708C105.226 27.0708 102.675 26.6978 99.8112 25.9518L98.4053 25.6432L99.1082 20.3956C102.545 20.8586 105.2 21.0901 107.075 21.0901C109.106 21.0901 110.121 20.3956 110.121 19.0065C110.121 18.5177 109.887 18.1319 109.418 17.8489C108.976 17.566 108.312 17.2573 107.426 16.9229C106.854 16.7171 106.437 16.5499 106.177 16.4213C103.235 15.4438 101.139 14.3248 99.8893 13.0644C98.6656 11.8039 98.0538 10.2219 98.0538 8.31839C98.0538 5.61742 98.8869 3.5724 100.553 2.18333C102.219 0.794266 104.484 0.0997314 107.348 0.0997314C108.52 0.0997314 109.626 0.176902 110.668 0.331244C111.735 0.485585 113.675 0.81999 116.487 1.33446L115.94 6.65922C112.555 6.27337 109.952 6.08044 108.129 6.08044C105.994 6.08044 104.927 6.65922 104.927 7.81678C104.927 8.20263 105.187 8.53703 105.708 8.81999C106.229 9.07723 107.049 9.41163 108.168 9.82321C109.314 10.2348 110.056 10.5177 110.394 10.6721C112.113 11.3666 113.441 12.0483 114.378 12.7171C115.315 13.3602 115.992 14.1448 116.409 15.0708C116.825 15.9968 117.033 17.1673 117.033 18.5821C117.033 20.3827 116.604 21.9261 115.745 23.2123C114.911 24.4727 113.766 25.4374 112.308 26.1062C110.876 26.7493 109.262 27.0708 107.465 27.0708Z" fill="white"/>
<path d="M124.958 6.65922H118.671V0.60134H138.197V6.65922H131.987V26.5306H124.958V6.65922Z" fill="white"/>
<path d="M153.159 23.2123H145.504L144.997 26.5306H137.967L143.005 0.60134H155.658L160.696 26.5306H153.666L153.159 23.2123ZM150.191 6.23478H148.472L146.676 17.2702H151.987L150.191 6.23478Z" fill="white"/>
<path d="M163.798 0.60134H174.303C177.584 0.60134 180.044 1.36018 181.684 2.87787C183.351 4.39555 184.184 6.6335 184.184 9.5917C184.184 12.5499 183.116 15.0322 180.981 17.0386L183.832 26.5306H176.217L174.303 18.6978H170.75V26.5306H163.798V0.60134ZM174.421 12.8329C175.254 12.8329 175.891 12.5242 176.334 11.9068C176.803 11.2637 177.037 10.492 177.037 9.5917C177.037 8.7171 176.777 7.97112 176.256 7.35376C175.761 6.73639 175.11 6.42771 174.303 6.42771H170.75V12.8329H174.421Z" fill="white"/>
<path d="M192.575 6.65922H186.288V0.60134H205.814V6.65922H199.605V26.5306H192.575V6.65922Z" fill="white"/>
<path d="M215.904 6.58205V10.6335H224.261V16.4985H215.904V20.5499H226.605V26.5306H208.953V0.60134H226.605V6.58205H215.904Z" fill="white"/>
<path d="M230.615 0.60134H241.12C244.4 0.60134 246.861 1.36018 248.501 2.87787C250.167 4.39555 251 6.6335 251 9.5917C251 12.5499 249.933 15.0322 247.798 17.0386L250.649 26.5306H243.033L241.12 18.6978H237.566V26.5306H230.615V0.60134ZM241.237 12.8329C242.07 12.8329 242.708 12.5242 243.151 11.9068C243.619 11.2637 243.854 10.492 243.854 9.5917C243.854 8.7171 243.593 7.97112 243.073 7.35376C242.578 6.73639 241.927 6.42771 241.12 6.42771H237.566V12.8329H241.237Z" fill="white"/>
</svg>
