<svg width="25" height="24" viewBox="0 0 25 24" fill="none" xmlns="http://www.w3.org/2000/svg">
<g clip-path="url(#clip0)">
<path d="M21.5 6.65738C20.8306 6.93846 20.1174 7.12477 19.3737 7.21523C20.1388 6.778 20.7226 6.09092 20.9971 5.26277C20.2839 5.66985 19.4964 5.95738 18.6571 6.11785C17.9799 5.42754 17.0146 5 15.9616 5C13.9186 5 12.2739 6.58738 12.2739 8.53339C12.2739 8.81339 12.2986 9.08262 12.3594 9.33892C9.2915 9.19569 6.57687 7.78815 4.75325 5.644C4.43487 6.17277 4.24813 6.778 4.24813 7.42954C4.24813 8.65292 4.90625 9.73738 5.88725 10.3652C5.29437 10.3545 4.71275 10.1897 4.22 9.93015C4.22 9.94092 4.22 9.95492 4.22 9.96892C4.22 11.6855 5.49912 13.1114 7.1765 13.4398C6.87612 13.5185 6.54875 13.5562 6.209 13.5562C5.97275 13.5562 5.73425 13.5432 5.51038 13.4958C5.9885 14.8948 7.34525 15.9232 8.9585 15.9566C7.703 16.8968 6.10888 17.4632 4.38313 17.4632C4.0805 17.4632 3.79025 17.4503 3.5 17.4148C5.13462 18.4238 7.07188 19 9.161 19C15.9515 19 19.664 13.6154 19.664 8.948C19.664 8.79185 19.6584 8.64108 19.6505 8.49138C20.3829 7.99385 20.9982 7.37246 21.5 6.65738Z" fill="#28DBD1"/>
</g>
<defs>
<clipPath id="clip0">
<rect width="18" height="14" fill="white" transform="translate(3.5 5)"/>
</clipPath>
</defs>
</svg>
