<svg width="35" height="35" viewBox="0 0 35 35" fill="#28DBD1" xmlns="http://www.w3.org/2000/svg">
	<path d="M18.5625 24.8952C18.5625 26.3626 19.7564 27.5565 21.2238 27.5565H24.3508C25.8182 27.5565 27.0121 26.3626 27.0121 24.8952V21.7682C27.0121 20.3007 25.8182 19.1069 24.3508 19.1069H21.2238C19.7564 19.1069 18.5625 20.3007 18.5625 21.7682V24.8952ZM21.2238 21.7682H24.3508L24.3525 24.8951C24.3525 24.8951 24.352 24.8952 24.3508 24.8952H21.2238V21.7682Z"/>
	<path d="M25.6822 15.9799C26.4171 15.9799 27.0129 15.3841 27.0129 14.6492C27.0129 13.9143 26.4171 13.3186 25.6822 13.3186C24.9473 13.3186 24.3516 13.9143 24.3516 14.6492C24.3516 15.3841 24.9473 15.9799 25.6822 15.9799Z"/>
	<path d="M19.8931 15.9799C20.628 15.9799 21.2238 15.3841 21.2238 14.6492C21.2238 13.9143 20.628 13.3186 19.8931 13.3186C19.1582 13.3186 18.5625 13.9143 18.5625 14.6492C18.5625 15.3841 19.1582 15.9799 19.8931 15.9799Z"/>
	<path d="M32.7339 24.0968C33.4688 24.0968 34.0645 23.5011 34.0645 22.7661V8.6613C34.0645 5.72643 31.6768 3.33872 28.7419 3.33872H27.0121V2.00807C27.0121 1.27316 26.4164 0.677429 25.6815 0.677429C24.9465 0.677429 24.3508 1.27316 24.3508 2.00807V3.33872H18.2964V2.00807C18.2964 1.27316 17.7006 0.677429 16.9657 0.677429C16.2308 0.677429 15.6351 1.27316 15.6351 2.00807V3.33872H9.64718V2.00807C9.64718 1.27316 9.05145 0.677429 8.31653 0.677429C7.58162 0.677429 6.98589 1.27316 6.98589 2.00807V3.33872H5.32258C2.38771 3.33872 0 5.72643 0 8.6613V29.4194C0 32.3542 2.38771 34.7419 5.32258 34.7419H28.7419C31.6768 34.7419 34.0645 32.3542 34.0645 29.4194C34.0645 28.6845 33.4688 28.0887 32.7339 28.0887C31.999 28.0887 31.4032 28.6845 31.4032 29.4194C31.4032 30.8868 30.2094 32.0807 28.7419 32.0807H5.32258C3.85515 32.0807 2.66129 30.8868 2.66129 29.4194V8.6613C2.66129 7.19386 3.85515 6.00001 5.32258 6.00001H6.98589V7.33066C6.98589 8.06557 7.58162 8.6613 8.31653 8.6613C9.05145 8.6613 9.64718 8.06557 9.64718 7.33066V6.00001H15.6351V7.33066C15.6351 8.06557 16.2308 8.6613 16.9657 8.6613C17.7006 8.6613 18.2964 8.06557 18.2964 7.33066V6.00001H24.3508V7.33066C24.3508 8.06557 24.9465 8.6613 25.6815 8.6613C26.4164 8.6613 27.0121 8.06557 27.0121 7.33066V6.00001H28.7419C30.2094 6.00001 31.4032 7.19386 31.4032 8.6613V22.7661C31.4032 23.5011 31.999 24.0968 32.7339 24.0968Z"/>
	<path d="M8.31697 27.5565C9.05187 27.5565 9.64762 26.9607 9.64762 26.2258C9.64762 25.4909 9.05187 24.8952 8.31697 24.8952C7.58208 24.8952 6.98633 25.4909 6.98633 26.2258C6.98633 26.9607 7.58208 27.5565 8.31697 27.5565Z"/>
	<path d="M8.31697 15.9799C9.05187 15.9799 9.64762 15.3841 9.64762 14.6492C9.64762 13.9143 9.05187 13.3186 8.31697 13.3186C7.58208 13.3186 6.98633 13.9143 6.98633 14.6492C6.98633 15.3841 7.58208 15.9799 8.31697 15.9799Z"/>
	<path d="M8.31697 21.7682C9.05187 21.7682 9.64762 21.1724 9.64762 20.4375C9.64762 19.7026 9.05187 19.1069 8.31697 19.1069C7.58208 19.1069 6.98633 19.7026 6.98633 20.4375C6.98633 21.1724 7.58208 21.7682 8.31697 21.7682Z"/>
	<path d="M14.1041 21.7682C14.839 21.7682 15.4347 21.1724 15.4347 20.4375C15.4347 19.7026 14.839 19.1069 14.1041 19.1069C13.3692 19.1069 12.7734 19.7026 12.7734 20.4375C12.7734 21.1724 13.3692 21.7682 14.1041 21.7682Z"/>
	<path d="M14.1041 15.9799C14.839 15.9799 15.4347 15.3841 15.4347 14.6492C15.4347 13.9143 14.839 13.3186 14.1041 13.3186C13.3692 13.3186 12.7734 13.9143 12.7734 14.6492C12.7734 15.3841 13.3692 15.9799 14.1041 15.9799Z"/>
	<path d="M14.1041 27.5565C14.839 27.5565 15.4347 26.9607 15.4347 26.2258C15.4347 25.4909 14.839 24.8952 14.1041 24.8952C13.3692 24.8952 12.7734 25.4909 12.7734 26.2258C12.7734 26.9607 13.3692 27.5565 14.1041 27.5565Z"/>
</svg>
