<svg width="16" height="16" viewBox="0 0 16 16" fill="white" xmlns="http://www.w3.org/2000/svg">
	<path d="M8.88393 7.99925L15.8169 14.9323C16.061 15.1764 16.061 15.5721 15.8169 15.8162C15.5729 16.0603 15.1771 16.0603 14.933 15.8162L7.99999 8.88315L1.06697 15.8162C0.822881 16.0603 0.427132 16.0603 0.18307 15.8162C-0.0609921 15.5721 -0.0610233 15.1764 0.18307 14.9323L7.11609 7.99928L0.18307 1.06623C-0.0610233 0.822137 -0.0610233 0.426388 0.18307 0.182326C0.305101 0.0602951 0.465069 -0.000704765 0.625038 -0.000704765C0.785006 -0.000704765 0.944944 0.0602951 1.06701 0.182326L7.99999 7.11534L14.933 0.182326C15.055 0.0602951 15.215 -0.000704765 15.375 -0.000704765C15.5349 -0.000704765 15.6949 0.0602951 15.8169 0.182326C16.061 0.426419 16.061 0.822168 15.8169 1.06623L8.88393 7.99925Z"/>
</svg>