<svg width="33" height="32" viewBox="0 0 33 32" fill="white" xmlns="http://www.w3.org/2000/svg">
	<path fill-rule="evenodd" d="M24.0454 9.99756H21.0129V6.93537C21.0129 6.41879 20.5855 6 20.0584 6H8.95457C8.42739 6 8 6.41879 8 6.93537V21.07C8 21.5865 8.42739 22.0053 8.95457 22.0053H11.987V25.0646C11.987 25.5812 12.4144 26 12.9416 26H24.0454C24.5726 26 25 25.5812 25 25.0646V10.9329C25 10.4164 24.5726 9.99756 24.0454 9.99756ZM9.90912 20.1346V7.87073H19.1037V9.99756H12.9416C12.4144 9.99756 11.987 10.4164 11.987 10.9329V20.1346H9.90912ZM13.8962 24.1293H23.0909V11.8683H13.8962V24.1293Z"/>
</svg>