<svg width="32" height="32" viewBox="0 0 32 32" fill="white" xmlns="http://www.w3.org/2000/svg">
	<path d="M18.734 8C20.7061 7.99929 22.5857 8.82319 23.9051 10.2666C25.2244 11.7101 25.8595 13.6373 25.6521 15.5687C27.9346 16.3258 29.3243 18.5998 28.9349 20.9406C28.5537 23.2315 26.5783 24.9263 24.2363 24.9977L24.0831 25H7.92189C5.31389 25.0025 3.15759 22.9993 3.0082 20.4351C2.8588 17.8709 4.76829 15.6379 7.35947 15.3466C7.83604 13.0013 9.92999 11.315 12.3587 11.3208C12.493 11.3208 12.6276 11.3259 12.7625 11.336C14.0247 9.2731 16.2885 8.00843 18.734 8ZM18.7402 9.75861C16.9699 9.76471 15.3286 10.6499 14.3714 12.1015L14.278 12.2485L13.7135 13.1711L12.6287 13.0896C12.5383 13.0828 12.4483 13.0794 12.3545 13.0794C10.8173 13.0758 9.48909 14.1077 9.12821 15.5571L9.09724 15.6941L8.84208 16.9498L7.55906 17.0941C5.9004 17.2805 4.68303 18.7041 4.77797 20.3336C4.8704 21.9201 6.17601 23.1736 7.78696 23.2387L7.92189 23.2414H24.0829C25.6261 23.2412 26.938 22.1436 27.1858 20.6542C27.4256 19.2127 26.6013 17.8082 25.2209 17.2832L25.0899 17.2365L23.7383 16.7882L23.8893 15.3824C24.0431 13.9501 23.572 12.5203 22.5918 11.448C21.65 10.4175 20.323 9.81011 18.9183 9.76175L18.7402 9.75861ZM17.7172 13.5175C17.7172 13.0512 17.3334 12.6732 16.8599 12.6732C16.3863 12.6732 16.0025 13.0512 16.0025 13.5175V18.6858L14.2981 17.1204C14.0758 16.9059 13.753 16.8269 13.4547 16.9139C13.1563 17.0009 12.9292 17.2402 12.8613 17.5393C12.7935 17.8383 12.8954 18.1501 13.1278 18.3539L16.276 21.2475L16.3283 21.2906L16.3617 21.3159L16.3943 21.3378L16.4312 21.3598L16.4552 21.3775L16.4938 21.3961L16.5298 21.4121L16.5692 21.4265L16.6069 21.4383L16.6867 21.4577L16.7347 21.4653L16.8107 21.4733L16.8538 21.4738L16.9396 21.4696L17.021 21.4577L17.1008 21.4383L17.1779 21.4121L17.234 21.3871L17.3237 21.337L17.3906 21.2897L17.442 21.2467L20.5868 18.3539H20.5894C20.9219 18.0331 20.9337 17.5094 20.6158 17.1744C20.298 16.8394 19.7667 16.8154 19.4191 17.1204L17.7172 18.6858V13.5175Z"/>
</svg>
