<svg width="24" height="24" viewBox="0 0 24 24" fill="none" xmlns="http://www.w3.org/2000/svg">
	<g opacity="0.5">
		<path d="M16.2071 7.52441C15.0667 7.76253 13.8449 7.90348 12.5859 7.937V11.4142H16.7072C16.6692 10.0446 16.4984 8.72787 16.2071 7.52441Z" fill="white"/>
		<path d="M6.1202 11.4141C6.15884 9.95226 6.34175 8.54151 6.65522 7.24663C5.62866 6.95847 4.68941 6.58593 3.87486 6.13818C2.75923 7.67766 2.10997 9.49482 2 11.4141H6.1202Z" fill="white"/>
		<path d="M6.1202 12.5864H2C2.10997 14.5057 2.75923 16.3228 3.87483 17.8623C4.68937 17.4146 5.62866 17.042 6.65522 16.7539C6.34175 15.459 6.1588 14.0482 6.1202 12.5864Z" fill="white"/>
		<path d="M13.6851 2.67749C13.3268 2.37437 12.9589 2.17017 12.5859 2.06543V6.76488C13.7367 6.73284 14.8499 6.60666 15.8876 6.39569C15.6972 5.8136 15.4758 5.26685 15.2247 4.76457C14.7735 3.8622 14.2555 3.15997 13.6851 2.67749Z" fill="white"/>
		<path d="M6.96964 17.8799C6.11177 18.1208 5.3234 18.4246 4.63086 18.7855C4.72384 18.8862 4.81854 18.9858 4.91605 19.0833C6.04262 20.2099 7.39028 21.035 8.86119 21.5183C8.44915 21.0313 8.06809 20.4431 7.72641 19.7597C7.43728 19.1815 7.1844 18.5511 6.96964 17.8799Z" fill="white"/>
		<path d="M8.7743 4.76457C8.52317 5.26685 8.30178 5.8136 8.11133 6.39569C9.14911 6.60666 10.2623 6.73284 11.413 6.76488V2.06543C11.0401 2.17021 10.6722 2.37437 10.3139 2.67749C9.74347 3.15997 9.22552 3.8622 8.7743 4.76457Z" fill="white"/>
		<path d="M17.8788 12.5864C17.8401 14.0482 17.6572 15.459 17.3438 16.7539C18.3703 17.042 19.3096 17.4146 20.1241 17.8623C21.2397 16.3228 21.889 14.5057 21.999 12.5864H17.8788Z" fill="white"/>
		<path d="M17.0303 6.12028C17.8881 5.87936 18.6765 5.57557 19.369 5.21471C19.276 5.11396 19.1814 5.01437 19.0838 4.91686C17.9573 3.79033 16.6096 2.96527 15.1387 2.48193C15.5507 2.96894 15.9318 3.5571 16.2735 4.24042C16.5626 4.81869 16.8155 5.44907 17.0303 6.12028Z" fill="white"/>
		<path d="M15.2247 19.2357C15.4758 18.7334 15.6972 18.1866 15.8877 17.6045C14.8499 17.3936 13.7367 17.2674 12.5859 17.2354V21.9348C12.9589 21.8301 13.3268 21.6259 13.6851 21.3227C14.2555 20.8403 14.7735 20.1381 15.2247 19.2357Z" fill="white"/>
		<path d="M17.3438 7.24708C17.6572 8.54196 17.8401 9.9527 17.8788 11.4145H21.999C21.889 9.49527 21.2397 7.67811 20.1241 6.13867C19.3096 6.58638 18.3703 6.95892 17.3438 7.24708Z" fill="white"/>
		<path d="M12.5859 12.5864V16.0637C13.8449 16.0972 15.0667 16.2381 16.2071 16.4762C16.4984 15.2728 16.6692 13.956 16.7072 12.5864H12.5859Z" fill="white"/>
		<path d="M11.4143 11.4142V7.937C10.1553 7.90348 8.93351 7.76253 7.79307 7.52441C7.50182 8.72791 7.33094 10.0446 7.29297 11.4142H11.4143Z" fill="white"/>
		<path d="M6.96964 6.12028C7.18436 5.44903 7.43728 4.81869 7.72641 4.24042C8.06809 3.5571 8.44915 2.9689 8.86119 2.48193C7.39032 2.96527 6.04262 3.79033 4.91605 4.9169C4.81854 5.01441 4.72384 5.11399 4.63086 5.21475C5.3234 5.57557 6.11177 5.87936 6.96964 6.12028Z" fill="white"/>
		<path d="M17.0302 17.8799C16.8155 18.5511 16.5626 19.1815 16.2735 19.7597C15.9318 20.4431 15.5507 21.0313 15.1387 21.5183C16.6095 21.035 17.9572 20.2099 19.0838 19.0833C19.1813 18.9858 19.276 18.8862 19.369 18.7855C18.6765 18.4246 17.8881 18.1208 17.0302 17.8799Z" fill="white"/>
		<path d="M11.4143 12.5864H7.29297C7.33094 13.9561 7.50182 15.2728 7.79307 16.4762C8.93347 16.2381 10.1553 16.0972 11.4143 16.0637V12.5864Z" fill="white"/>
		<path d="M10.3139 21.3227C10.6722 21.6258 11.0401 21.83 11.413 21.9348V17.2354C10.2623 17.2674 9.14911 17.3936 8.11133 17.6045C8.30178 18.1866 8.52313 18.7334 8.7743 19.2357C9.22552 20.1381 9.74347 20.8402 10.3139 21.3227Z" fill="white"/>
	</g>
</svg>