<svg width="24" height="24" viewBox="0 0 24 24" fill="none" xmlns="http://www.w3.org/2000/svg">
	<g opacity="0.5">
		<path d="M12 2C6.475 2 2 6.59124 2 12.2538C2 16.785 4.865 20.6275 8.8375 21.9823C9.3375 22.0788 9.52083 21.7614 9.52083 21.4893C9.52083 21.2458 9.5125 20.6006 9.50833 19.7458C6.72667 20.3641 6.14 18.3702 6.14 18.3702C5.685 17.1867 5.0275 16.8702 5.0275 16.8702C4.12167 16.2346 5.0975 16.2476 5.0975 16.2476C6.10167 16.3189 6.62917 17.3041 6.62917 17.3041C7.52083 18.8719 8.97 18.4189 9.54167 18.1572C9.63167 17.4937 9.88917 17.0424 10.175 16.7859C7.95417 16.5293 5.62 15.6476 5.62 11.719C5.62 10.5999 6.0075 9.6851 6.64917 8.96772C6.53667 8.7086 6.19917 7.666 6.73667 6.25385C6.73667 6.25385 7.57417 5.97907 9.48667 7.30514C10.2867 7.07732 11.1367 6.96427 11.9867 6.95906C12.8367 6.96427 13.6867 7.07732 14.4867 7.30514C16.3867 5.97907 17.2242 6.25385 17.2242 6.25385C17.7617 7.666 17.4242 8.7086 17.3242 8.96772C17.9617 9.6851 18.3492 10.5999 18.3492 11.719C18.3492 15.6581 16.0117 16.525 13.7867 16.7772C14.1367 17.085 14.4617 17.7137 14.4617 18.6745C14.4617 20.0467 14.4492 21.1493 14.4492 21.4823C14.4492 21.751 14.6242 22.0719 15.1367 21.9693C19.1375 20.6232 22 16.778 22 12.2538C22 6.59124 17.5225 2 12 2Z" fill="white"/>
	</g>
</svg>