<svg width="24" height="24" viewBox="0 0 24 24" fill="none" xmlns="http://www.w3.org/2000/svg">
	<g opacity="0.5">
		<path d="M20.6555 3.41265C18.8628 1.52912 15.9564 1.52912 14.1637 3.41261L10.3271 7.44357C8.47282 9.39193 8.6445 12.4963 10.3271 14.2643C10.6089 14.5603 10.9207 14.8017 11.2499 15L11.9501 14.2643C12.4094 13.7817 12.2477 13.2175 12.2395 12.8104C12.1387 12.7353 12.0406 12.6542 11.9501 12.5591C11.0866 11.6519 11.0478 10.0968 11.9501 9.14873C12.0841 9.00794 15.7053 5.2033 15.7866 5.11785C16.6817 4.17742 18.1374 4.17742 19.0325 5.11785C19.9276 6.05829 19.9276 7.58778 19.0325 8.52822L16.4966 11.1926C16.5699 11.6189 17.01 12.6288 16.7836 14.2946C16.7947 14.2832 16.8079 14.2759 16.819 14.2643L20.6555 10.2334C22.4482 8.34985 22.4482 5.29618 20.6555 3.41265Z" fill="white"/>
		<path d="M14.602 9.71844C14.3054 9.42934 13.9771 9.19361 13.6306 9L12.8934 9.71844C12.4098 10.1897 12.58 10.7406 12.5887 11.1381C12.6949 11.2115 12.7981 11.2907 12.8934 11.3836C13.8025 12.2695 13.8434 13.7881 12.8934 14.7139C12.752 14.8517 8.62393 18.8748 8.54133 18.9553C7.59899 19.8737 6.06642 19.8737 5.12408 18.9553C4.18175 18.0369 4.18175 16.5434 5.12408 15.625L8.10695 12.718C8.02975 12.3017 7.56637 11.3155 7.80474 9.68873C7.79311 9.69988 7.77909 9.70714 7.76749 9.7184L3.41544 13.9599C1.52819 15.7992 1.52819 18.7812 3.41544 20.6206C5.30277 22.4598 8.36256 22.4598 10.2499 20.6206L14.602 16.3791C16.518 14.5119 16.4133 11.4836 14.602 9.71844Z" fill="white"/>
	</g>
</svg>