<svg width="15" height="15" viewBox="0 0 15 15" fill="white" xmlns="http://www.w3.org/2000/svg">
	<path opacity=".5" transform="translate(.5,-.4)" d="M14 7.90329C14 3.85532 10.866 0.573792 7 0.573792C3.13401 0.573792 0 3.85532 0 7.90329C0 11.9513 3.13401 15.2328 7 15.2328C10.866 15.2328 14 11.9513 14 7.90329ZM1.14552 7.90329C1.14552 4.51772 3.76669 1.77316 7.00006 1.77316C10.2334 1.77316 12.8546 4.51772 12.8546 7.90329C12.8546 11.2889 10.2334 14.0334 7.00006 14.0334C3.76669 14.0334 1.14552 11.2889 1.14552 7.90329ZM6.76128 9.70247C7.0304 9.70247 7.23457 9.77692 7.38306 9.92582C7.52226 10.0747 7.5965 10.2795 7.5965 10.5307C7.5965 10.7913 7.52226 10.996 7.38306 11.1449C7.23457 11.2938 7.0304 11.3683 6.76128 11.3683C6.49215 11.3683 6.2787 11.2938 6.13949 11.1449C6.00029 11.0053 5.92605 10.8006 5.92605 10.5307C5.92605 10.2701 6.00029 10.0654 6.13949 9.91651C6.2787 9.77692 6.49215 9.70247 6.76128 9.70247ZM8.66758 4.8511C8.271 4.5143 7.73609 4.35045 7.06283 4.35045C6.33424 4.35045 5.77166 4.53251 5.39353 4.90572C5.00618 5.27893 4.76639 5.81693 4.76639 6.42681H6.20513L6.20878 6.33028C6.24522 5.86016 6.55271 5.57932 7.06283 5.57932C7.32107 5.57932 7.51474 5.64304 7.63464 5.76137C7.75453 5.88881 7.80987 6.26296 7.80987 6.42681C7.80987 6.58155 7.77298 6.69989 7.70842 6.79092C7.63464 6.88194 7.50552 7.00028 7.33029 7.13682L7.03517 7.36439L6.91377 7.46136C6.68113 7.65419 6.50947 7.84033 6.3988 8.01978C6.26968 8.22914 6.20513 8.52043 6.20513 8.87543V9.02108H7.58853V8.87543L7.59399 8.77501C7.60845 8.64568 7.65124 8.53499 7.71764 8.44761C7.80065 8.33838 7.94821 8.20183 8.17878 8.02888L8.56613 7.72849L8.67042 7.64463C9.07059 7.30147 9.26705 6.86584 9.26705 6.34488C9.26705 5.83513 9.06415 5.1879 8.66758 4.8511Z"/>
</svg>