<svg width="16" height="16" viewBox="0 0 16 16" fill="white" xmlns="http://www.w3.org/2000/svg">
	<path d="M3.50704 3.41303C5.5248 1.47807 8.55286 1.08193 10.9843 2.34091L10.42 3.31634L13.4266 2.83004L12.3391 0L11.7522 1.0142C8.73286 -0.579074 4.95277 -0.0925559 2.44083 2.3163C-0.30484 4.9499 -0.793768 9.16893 1.27814 12.3483L2.56668 11.5196C0.892264 8.95093 1.28801 5.5416 3.50704 3.41303ZM14.7221 3.72097L13.4336 4.54962C15.1078 7.11832 14.712 10.5277 12.4926 12.6564C10.4818 14.5849 7.46801 14.9847 5.04025 13.7408L5.65218 12.6837L2.64561 13.1704L3.73309 16L4.27463 15.064C5.44126 15.6749 6.71817 15.9806 7.99311 15.9806C10.0133 15.9806 12.0234 15.2256 13.559 13.753C16.3047 11.1189 16.7938 6.89989 14.7221 3.72097Z"/>
</svg>