<svg width="40" height="40" viewBox="0 0 40 40" fill="none" xmlns="http://www.w3.org/2000/svg">
<path d="M16.7926 16C15.7909 16 15 16.9009 15 18C15 19.0991 15.8084 20 16.7926 20C17.7944 20 18.5852 19.0991 18.5852 18C18.6028 16.9009 17.7944 16 16.7926 16ZM23.2074 16C22.2056 16 21.4148 16.9009 21.4148 18C21.4148 19.0991 22.2232 20 23.2074 20C24.2091 20 25 19.0991 25 18C25 16.9009 24.2091 16 23.2074 16Z" fill="white"/>
<path d="M33.7829 0H6.21714C3.89257 0 2 1.84 2 4.12V31.16C2 33.44 3.89257 35.28 6.21714 35.28H29.5451L28.4549 31.58L31.088 33.96L33.5771 36.2L38 40V4.12C38 1.84 36.1074 0 33.7829 0ZM25.8423 26.12C25.8423 26.12 25.1017 25.26 24.4846 24.5C27.1794 23.76 28.208 22.12 28.208 22.12C27.3646 22.66 26.5623 23.04 25.8423 23.3C24.8137 23.72 23.8263 24 22.8594 24.16C20.8846 24.52 19.0743 24.42 17.5314 24.14C16.3589 23.92 15.3509 23.6 14.5074 23.28C14.0343 23.1 13.52 22.88 13.0057 22.6C12.944 22.56 12.8823 22.54 12.8206 22.5C12.7794 22.48 12.7589 22.46 12.7383 22.44C12.368 22.24 12.1623 22.1 12.1623 22.1C12.1623 22.1 13.1497 23.7 15.7623 24.46C15.1451 25.22 14.384 26.12 14.384 26.12C9.83771 25.98 8.10971 23.08 8.10971 23.08C8.10971 16.64 11.072 11.42 11.072 11.42C14.0343 9.26 16.8526 9.32 16.8526 9.32L17.0583 9.56C13.3554 10.6 11.648 12.18 11.648 12.18C11.648 12.18 12.1006 11.94 12.8617 11.6C15.0629 10.66 16.8114 10.4 17.5314 10.34C17.6549 10.32 17.7577 10.3 17.8811 10.3C19.136 10.14 20.5554 10.1 22.0366 10.26C23.9909 10.48 26.0891 11.04 28.2286 12.18C28.2286 12.18 26.6034 10.68 23.1063 9.64L23.3943 9.32C23.3943 9.32 26.2126 9.26 29.1749 11.42C29.1749 11.42 32.1371 16.64 32.1371 23.08C32.1371 23.08 30.3886 25.98 25.8423 26.12Z" fill="white"/>
</svg>
