<svg width="40" height="40" viewBox="0 0 40 40" fill="none" xmlns="http://www.w3.org/2000/svg">
	<path d="M13.3267 35.5399C13.3267 36.6983 12.4583 37.1766 11.4967 36.6983L1.11667 31.5099C0.803333 31.3616 0.54 31.1133 0.325 30.7649C0.11 30.4166 0 30.0699 0 29.7283V4.34992C0 3.40326 0.568333 2.97492 1.85333 3.61492L13.26 9.31492C13.425 9.47992 13.3033 8.34659 13.3267 35.5399ZM14.755 11.6733L26.675 30.9533L14.755 25.0316V11.6733ZM40 12.0749V35.5399C40 35.9116 39.8967 36.2116 39.6867 36.4416C39.4783 36.6716 39.195 36.7866 38.8383 36.7866C38.4817 36.7866 38.1317 36.6899 37.79 36.4966L27.9467 31.5983L40 12.0749ZM39.9333 9.40326C39.9333 9.44826 38.025 12.5616 34.2083 18.7416C30.3917 24.9216 28.155 28.5416 27.5 29.5949L18.795 15.4799L26.0267 3.74826C26.42 3.10159 27.2267 2.98826 27.7683 3.25826L39.845 9.26992C39.9033 9.29826 39.9333 9.34326 39.9333 9.40326Z" fill="white"/>
</svg>
