<svg width="528" height="115" viewBox="0 0 528 115" fill="none" xmlns="http://www.w3.org/2000/svg">
<g clip-path="url(#clip0)">
<path d="M0 115L79.2191 81.1888L54.1577 55.4217L0 115ZM29.0964 29.6902L54.1577 55.4217L98.9253 0L29.0964 29.6902Z" fill="url(#paint0_linear)"/>
<path d="M137.787 42.2115H125.385V35.6282H157.415V42.2234H145.052V79.4351H137.787V42.2115Z" fill="white"/>
<path d="M172.941 35.6282H180.148V54.5745H198.37V35.6282H205.635V79.4509H198.37V61.1617H180.148V79.4509H172.941V35.6282Z" fill="white"/>
<path d="M230.595 78.105C228.135 76.9702 226.279 74.8193 225.029 71.6523C223.779 68.4854 223.154 63.8247 223.154 57.6702C223.154 51.5343 223.788 46.8432 225.057 43.5971C226.325 40.351 228.191 38.1367 230.654 36.9544C233.115 35.7879 236.415 35.2033 240.556 35.2007C244.696 35.1981 248.026 35.7826 250.544 36.9544C253.023 38.1235 254.889 40.3206 256.141 43.5456C257.394 46.7706 258.019 51.4722 258.016 57.6504C258.016 63.7864 257.381 68.4471 256.11 71.6325C254.839 74.818 252.984 76.9755 250.544 78.105C248.104 79.2319 244.774 79.7967 240.556 79.7993C236.337 79.802 233.017 79.2372 230.595 78.105ZM246.735 72.0165C248.162 71.2248 249.188 69.731 249.813 67.5353C250.438 65.3395 250.751 62.0406 250.751 57.6386C250.751 53.0861 250.428 49.6816 249.782 47.4251C249.136 45.1687 248.112 43.6631 246.708 42.9083C245.302 42.1614 243.251 41.7866 240.556 41.784C237.939 41.784 235.927 42.1693 234.521 42.9399C233.115 43.7106 232.08 45.2149 231.416 47.4528C230.752 49.6882 230.42 53.0834 230.42 57.6386C230.42 62.0723 230.722 65.3712 231.326 67.5353C231.93 69.6994 232.943 71.1931 234.365 72.0165C235.771 72.8083 237.841 73.2041 240.575 73.2041C243.258 73.2041 245.311 72.8083 246.735 72.0165Z" fill="white"/>
<path d="M275.534 35.6282H293.112C296.783 35.6282 299.693 36.6086 301.842 38.5695C303.99 40.5304 305.064 44.08 305.064 49.2184C305.064 53.0979 304.39 55.927 303.041 57.7058C301.695 59.4886 299.846 60.8152 297.74 61.5101L306.06 79.439H298.736L291.237 62.5789C288.854 62.5789 286.022 62.538 282.741 62.4562V79.439H275.534V35.6282ZM291.881 56.7082C293.756 56.7082 295.21 56.1646 296.244 55.0772C297.278 53.9899 297.799 52.0409 297.807 49.2302C297.807 46.5383 297.286 44.6909 296.244 43.6881C295.203 42.6852 293.748 42.1904 291.881 42.2036H282.741V56.6884L291.881 56.7082Z" fill="white"/>
<path d="M328.033 78.0456C325.846 76.8765 324.175 74.6688 323.021 71.4227C321.868 68.1766 321.292 63.4869 321.295 57.3535C321.295 51.529 321.881 47.0055 323.053 43.7831C324.224 40.5608 325.943 38.3241 328.209 37.0731C330.469 35.8248 333.399 35.2007 336.997 35.2007C339.361 35.203 341.721 35.3923 344.056 35.7668C346.105 36.0741 348.131 36.5198 350.122 37.1009V42.7539C348.95 42.519 347.279 42.3026 345.11 42.1046C342.941 41.9067 340.728 41.8077 338.47 41.8077C335.892 41.8077 333.909 42.2128 332.521 43.0231C331.133 43.8333 330.128 45.3481 329.506 47.5676C328.881 49.7845 328.568 53.0834 328.568 57.4644C328.568 61.8453 328.861 65.1508 329.447 67.3809C330.033 69.603 331.009 71.1271 332.376 71.9532C333.744 72.7792 335.755 73.1949 338.411 73.2002C342.327 73.2333 346.241 73.0151 350.13 72.547V78.1881C346.575 79.2438 342.142 79.7795 336.829 79.7954C333.152 79.798 330.22 79.2147 328.033 78.0456Z" fill="white"/>
<path d="M367.171 35.6282H374.378V54.5745H392.6V35.6282H399.865V79.4509H392.6V61.1617H374.378V79.4509H367.171V35.6282Z" fill="white"/>
<path d="M429.864 35.6282H439.004L453.066 79.4509H445.508L442.168 69.0475H426.543L423.262 79.439H415.841L429.864 35.6282ZM440.41 62.4681L434.317 41.9265L428.223 62.4681H440.41Z" fill="white"/>
<path d="M468.944 35.6282H476.151V79.4509H468.944V35.6282Z" fill="white"/>
<path d="M495.248 35.6282H501.049L520.735 66.9216V35.6282H528V79.4509H522.2L502.513 48.1772V79.4509H495.248V35.6282Z" fill="white"/>
</g>
<defs>
<linearGradient id="paint0_linear" x1="0" y1="57.5" x2="98.9253" y2="57.5" gradientUnits="userSpaceOnUse">
<stop stop-color="#00CCFF"/>
<stop offset="1" stop-color="#33FF99"/>
</linearGradient>
<clipPath id="clip0">
<rect width="528" height="115" fill="white"/>
</clipPath>
</defs>
</svg>
