<?xml version="1.0" encoding="UTF-8"?>
<svg width="264px" height="24px" viewBox="0 0 264 24" version="1.1" xmlns="http://www.w3.org/2000/svg" xmlns:xlink="http://www.w3.org/1999/xlink">
    <!-- Generator: Sketch 55.1 (78136) - https://sketchapp.com -->
    <title>logo</title>
    <desc>Created with Sketch.</desc>
    <defs>
        <path d="M6.91999104,10.7999997 C7.71359504,11.1072012 8.3407888,11.5455969 8.80159112,12.1151998 C9.26239344,12.6848026 9.49279115,13.347196 9.49279115,14.1023998 C9.49279115,14.9856043 9.27839328,15.718397 8.84959112,16.3007999 C8.42078896,16.8832029 7.85759457,17.3119986 7.15999105,17.5872 C6.46238753,17.8624014 5.69759515,18 4.86559096,18 L0.737590783,18 L0.737590783,4.11839942 L4.32799093,4.11839942 C5.7487981,4.11839942 6.84958713,4.40959652 7.63039107,4.99199946 C8.41119501,5.57440239 8.80159112,6.44799369 8.80159112,7.61279957 C8.80159112,8.34240325 8.63839274,8.9791969 8.3119911,9.52319965 C7.98558945,10.0672024 7.52159407,10.4927982 6.91999104,10.7999997 Z M2.59999086,10.1855997 L4.71199095,10.1855997 C5.42879456,10.1855997 5.96958918,9.98080171 6.33439102,9.57119965 C6.69919286,9.16159758 6.88159104,8.63680281 6.88159104,7.99679958 C6.88159104,7.29279603 6.66399321,6.76800126 6.22879101,6.42239952 C5.79358882,6.07679778 5.18559487,5.9039995 4.40479094,5.9039995 L2.59999086,5.9039995 L2.59999086,10.1855997 Z M4.78879095,16.2719999 C5.59519502,16.2719999 6.26078839,16.0896017 6.78559104,15.7247999 C7.31039368,15.3599981 7.57279107,14.8256034 7.57279107,14.1215998 C7.57279107,13.3919962 7.2879939,12.8544015 6.71839103,12.5087998 C6.14878816,12.163198 5.46079501,11.9903997 4.65439095,11.9903997 L2.59999086,11.9903997 L2.59999086,16.2719999 L4.78879095,16.2719999 Z M20.2639916,18 L16.9999915,12.8735998 C16.8975909,12.8863999 16.7439925,12.8927998 16.5391914,12.8927998 L14.4847914,12.8927998 L14.4847914,18 L12.6223913,18 L12.6223913,4.11839942 L16.3279914,4.11839942 C17.2751962,4.11839942 18.1199878,4.28479776 18.8623915,4.61759944 C19.6047953,4.95040112 20.1871895,5.43999624 20.6095916,6.0863995 C21.0319937,6.73280276 21.2431916,7.51039502 21.2431916,8.4191996 C21.2431916,9.27680392 21.0543935,10.0639961 20.6767916,10.7807997 C20.2991897,11.4976033 19.7199955,12.0415979 18.9391915,12.4127998 L22.4335917,18 L20.2639916,18 Z M16.5007914,11.0879997 C17.4991965,11.0879997 18.2191893,10.8256023 18.6607915,10.3007997 C19.1023938,9.77599703 19.3231916,9.17440302 19.3231916,8.4959996 C19.3231916,8.08639754 19.2303925,7.68320155 19.0447915,7.28639955 C18.8591906,6.88959755 18.5647935,6.56000084 18.1615915,6.29759951 C17.7583895,6.03519819 17.2495945,5.9039995 16.6351914,5.9039995 L14.4847914,5.9039995 L14.4847914,11.0879997 L16.5007914,11.0879997 Z M27.1567919,4.11839942 L27.1567919,18 L25.2943918,18 L25.2943918,4.11839942 L27.1567919,4.11839942 Z M33.0127921,4.11839942 L33.0127921,16.1951999 L40.0783924,16.1951999 L40.0783924,18 L31.1503921,18 L31.1503921,4.11839942 L33.0127921,4.11839942 Z M44.9551926,4.11839942 L44.9551926,16.1951999 L52.0207929,16.1951999 L52.0207929,18 L43.0927925,18 L43.0927925,4.11839942 L44.9551926,4.11839942 Z M56.8975931,4.11839942 L56.8975931,18 L55.035193,18 L55.035193,4.11839942 L56.8975931,4.11839942 Z M68.1679936,14.3519998 L62.8303934,14.3519998 L61.3519933,18 L59.5087932,18 L65.5759935,3.5423994 L65.6911935,3.5423994 L71.7583937,18 L69.6079937,18 L68.1679936,14.3519998 Z M67.5343936,12.7391998 L65.5567935,7.67039957 L63.5023934,12.7391998 L67.5343936,12.7391998 Z M86.4463944,4.11839942 L86.4463944,18.4608 L86.3887944,18.4608 L76.1935939,8.11199959 L76.2319939,18 L74.3503939,18 L74.3503939,3.6959994 L74.4463939,3.6959994 L84.6223943,14.1599998 L84.5839943,4.11839942 L86.4463944,4.11839942 Z M100.635195,16.9632 C100.187193,17.2576014 99.6207983,17.5295987 98.9359949,17.7792 C98.2511914,18.0288012 97.5055988,18.1536 96.6991948,18.1536 C95.2783876,18.1536 94.0272001,17.8400031 92.9455946,17.2128 C91.8639892,16.5855968 91.0319975,15.7408052 90.4495945,14.6783999 C89.8671916,13.6159945 89.5759945,12.4448062 89.5759945,11.1647997 C89.5759945,9.79519281 89.8703916,8.56320508 90.4591945,7.46879956 C91.0479975,6.37439404 91.8639894,5.51680258 92.9071946,4.89599945 C93.9503999,4.27519632 95.1311881,3.96479942 96.4495948,3.96479942 C97.2303987,3.96479942 97.9599914,4.0671984 98.6383949,4.27199943 C99.3167983,4.47680046 99.9247922,4.74559778 100.462395,5.07839946 L99.7135949,6.82559953 C98.6511896,6.10879592 97.5824002,5.75039949 96.5071948,5.75039949 C95.6111903,5.75039949 94.7823985,5.98719713 94.0207947,6.46079952 C93.2591908,6.93440191 92.6511969,7.5775955 92.1967946,8.3903996 C91.7423923,9.2032037 91.5151946,10.0959948 91.5151946,11.0687997 C91.5151946,12.0672047 91.7231925,12.9695958 92.1391946,13.7759998 C92.5551967,14.5824039 93.1503908,15.2127976 93.9247947,15.6671999 C94.6991986,16.1216022 95.5919897,16.3487999 96.6031948,16.3487999 C97.844801,16.3487999 98.9263903,15.9968034 99.8479949,15.2927999 L100.635195,16.9632 Z M112.788795,4.11839942 L112.788795,5.9039995 L105.627195,5.9039995 L105.627195,10.1279997 L112.020795,10.1279997 L112.020795,11.9135997 L105.627195,11.9135997 L105.627195,16.1951999 L113.057595,16.1951999 L113.057595,18 L103.764795,18 L103.764795,4.11839942 L112.788795,4.11839942 Z" id="path-1"></path>
        <path d="M131.422397,3.86879941 L124.971196,18.6528 L118.519996,3.86879941 L121.860796,3.86879941 L125.086396,11.8367997 L128.119996,3.86879941 L131.422397,3.86879941 Z M143.499197,3.86879941 L143.499197,6.55679952 L136.644797,6.55679952 L136.644797,9.57119965 L142.711997,9.57119965 L142.711997,12.2591998 L136.644797,12.2591998 L136.644797,15.3119999 L143.767997,15.3119999 L143.767997,18 L133.860797,18 L133.860797,3.86879941 L143.499197,3.86879941 Z M159.377598,3.86879941 L159.377598,18.576 L159.300798,18.576 L149.412797,9.64799965 L149.470397,18 L146.647997,18 L146.647997,3.31199939 L146.763197,3.31199939 L156.631998,12.3743998 L156.574398,3.86879941 L159.377598,3.86879941 Z M171.588798,3.86879941 L171.588798,6.55679952 L168.151998,6.55679952 L168.151998,18 L165.367998,18 L165.367998,6.55679952 L162.065598,6.55679952 L162.065598,3.86879941 L171.588798,3.86879941 Z M176.772798,12.7775998 C176.772798,13.225602 176.907197,13.6543978 177.175998,14.0639998 C177.4448,14.4736019 177.803196,14.8063986 178.251199,15.0623999 C178.699201,15.3184012 179.179196,15.4463999 179.691199,15.4463999 C180.241601,15.4463999 180.747196,15.3184012 181.207999,15.0623999 C181.668801,14.8063986 182.030397,14.4736019 182.292799,14.0639998 C182.5552,13.6543978 182.686399,13.225602 182.686399,12.7775998 L182.686399,3.86879941 L185.431999,3.86879941 L185.431999,12.8351998 C185.431999,13.8464049 185.176001,14.7583958 184.663999,15.5711999 C184.151996,16.384004 183.457603,17.0175977 182.580799,17.472 C181.703994,17.9264023 180.740804,18.1536 179.691199,18.1536 C178.641593,18.1536 177.681603,17.9264023 176.811198,17.472 C175.940794,17.0175977 175.252801,16.384004 174.747198,15.5711999 C174.241596,14.7583958 173.988798,13.8464049 173.988798,12.8351998 L173.988798,3.86879941 L176.772798,3.86879941 L176.772798,12.7775998 Z M196.414399,18 L193.438399,13.5071998 L191.575999,13.5071998 L191.575999,18 L188.791999,18 L188.791999,3.86879941 L193.073599,3.86879941 C194.827208,3.86879941 196.187194,4.29439517 197.153599,5.14559946 C198.120004,5.99680376 198.603199,7.15839219 198.603199,8.63039961 C198.603199,9.500804 198.420801,10.3167959 198.055999,11.0783997 C197.691198,11.8400036 197.131203,12.4383976 196.375999,12.8735998 L199.659199,18 L196.414399,18 Z M191.575999,10.8191997 L193.553599,10.8191997 C194.308803,10.8191997 194.859197,10.5984019 195.204799,10.1567997 C195.550401,9.71519745 195.723199,9.23840219 195.723199,8.72639961 C195.723199,8.21439703 195.575999,7.72480191 195.281599,7.25759955 C194.987198,6.7903972 194.417603,6.55679952 193.572799,6.55679952 L191.575999,6.55679952 L191.575999,10.8191997 Z M211.6016,3.86879941 L211.6016,6.55679952 L204.7472,6.55679952 L204.7472,9.57119965 L210.8144,9.57119965 L210.8144,12.2591998 L204.7472,12.2591998 L204.7472,15.3119999 L211.8704,15.3119999 L211.8704,18 L201.9632,18 L201.9632,3.86879941 L211.6016,3.86879941 Z M222.296,7.28639955 C221.067194,6.60799613 219.998405,6.26879951 219.0896,6.26879951 C218.475197,6.26879951 217.998402,6.3903983 217.6592,6.63359953 C217.319998,6.87680075 217.1504,7.24159712 217.1504,7.72799957 C217.1504,8.17600183 217.396798,8.56959791 217.8896,8.90879962 C218.382403,9.24800133 219.038396,9.57119811 219.8576,9.87839966 C220.523204,10.1216009 221.092798,10.3999981 221.5664,10.7135997 C222.040003,11.0272013 222.433599,11.459197 222.7472,12.0095998 C223.060802,12.5600025 223.2176,13.2575956 223.2176,14.1023998 C223.2176,14.8320035 223.028802,15.5071968 222.6512,16.1279999 C222.273598,16.7488031 221.720004,17.2415981 220.9904,17.6064 C220.260797,17.9712018 219.390405,18.1536 218.3792,18.1536 C217.534396,18.1536 216.696004,18.0288012 215.864,17.7792 C215.031996,17.5295987 214.257604,17.1488025 213.5408,16.6367999 L214.7696,14.4671999 C215.256002,14.8256017 215.812797,15.1199987 216.44,15.3503999 C217.067203,15.5808011 217.630398,15.6959999 218.1296,15.6959999 C218.718403,15.6959999 219.230398,15.5712011 219.6656,15.3215999 C220.100802,15.0719986 220.3184,14.6656027 220.3184,14.1023998 C220.3184,13.3727962 219.633607,12.7392025 218.264,12.2015998 C217.457596,11.8815981 216.785603,11.5744012 216.248,11.2799997 C215.710397,10.9855982 215.246402,10.5632024 214.856,10.0127997 C214.465598,9.46239689 214.2704,8.77120378 214.2704,7.93919958 C214.2704,6.72319345 214.670396,5.7440032 215.4704,5.00159946 C216.270404,4.25919572 217.335993,3.85599973 218.6672,3.79199941 C219.716805,3.79199941 220.593597,3.91039823 221.2976,4.14719942 C222.001604,4.38400062 222.686397,4.71999727 223.352,5.15519946 L222.296,7.28639955 Z" id="path-2"></path>
    </defs>
    <g id="Search---DONE" stroke="none" stroke-width="1" fill="none" fill-rule="evenodd">
        <g id="logo" fill-rule="nonzero">
            <g id="BRILLIANCEVENTURES" transform="translate(40.000000, 0.000000)">
                <g id="BRILLIANCE">
                    <use fill="#000000" xlink:href="#path-1"></use>
                    <use fill="#FFFFFF" xlink:href="#path-1"></use>
                </g>
                <g id="VENTURES">
                    <use fill="#000000" xlink:href="#path-2"></use>
                    <use fill="#FFFFFF" xlink:href="#path-2"></use>
                </g>
            </g>
            <g id="5533">
                <polygon id="Path" fill="#966E32" points="12.010272 12 12.010272 12.0216648 24 24 0 24"></polygon>
                <polygon id="Path" fill="#F0CE87" points="24 0 12.014072 12 6 6 11.9923935 0"></polygon>
                <polygon id="Path" fill="#EABD5C" points="12 11.9851852 12 12.02849 0.0204894707 24 0 24 0 12.02849 6 6"></polygon>
                <polygon id="Path" fill="#A77B35" points="24 0 24 24 23.9783249 24 12 12.0165486"></polygon>
            </g>
        </g>
    </g>
</svg>