<svg width="67" height="82" viewBox="0 0 67 82" fill="none" xmlns="http://www.w3.org/2000/svg">
<path d="M62.5103 17.5267H49.4902V13.2841H66.7237V53.693H62.5103V17.5267ZM4.52423 41.8694H0.310825V82H23.0701V77.7574H4.52423V41.8694ZM9.49742 6.81595H8.53041V5.91179V0.938931V0.278202H9.56649H10.7407H11.3624H11.5696H11.6732C13.6418 0.312977 15.0232 1.70399 15.0232 3.54707C15.0232 5.39016 13.6418 6.78117 11.6387 6.81595H11.6041H11.3969H10.7753H9.49742ZM9.77371 5.66836H11.6387C12.9165 5.63359 13.7799 4.76421 13.7799 3.54707C13.7799 2.32994 12.951 1.42578 11.6732 1.39101H9.80825H9.70464V5.66836H9.77371ZM3.00464 6.81595H4.14433H6.80361V5.66836H4.14433V1.42578H6.80361V0.278202H4.14433H3.00464H0.310825V1.42578H2.9701V5.66836H0.310825V6.81595H3.00464ZM31.1861 3.54707C31.1861 5.49449 29.5974 7.09415 27.6289 7.09415C25.6603 7.09415 24.0716 5.49449 24.0716 3.54707C24.0371 1.59966 25.6258 0 27.5943 0C29.5629 0 31.1861 1.59966 31.1861 3.54707ZM27.5943 1.21713C26.3165 1.21713 25.2459 2.26039 25.2459 3.54707C25.2459 4.83376 26.282 5.87701 27.5943 5.87701C28.8722 5.87701 29.9428 4.83376 29.9428 3.54707C29.9428 2.26039 28.9067 1.21713 27.5943 1.21713ZM16.4392 0.278202V1.42578V5.66836V6.81595H21.3088H23.001V5.66836H17.6479V4.10348H21.8268V2.99067H17.6134V1.42578H22.9665V0.278202H21.2397H16.4392ZM46.2093 23.6819C46.2093 29.6285 41.4088 34.1493 35.5031 34.1493C29.5974 34.1493 24.866 29.6285 24.866 23.6819C24.866 17.7701 29.5974 13.2146 35.5031 13.2146C41.4088 13.2146 46.2093 17.7701 46.2093 23.6819ZM35.5376 17.0399C31.8077 17.0399 29.0794 19.8219 29.0794 23.6819C29.0794 27.6115 31.7732 30.324 35.5376 30.324C39.233 30.324 41.9959 27.6115 41.9959 23.6819C41.9959 19.8219 39.233 17.0399 35.5376 17.0399ZM10.6716 34.1841C14.5742 34.1841 17.8206 32.2714 19.5474 29.1764L16.4392 26.9856C15.0923 29.1416 13.2273 30.3936 10.7062 30.3936C6.97629 30.3936 4.2134 27.6811 4.2134 23.7863C4.2134 19.8219 6.97629 17.0399 10.7062 17.0399C13.2273 17.0399 15.1268 18.2918 16.4392 20.4478L19.5474 18.257C17.7861 15.162 14.5742 13.2146 10.7062 13.2146C4.73144 13.2146 0 17.7354 0 23.6819C0 29.6285 4.69691 34.1841 10.6716 34.1841ZM60.4381 82H53.5655H51.5624V61.9347H55.4995H58.6423C62.3376 61.9347 64.9624 64.2299 64.9624 67.5335C64.9624 69.0288 64.4098 70.246 63.4773 71.1501C65.6876 71.95 67 73.6887 67 76.123C67 79.5657 64.3062 82 60.4381 82ZM55.4995 70.0373H58.2969C59.9892 70.0373 60.8871 69.0984 60.8871 67.7422C60.8871 66.3512 59.9892 65.447 58.2969 65.447H55.4995V70.0373ZM62.9938 75.9491C62.9938 74.3842 61.9232 73.4105 60.1619 73.4105H55.4995V78.4529H60.1619C61.9232 78.4529 62.9938 77.514 62.9938 75.9491ZM31.8077 82H27.4907L36.2284 61.9347H37.5753L46.2784 82H41.9613L40.8562 79.4266H32.8438L31.8077 82ZM36.8845 69.4809L34.2943 76.123H39.4402L36.8845 69.4809Z" fill="white"/>
</svg>
