<svg width="440" height="41" viewBox="0 0 881 83" fill="none" xmlns="http://www.w3.org/2000/svg">
<path d="M4.8 79.6V13.96L35.04 80.56L35.64 82H38.76L39.36 80.56L69.48 13.96L69.6 79.6V82H74.4V79.6L74.28 2.8V0.399999H70.32L69.72 1.83999L37.2 73.72L4.56 1.83999L3.96 0.399999H1.78814e-07V2.8V79.6V82H4.8V79.6ZM143.398 80.56L174.838 8.8L206.278 80.56L206.878 82H212.158L210.598 78.64L176.998 1.83999L176.398 0.399999H173.278L172.678 1.83999L139.078 78.64L137.518 82H142.798L143.398 80.56ZM275.195 2.8V79.6V82H277.595H320.795H323.195V77.2H320.795H279.995V2.8V0.399999H275.195V2.8ZM431.819 40.12C437.739 36.6 441.259 31.72 442.379 25.48C442.619 24.28 442.739 23.12 442.739 22C442.739 15.44 439.939 10 434.339 5.68C429.779 2.16 424.579 0.399999 418.739 0.399999L390.059 0.519998H387.659V2.92L387.539 41.2V43.6V79.6V82H389.939H423.659C431.179 82 437.339 79.36 442.139 74.08C445.739 70 447.539 65.44 447.539 60.4C447.539 53.92 444.779 48.48 439.259 44.08C437.019 42.32 434.539 41 431.819 40.12ZM392.339 38.92V5.19999H418.739C425.139 5.19999 430.259 7.43999 434.099 11.92C436.659 14.96 437.939 18.32 437.939 22C437.939 27.52 435.459 31.96 430.499 35.32C426.979 37.64 423.059 38.8 418.739 38.8L392.339 38.92ZM392.459 43.6H418.739H423.659C429.899 43.6 434.939 45.84 438.779 50.32C441.419 53.36 442.739 56.72 442.739 60.4C442.739 65.84 440.259 70.24 435.299 73.6C431.779 76 427.899 77.2 423.659 77.2L392.459 77.32V43.6ZM569.497 0.399999H516.697H514.297V2.8V38.8V43.6V79.6V82H516.697H569.497H571.897V77.2H569.497H519.097V43.6H555.337H557.737V38.8H555.337H519.097V5.19999H569.497H571.897V0.399999H569.497ZM696.615 62.32C693.575 67.52 688.855 71.56 682.455 74.44C678.215 76.28 674.015 77.2 669.855 77.2C661.055 77.2 653.615 73.56 647.535 66.28C641.615 59.24 638.655 50.88 638.655 41.2C638.655 30.88 641.895 22.16 648.375 15.04C654.455 8.55999 661.615 5.27999 669.855 5.19999C677.375 5.19999 684.175 7.72 690.255 12.76C692.895 15.08 694.895 17.52 696.255 20.08L700.575 17.92C697.695 12.4 692.815 7.88 685.935 4.36C680.655 1.72 675.295 0.399999 669.855 0.399999C660.095 0.399999 651.735 4.24 644.775 11.92C637.495 19.92 633.855 29.68 633.855 41.2C633.855 52.8 637.495 62.56 644.775 70.48C651.815 78.08 660.175 81.92 669.855 82C678.495 82 686.415 79 693.615 73C696.655 70.36 699.015 67.6 700.695 64.72L696.615 62.32ZM729.813 79.72V79.84V82.24H734.613V79.84V79.72V77.32H729.813V79.72ZM763.681 27.76L785.401 80.56L786.001 82H789.121L789.841 80.56L811.321 27.76L812.641 24.4H807.481L806.761 25.84L787.561 73.24L768.001 25.84L767.401 24.4H762.241L763.681 27.76ZM876.777 68.08C872.297 74.08 866.417 77.12 859.137 77.2C852.417 77.2 846.937 74.32 842.697 68.56C839.497 64.08 837.897 58.96 837.897 53.2C837.897 45.52 840.497 39.28 845.697 34.48C849.617 30.96 854.097 29.2 859.137 29.2C867.137 29.28 872.977 32.08 876.657 37.6L880.737 34.96C875.857 28 868.657 24.48 859.137 24.4C851.377 24.4 844.937 27.56 839.817 33.88C835.337 39.4 833.097 45.84 833.097 53.2C833.097 62 836.097 69.28 842.097 75.04C846.977 79.68 852.657 82 859.137 82C868.337 81.92 875.497 78.16 880.617 70.72L876.777 68.08Z" fill="white"/>
</svg>
