<svg width="129" height="71" viewBox="0 0 129 71" xmlns="http://www.w3.org/2000/svg">
    <path fill="#FFFFFF" d="M103.866011,58.5635581 C106.191764,58.5635581 106.82606,60.9399483 106.82606,63.5803818 C106.82606,63.8344097 106.81096,64.4806723 106.792866,65.1522949 L106.792866,65.1522949 L106.78933,65.2825045 C106.774467,65.8255431 106.758165,66.3696811 106.746773,66.7224977 L106.746773,66.7224977 L106.732324,67.0641794 L106.723248,67.2693869 L106.723248,67.2693869 L106.717084,67.4057756 L106.710861,67.5415518 C106.664045,68.5569773 106.614628,69.5005117 106.614628,69.9174223 C106.614628,70.0758483 106.641057,70.1286569 106.852489,70.2078699 L106.852489,70.2078699 L107.539644,70.4719133 C107.671789,70.524722 107.698218,70.6567436 107.698218,70.762361 C107.698218,70.8151697 107.671789,70.8151697 107.618931,70.8151697 C107.351858,70.7929344 106.766174,70.7894236 106.130182,70.7888693 L106.130182,70.7888693 L105.7689,70.7887653 C105.108175,70.7887653 104.553165,70.8151697 104.262446,70.8151697 C104.209588,70.8151697 104.15673,70.762361 104.15673,70.6567436 C104.137509,70.4647121 104.118288,69.9235324 104.109233,69.3887007 L104.109233,69.3887007 L104.107657,69.288581 C104.105237,69.122128 104.103872,68.9584648 104.103872,68.8084402 C104.103872,68.6500142 104.130301,68.2539491 104.130301,68.1483318 L104.130301,68.1483318 L104.077443,68.1219275 C103.998156,68.2803535 103.918869,68.4915882 103.813153,68.6764185 C103.258144,69.8910179 102.385986,71 100.879533,71 C99.4259373,71 98.1309158,69.7325919 98.1309158,67.3033931 C98.1309158,65.0854289 99.2409342,62.5770171 101.593116,62.5770171 C102.465274,62.5770171 103.073141,62.8938691 103.443147,63.2635298 C103.548863,63.3691471 103.681008,63.5011688 103.786724,63.6331905 L103.786724,63.6331905 L103.89244,63.6067861 C103.89244,62.9730821 103.839582,62.5506127 103.786724,62.180952 C103.681008,61.07197 103.205286,59.8573705 102.121696,59.8573705 C101.249539,59.8573705 100.324524,60.4382659 99.3202213,61.5736523 C99.2937923,61.6000567 99.2673632,61.626461 99.2409342,61.626461 C99.1616472,61.626461 98.9237861,61.388822 99.0295022,61.2568003 C100.483098,59.2764752 102.121696,58.5635581 103.866011,58.5635581 Z M86.2907191,58.5635581 C87.0835894,58.5635581 87.6650277,58.6427711 87.9821758,58.7483885 C88.0614628,58.8011971 88.0878918,58.8276015 88.0878918,58.9332188 L88.0878918,58.9332188 L88.3257529,61.3624177 C88.3257529,61.4944393 88.0878918,61.6528653 87.9821758,61.6528653 C87.9557468,61.6528653 87.9293178,61.6528653 87.9028888,61.6000567 C87.5593116,60.9663526 87.2421635,60.3854573 86.8192993,59.7517532 C86.7400123,59.6197315 86.6607253,59.5141142 86.5021512,59.3820925 C86.3171481,59.2236665 86,59.1444535 85.6564229,59.1444535 C84.6785495,59.1444535 84.1235403,59.9629879 84.1235403,60.8343309 C84.1235403,61.943313 84.6521205,62.5506127 86.079287,63.4747645 C87.5857406,64.4517249 88.590043,65.5607069 88.590043,67.1185627 C88.590043,69.3629312 86.5285802,71 83.59496,71 C83.2249539,71 82.3527966,70.9471913 81.9035034,70.7887653 C81.8242163,70.762361 81.7449293,70.7095523 81.7185003,70.5511263 L81.7185003,70.5511263 L81.5070682,68.0955231 C81.5070682,67.9635015 81.7713583,67.8314798 81.8506454,67.8314798 C81.8770744,67.8314798 81.9035034,67.8314798 81.9299324,67.8842884 C82.2735095,68.4651838 82.6435157,69.1781009 83.0399508,69.7854006 C83.1720959,69.9966353 83.357099,70.1022526 83.515673,70.2078699 C83.7271051,70.3398916 84.0442532,70.445509 84.3085433,70.445509 C85.3128457,70.445509 86.3435771,69.8646136 86.3435771,68.6500142 C86.3435771,67.6202451 85.7621389,66.8809237 84.1235403,65.9039633 C82.3792256,64.8741942 81.6656423,63.8180208 81.6656423,62.4449954 L81.6656423,62.4449954 L81.6656423,62.4185911 C81.6656423,60.6230963 83.462815,58.5635581 86.2907191,58.5635581 Z M62.9539029,58.5635581 C65.861094,58.5635581 67.4468347,60.9399483 67.4468347,64.0292555 C67.4468347,67.4090104 65.9668101,71 61.8967425,71 L61.8967425,71 L61.8703135,71 C59.2538414,71 57.6681008,68.5708012 57.6681008,65.4550896 C57.6681008,61.8905044 59.3066994,58.5635581 62.9539029,58.5635581 Z M41.8371235,58.5635581 C44.1628765,58.5635581 44.7971727,60.9399483 44.7971727,63.5803818 C44.7971727,63.8344097 44.7820727,64.4806723 44.7639786,65.1522949 L44.7639786,65.1522949 L44.7604424,65.2825045 C44.7455796,65.8255431 44.7292775,66.3696811 44.7178857,66.7224977 L44.7178857,66.7224977 L44.7034369,67.0641794 L44.6943601,67.2693869 L44.6943601,67.2693869 L44.6881962,67.4057756 L44.681974,67.5415518 C44.6351578,68.5569773 44.5857406,69.5005117 44.5857406,69.9174223 C44.5857406,70.0758483 44.6121696,70.1286569 44.8236017,70.2078699 L44.8236017,70.2078699 L45.510756,70.4719133 C45.642901,70.524722 45.6693301,70.6567436 45.6693301,70.762361 C45.6693301,70.8151697 45.642901,70.8151697 45.590043,70.8151697 C45.3229709,70.7929344 44.7372865,70.7894236 44.1012948,70.7888693 L44.1012948,70.7888693 L43.7400123,70.7887653 C43.079287,70.7887653 42.5242778,70.8151697 42.2335587,70.8151697 C42.1807007,70.8151697 42.1278427,70.762361 42.1278427,70.6567436 C42.1086216,70.4647121 42.0894005,69.9235324 42.0803459,69.3887007 L42.0803459,69.3887007 L42.0787698,69.288581 C42.0763498,69.122128 42.0749846,68.9584648 42.0749846,68.8084402 C42.0749846,68.6500142 42.1014136,68.2539491 42.1014136,68.1483318 L42.1014136,68.1483318 L42.0485556,68.1219275 C41.9692686,68.2803535 41.8899816,68.4915882 41.7842655,68.6764185 C41.2292563,69.8910179 40.357099,71 38.8506454,71 C37.3970498,71 36.1020283,69.7325919 36.1020283,67.3033931 C36.1020283,65.0854289 37.2120467,62.5770171 39.5642286,62.5770171 C40.436386,62.5770171 41.0442532,62.8938691 41.4142594,63.2635298 C41.5199754,63.3691471 41.6521205,63.5011688 41.7578365,63.6331905 L41.7578365,63.6331905 L41.8635526,63.6067861 C41.8635526,62.9730821 41.8106945,62.5506127 41.7578365,62.180952 C41.6521205,61.07197 41.1763983,59.8573705 40.0928089,59.8573705 C39.2206515,59.8573705 38.2956361,60.4382659 37.2913337,61.5736523 C37.2649047,61.6000567 37.2384757,61.626461 37.2120467,61.626461 C37.1327597,61.626461 36.8948986,61.388822 37.0006146,61.2568003 C38.4542102,59.2764752 40.0928089,58.5635581 41.8371235,58.5635581 Z M23.0460971,58.5635581 C25.398279,58.5635581 26.6933006,61.2832046 26.6933006,63.6859991 L26.6933006,63.6859991 L26.6933006,63.7124035 C26.6933006,64.1876815 26.4818685,64.4781292 26.1647203,64.5573422 C25.7592753,64.7031662 24.4979726,64.7595072 23.2601924,64.7507698 L23.2601924,64.7507698 L23.1228028,64.7495324 C22.3910508,64.7415179 21.6789965,64.7109674 21.1696374,64.6629596 C21.1696374,64.9094 21.1730431,65.2034759 21.1810771,65.4987732 L21.1810771,65.4987732 L21.1848071,65.6252687 C21.2002193,66.1094172 21.2285944,66.5789664 21.2753534,66.828115 C21.5925015,68.6500142 22.3325138,69.9702309 23.7332514,69.9702309 C24.2354026,69.9702309 24.7111248,69.8646136 25.0282729,69.7589962 C25.4775661,69.6005702 25.9532883,69.3629312 26.4818685,69.0988879 C26.5347265,69.0724835 26.6140135,69.2837182 26.6140135,69.3893356 C26.6140135,69.4421442 26.5875845,69.4949529 26.5611555,69.5213572 C26.0061463,69.8910179 24.7111248,70.603935 23.8918254,70.841574 C23.5218193,70.9471913 23.0725261,71 22.2532268,71 C19.6896128,71 17.9981561,69.3101225 17.9981561,65.6135156 C17.9981561,62.4449954 19.6103258,58.5635581 23.0460971,58.5635581 Z M32.3755378,55.2102076 C32.4283958,55.2102076 32.4548248,55.2630162 32.4283958,55.4214422 C32.3491088,56.1607636 32.1905347,58.0090671 32.1641057,58.9860275 L32.1641057,58.9860275 L35.362016,59.0652405 C35.388445,59.0652405 35.414874,59.0916448 35.414874,59.1180492 C35.414874,59.2764752 35.309158,59.5141142 35.2562999,59.5141142 L35.2562999,59.5141142 L32.1641057,59.7781575 C32.0583897,61.5736523 32.0055317,63.5803818 32.0055317,65.798346 C32.0055317,69.6005702 32.956976,70.1550613 33.9084204,70.1550613 C34.1198525,70.1550613 34.3312846,70.1550613 34.5162876,70.1286569 C34.7277197,70.1022526 35.0712969,69.9966353 35.5470191,69.8118049 C35.6263061,69.7854006 35.6527351,69.9438266 35.6527351,70.0494439 C35.6527351,70.1814656 35.5998771,70.2342743 35.5470191,70.2606786 C35.2298709,70.4191046 34.4370006,70.8679783 33.6177013,70.9735957 C33.4948673,70.991127 33.3603823,70.9970183 33.0827394,70.999037 L32.5341119,71 C30.393362,71 28.9926245,70.0230396 28.9661955,66.2208153 C28.9661955,65.4646912 29.0182223,64.240763 29.0946859,62.9782448 L29.0946859,62.9782448 L29.1080282,62.7615152 L29.1218183,62.5445101 C29.1848354,61.5680878 29.2605185,60.5978921 29.3362016,59.8309662 L29.3362016,59.8309662 L27.6447449,59.8573705 C27.5918869,59.8573705 27.5390289,59.8309662 27.5390289,59.7253489 C27.5390289,59.6461359 27.5654579,59.4613055 27.6183159,59.3028795 C27.697603,59.1444535 27.803319,58.9596231 28.0411801,58.9596231 L28.0411801,58.9596231 L29.4419176,58.9860275 C29.4947757,58.5107495 29.6269207,57.533789 29.8119238,56.7152547 C29.8647818,56.424807 30.0497849,56.1079549 30.7633682,55.7911029 C30.9284146,55.7269781 31.1539033,55.6374277 31.3846506,55.5478125 L31.3846506,55.5478125 L31.4662194,55.5162221 C31.8742562,55.3586701 32.2784516,55.2102076 32.3755378,55.2102076 Z M125.722803,55.2102076 C125.775661,55.2102076 125.80209,55.2630162 125.775661,55.4214422 C125.696374,56.1607636 125.5378,58.0090671 125.511371,58.9860275 L125.511371,58.9860275 L128.709281,59.0652405 C128.73571,59.0652405 128.762139,59.0916448 128.762139,59.1180492 C128.762139,59.2764752 128.656423,59.5141142 128.603565,59.5141142 L128.603565,59.5141142 L125.511371,59.7781575 C125.405655,61.5736523 125.352797,63.5803818 125.352797,65.798346 C125.352797,69.6005702 126.304241,70.1550613 127.255685,70.1550613 C127.467117,70.1550613 127.678549,70.1550613 127.863553,70.1286569 C128.074985,70.1022526 128.418562,69.9966353 128.894284,69.8118049 C128.973571,69.7854006 129,69.9438266 129,70.0494439 C129,70.1814656 128.947142,70.2342743 128.894284,70.2606786 C128.577136,70.4191046 127.784266,70.8679783 126.964966,70.9735957 C126.842132,70.991127 126.707647,70.9970183 126.430004,70.999037 L125.881377,71 C123.740627,71 122.339889,70.0230396 122.31346,66.2208153 C122.31346,65.4646912 122.365487,64.240763 122.441951,62.9782448 L122.441951,62.9782448 L122.469083,62.5445101 C122.5321,61.5680878 122.607783,60.5978921 122.683467,59.8309662 L122.683467,59.8309662 L120.99201,59.8573705 C120.939152,59.8573705 120.886294,59.8309662 120.886294,59.7253489 C120.886294,59.6461359 120.912723,59.4613055 120.965581,59.3028795 C121.044868,59.1444535 121.150584,58.9596231 121.388445,58.9596231 L121.388445,58.9596231 L122.789183,58.9860275 C122.842041,58.5107495 122.974186,57.533789 123.159189,56.7152547 C123.212047,56.424807 123.39705,56.1079549 124.110633,55.7911029 C124.27568,55.7269781 124.501168,55.6374277 124.731916,55.5478125 L124.731916,55.5478125 L124.813484,55.5162221 C125.221521,55.3586701 125.625717,55.2102076 125.722803,55.2102076 Z M54.0473264,54.3124602 C54.6816226,54.3124602 55.3423479,54.3652688 55.8444991,54.6029078 C55.9502151,54.6293122 55.9766441,54.7085252 56.0030731,54.8405469 L56.0030731,54.8405469 L56.3730793,58.1938974 C56.3995083,58.2995148 56.1087892,58.4315364 56.0030731,58.4315364 C55.9766441,58.4315364 55.9502151,58.4051321 55.9237861,58.3787278 C55.4744929,57.4017674 55.0251998,56.3984026 54.5759066,55.4214422 C54.5230486,55.2630162 54.4173325,55.1045902 54.3116165,54.9989729 C54.2059004,54.8933555 54.0208974,54.8141425 53.8094653,54.8141425 C53.095882,54.8141425 52.5408728,55.3686336 52.0651506,56.0815506 C51.0079902,57.6922151 50.4529809,59.9893922 50.4529809,63.4219558 C50.4529809,68.4387795 52.4351567,69.9174223 53.7037492,69.9174223 C54.2851875,69.9174223 54.8137677,69.8382093 55.1044868,69.7589962 C55.3952059,69.6797832 56.1352182,69.3893356 56.4523663,69.2045052 C56.5052243,69.1781009 56.5845114,69.3365269 56.5845114,69.5213572 C56.5845114,69.5741659 56.5580824,69.6269746 56.5052243,69.6797832 C56.1352182,69.9438266 55.3952059,70.366296 54.6023356,70.7095523 C54.2851875,70.841574 53.5980332,71 52.6730178,71 C49.7393977,71 47.1229256,68.9404619 47.1229256,63.8444252 L47.1229256,63.8444252 L47.1229256,63.8180208 C47.1229256,59.8573705 48.4179471,57.2433414 50.1886908,55.7646986 C51.2458513,54.8405469 52.5937308,54.3124602 54.0473264,54.3124602 Z M94.4044253,55.2102076 C94.4572833,55.2102076 94.4837124,55.2630162 94.4572833,55.4214422 C94.3779963,56.1607636 94.2194222,58.0090671 94.1929932,58.9860275 L94.1929932,58.9860275 L97.3909035,59.0652405 C97.4173325,59.0652405 97.4437615,59.0916448 97.4437615,59.1180492 C97.4437615,59.2764752 97.3380455,59.5141142 97.2851875,59.5141142 L97.2851875,59.5141142 L94.1929932,59.7781575 C94.0872772,61.5736523 94.0344192,63.5803818 94.0344192,65.798346 C94.0344192,69.6005702 94.9858636,70.1550613 95.9373079,70.1550613 C96.14874,70.1550613 96.3601721,70.1550613 96.5451752,70.1286569 C96.7566073,70.1022526 97.1001844,69.9966353 97.5759066,69.8118049 C97.6551936,69.7854006 97.6816226,69.9438266 97.6816226,70.0494439 C97.6816226,70.1814656 97.6287646,70.2342743 97.5759066,70.2606786 C97.2587585,70.4191046 96.4658881,70.8679783 95.6465888,70.9735957 C95.5237548,70.991127 95.3892699,70.9970183 95.111627,70.999037 L94.5629994,71 C92.4222495,71 91.021512,70.0230396 90.995083,66.2208153 C90.995083,65.4646912 91.0471098,64.240763 91.1235734,62.9782448 L91.1235734,62.9782448 L91.1369157,62.7615152 L91.1507059,62.5445101 C91.213723,61.5680878 91.289406,60.5978921 91.3650891,59.8309662 L91.3650891,59.8309662 L89.6736325,59.8573705 C89.6207744,59.8573705 89.5679164,59.8309662 89.5679164,59.7253489 C89.5679164,59.6461359 89.5943454,59.4613055 89.6472034,59.3028795 C89.7264905,59.1444535 89.8322065,58.9596231 90.0700676,58.9596231 L90.0700676,58.9596231 L91.4708052,58.9860275 C91.5236632,58.5107495 91.6558082,57.533789 91.8408113,56.7152547 C91.8936693,56.424807 92.0786724,56.1079549 92.7922557,55.7911029 C92.9573022,55.7269781 93.1827908,55.6374277 93.4135381,55.5478125 L93.4135381,55.5478125 L93.4951069,55.5162221 C93.9031437,55.3586701 94.3073392,55.2102076 94.4044253,55.2102076 Z M4.57221881,54.5236948 C4.67793485,54.5236948 4.73079287,54.6029078 4.75722188,54.6821208 C5.20651506,56.266381 7.42655194,64.1876815 7.98156116,66.2472197 C8.06084819,66.4848587 8.14013522,66.7753064 8.29870928,67.2505844 L8.29870928,67.2505844 L8.45728334,67.2505844 C8.61585741,66.8017107 8.69514444,66.4056457 8.77443147,66.1680067 C9.48801475,63.8972338 11.1001844,57.6394064 11.9459127,54.6557165 C11.9723417,54.5765035 11.9987707,54.5236948 12.0780578,54.5236948 L12.0780578,54.5236948 L16.1745544,54.5236948 C16.2274124,54.5236948 16.2538414,54.5500992 16.2538414,54.6029078 C16.2538414,54.7085252 16.2009834,54.8933555 16.1216964,54.9197599 L16.1216964,54.9197599 L15.5138291,55.0781859 C15.22311,55.1573989 15.170252,55.4214422 15.143823,55.7118899 C15.1390658,55.8592261 15.1368774,56.1451534 15.1364874,56.5208569 L15.136916,57.0495302 C15.1381661,57.5988588 15.1416664,58.2537348 15.1459542,58.9215147 L15.1459542,58.9215147 L15.1471266,59.1015465 C15.147523,59.1616163 15.1479248,59.2217231 15.1483307,59.2818 L15.1483307,59.2818 L15.1495602,59.4618735 C15.1590672,60.8407208 15.170252,62.168278 15.170252,62.6298257 L15.1708638,64.2312002 C15.1713468,64.8103002 15.1722111,65.479221 15.1737578,66.1558548 L15.1737578,66.1558548 L15.1744136,66.426725 L15.1744136,66.426725 L15.1746491,66.5169961 L15.1751465,66.6972502 C15.1788388,67.9870752 15.1853165,69.2251006 15.196681,69.8382093 C15.196681,70.1286569 15.249539,70.2342743 15.4345421,70.2870829 L15.4345421,70.2870829 L16.0952674,70.524722 C16.1481254,70.5511263 16.1745544,70.762361 16.1745544,70.8151697 C16.1745544,70.841574 16.1481254,70.841574 16.1216964,70.841574 C15.7781192,70.8151697 14.9588199,70.7887653 13.9545175,70.7887653 C12.8709281,70.7887653 11.8666257,70.8151697 11.4701905,70.841574 C11.3909035,70.841574 11.3909035,70.8151697 11.3909035,70.762361 C11.3909035,70.6567436 11.4437615,70.524722 11.5230486,70.4983176 L11.5230486,70.4983176 L12.3952059,70.2870829 C12.580209,70.2342743 12.633067,70.0494439 12.633067,69.8646136 C12.55378,67.2769887 12.1573448,61.4416307 12.0780578,59.1972622 C12.0780578,58.9068145 12.0516288,58.5899625 12.0780578,58.3259191 L12.0780578,58.3259191 L11.8666257,58.3259191 C11.7609096,58.6691755 11.6816226,58.9596231 11.6023356,59.1708578 C11.2133006,60.4461872 10.6285323,62.3640397 10.0229603,64.2973127 L10.0229603,64.2973127 L9.94386909,64.5495147 C9.35001557,66.4409122 8.74353162,68.3209742 8.28818461,69.6026137 L8.28818461,69.6026137 L8.22838168,69.7699012 C8.17931623,69.9062664 8.13220652,70.0349215 8.0872772,70.1550613 C7.95513215,70.4983176 7.87584511,70.5511263 7.37369392,70.5775306 C7.16226183,70.603935 6.97725876,70.603935 6.79225569,70.603935 C6.71296865,70.603935 6.66011063,70.5511263 6.63368162,70.4719133 C6.19219702,69.2369105 5.5339836,67.3763869 4.88315867,65.4816892 L4.88315867,65.4816892 L4.79025814,65.2108495 C4.10971112,63.2239233 3.44898586,61.230396 3.06576521,59.9101792 C3.01290719,59.6989445 2.88076214,59.4084968 2.82790412,59.1444535 L2.82790412,59.1444535 L2.69575907,59.1444535 C2.69575907,59.3820925 2.64290104,59.7517532 2.61647203,59.9101792 C2.53507068,60.8279939 2.37691948,62.6148281 2.21631229,64.4429662 L2.21631229,64.4429662 L2.16157371,65.0665807 C1.97588039,67.1840508 1.79822987,69.2306455 1.74431469,69.9174223 C1.74431469,70.1814656 1.79717271,70.3134873 1.98217578,70.3398916 L1.98217578,70.3398916 L2.82790412,70.4983176 C2.88076214,70.4983176 2.93362016,70.683148 2.93362016,70.762361 C2.93362016,70.8151697 2.93362016,70.841574 2.85433313,70.841574 C2.40503995,70.8151697 1.95574677,70.7887653 1.37430854,70.7887653 C0.925015366,70.7887653 0.396435157,70.8151697 0.0528580209,70.841574 C0,70.841574 0,70.8151697 0,70.7887653 C0,70.683148 0.0528580209,70.4983176 0.132145052,70.4983176 L0.132145052,70.4983176 L0.740012293,70.366296 C0.925015366,70.3398916 0.977873387,70.2606786 0.977873387,69.9702309 C0.989502151,69.3777176 1.02159754,68.0848769 1.05840026,66.7372368 L1.05840026,66.7372368 L1.06344651,66.5531887 C1.10909871,64.8947896 1.16076214,63.198047 1.18930547,62.6562301 C1.21397255,62.2003152 1.26166223,60.784104 1.30551481,59.3226573 L1.32399554,58.6962213 C1.36620365,57.2405249 1.40073755,55.8703159 1.40073755,55.5006552 C1.40073755,55.3158249 1.32145052,55.2102076 1.03073141,55.1309945 L1.03073141,55.1309945 L0.396435157,54.9197599 C0.290719115,54.8933555 0.264290104,54.7085252 0.264290104,54.6029078 C0.264290104,54.5500992 0.290719115,54.5236948 0.343577136,54.5236948 L0.343577136,54.5236948 Z M112.693301,58.5635581 C112.825446,58.5371538 112.878304,58.6427711 112.878304,58.7747928 C112.878304,58.8339385 112.853439,59.737685 112.822276,60.7394714 L112.822276,60.7394714 L112.818914,60.8471468 C112.817785,60.8831409 112.81665,60.9192262 112.815508,60.9553684 L112.815508,60.9553684 L112.810331,61.1182788 L112.810331,61.1182788 L112.808589,61.1726343 L112.805084,61.2812704 L112.801557,61.3896365 C112.782694,61.9665066 112.763073,62.5231522 112.746159,62.9202734 C112.746159,63.1843168 112.71973,63.4483601 112.693301,63.7388078 L112.693301,63.7388078 L112.799017,63.7388078 C112.878304,63.4219558 112.957591,63.1315081 113.010449,62.9994864 C113.618316,60.992757 114.966195,58.5635581 116.604794,58.5635581 C118.428396,58.5635581 119.300553,60.3590529 119.300553,63.6595948 C119.300553,65.4022809 119.141979,68.5708012 119.036263,69.6797832 C119.009834,70.0230396 119.062692,70.1286569 119.274124,70.2078699 L119.274124,70.2078699 L120.146281,70.524722 C120.19914,70.5511263 120.251998,70.7095523 120.251998,70.7887653 C120.251998,70.8151697 120.251998,70.841574 120.19914,70.841574 C119.92604,70.8327725 119.679369,70.8239711 119.434656,70.8161476 L119.434656,70.8161476 L119.287867,70.8115787 C118.847031,70.7982709 118.396681,70.7887653 117.7941,70.7887653 C116.907116,70.7887653 116.342123,70.8048498 115.810115,70.8244651 L115.810115,70.8244651 L115.710679,70.8281812 C115.677616,70.8294317 115.644611,70.8306929 115.611593,70.8319618 L115.611593,70.8319618 L115.512434,70.8357883 L115.512434,70.8357883 L115.362631,70.841574 C115.309773,70.841574 115.309773,70.8151697 115.309773,70.7887653 C115.309773,70.6567436 115.336202,70.5511263 115.415489,70.524722 L115.415489,70.524722 L116.234788,70.2606786 C116.44622,70.1814656 116.499078,70.0758483 116.525507,69.8646136 C116.539864,69.6638102 116.577616,68.8474933 116.60911,67.978561 L116.60911,67.978561 L116.613363,67.859797 C116.637914,67.1657211 116.657652,66.4545426 116.657652,66.0095806 C116.657652,65.6029539 116.655538,65.1540802 116.641583,64.6961234 L116.641583,64.6961234 L116.637032,64.558497 C116.572995,62.7666741 116.314075,60.8871396 115.283344,60.8871396 C114.252612,60.8871396 113.301168,62.9994864 112.825446,65.6927286 C112.818838,65.7389362 112.811818,65.7912292 112.804469,65.8489564 L112.804469,65.8489564 L112.793209,65.9395416 C112.682177,66.8530238 112.510775,68.8406205 112.534726,69.9174223 C112.534726,70.1286569 112.640443,70.2078699 112.772588,70.2606786 L112.772588,70.2606786 L113.591887,70.524722 C113.671174,70.5511263 113.697603,70.7095523 113.697603,70.7887653 C113.697603,70.8151697 113.697603,70.841574 113.644745,70.841574 C112.825446,70.8151697 112.16472,70.7887653 111.186847,70.7887653 C110.103258,70.7887653 109.49539,70.8151697 108.70252,70.841574 C108.649662,70.841574 108.649662,70.8151697 108.649662,70.7887653 C108.649662,70.6567436 108.70252,70.524722 108.781807,70.4983176 L108.781807,70.4983176 L109.733251,70.2606786 C109.891825,70.2078699 109.997541,70.1286569 109.997541,69.9702309 C109.997541,69.595891 109.98399,68.5987793 109.970611,67.5752762 L109.970611,67.5752762 L109.966616,67.2680299 C109.955719,66.4242053 109.945873,65.6030091 109.944783,65.139318 L109.944783,65.139318 L109.944237,64.9587182 C109.940704,64.5180126 109.916705,63.6158064 109.889709,62.69345 L109.889709,62.69345 L109.882538,62.4502293 C109.854472,61.5048837 109.824872,60.579089 109.812538,60.1478182 C109.812538,59.9629879 109.75968,59.8309662 109.574677,59.8045619 L109.574677,59.8045619 L108.676091,59.7253489 C108.596804,59.7253489 108.517517,59.5141142 108.517517,59.3820925 C108.517517,59.3556882 108.517517,59.3292838 108.596804,59.3028795 L108.596804,59.3028795 Z M72.7326368,58.5635581 C72.8647818,58.5371538 72.9176398,58.6427711 72.9176398,58.7747928 C72.9176398,58.8339385 72.8927754,59.737685 72.861612,60.7394714 L72.861612,60.7394714 L72.8582498,60.8471468 L72.8582498,60.8471468 L72.8548445,60.9553684 L72.8496667,61.1182788 L72.8496667,61.1182788 L72.8479247,61.1726343 L72.8444205,61.2812704 L72.8408934,61.3896365 C72.8220302,61.9665066 72.8024093,62.5231522 72.7854948,62.9202734 C72.7854948,63.1843168 72.7590658,63.4483601 72.7326368,63.7388078 L72.7326368,63.7388078 L72.8383528,63.7388078 C72.9176398,63.4219558 72.9969269,63.1315081 73.0497849,62.9994864 C73.6576521,60.992757 75.0055317,58.5635581 76.6441303,58.5635581 C78.467732,58.5635581 79.3398894,60.3590529 79.3398894,63.6595948 C79.3398894,65.4022809 79.1813153,68.5708012 79.0755993,69.6797832 C79.0491703,70.0230396 79.1020283,70.1286569 79.3134604,70.2078699 L79.3134604,70.2078699 L80.1856177,70.524722 C80.2384757,70.5511263 80.2913337,70.7095523 80.2913337,70.7887653 C80.2913337,70.8151697 80.2913337,70.841574 80.2384757,70.841574 C79.9653759,70.8327725 79.7187052,70.8239711 79.4739921,70.8161476 L79.4739921,70.8161476 L79.3272034,70.8115787 C78.8863675,70.7982709 78.4360172,70.7887653 77.8334358,70.7887653 C76.9464524,70.7887653 76.3814596,70.8048498 75.8494512,70.8244651 L75.8494512,70.8244651 L75.7500156,70.8281812 C75.7169522,70.8294317 75.6839471,70.8306929 75.6509297,70.8319618 L75.6509297,70.8319618 L75.5517702,70.8357883 C75.5021015,70.8377099 75.4522464,70.839642 75.4019668,70.841574 C75.3491088,70.841574 75.3491088,70.8151697 75.3491088,70.7887653 C75.3491088,70.6567436 75.3755378,70.5511263 75.4548248,70.524722 L75.4548248,70.524722 L76.2741242,70.2606786 C76.4855562,70.1814656 76.5384143,70.0758483 76.5648433,69.8646136 C76.5791998,69.6638102 76.616952,68.8474933 76.6484462,67.978561 L76.6484462,67.978561 L76.6526993,67.859797 C76.6772501,67.1657211 76.6969883,66.4545426 76.6969883,66.0095806 L76.6964399,65.6972075 C76.6951911,65.3779493 76.6913854,65.039591 76.6809195,64.6961234 L76.6809195,64.6961234 L76.6763682,64.558497 C76.6123309,62.7666741 76.3534112,60.8871396 75.3226798,60.8871396 C74.2919484,60.8871396 73.340504,62.9994864 72.8647818,65.6927286 C72.8581746,65.7389362 72.8511543,65.7912292 72.8438051,65.8489564 L72.8438051,65.8489564 L72.8325448,65.9395416 C72.7215128,66.8530238 72.5501114,68.8406205 72.5740627,69.9174223 C72.5740627,70.1286569 72.6797787,70.2078699 72.8119238,70.2606786 L72.8119238,70.2606786 L73.6312231,70.524722 C73.7105101,70.5511263 73.7369392,70.7095523 73.7369392,70.7887653 C73.7369392,70.8151697 73.7369392,70.841574 73.6840811,70.841574 C72.8647818,70.8151697 72.2040565,70.7887653 71.2261832,70.7887653 C70.5760295,70.7887653 70.0971358,70.7982709 69.6467855,70.8115787 L69.2006638,70.8259426 C69.0516042,70.8310123 68.9004302,70.8362931 68.7418562,70.841574 C68.6889982,70.841574 68.6889982,70.8151697 68.6889982,70.7887653 C68.6889982,70.6567436 68.7418562,70.524722 68.8211432,70.4983176 L68.8211432,70.4983176 L69.7725876,70.2606786 C69.9311616,70.2078699 70.0368777,70.1286569 70.0368777,69.9702309 C70.0368777,69.595891 70.0233265,68.5987793 70.0099469,67.5752762 L70.0099469,67.5752762 L70.0059519,67.2680299 C69.9950552,66.4242053 69.9852093,65.6030091 69.9841196,65.139318 L69.9840197,65.0590246 C69.9840197,64.6682404 69.9582907,63.6926695 69.9290455,62.69345 L69.9290455,62.69345 L69.9218743,62.4502293 C69.8938086,61.5048837 69.8642082,60.579089 69.8518746,60.1478182 C69.8518746,59.9629879 69.7990166,59.8309662 69.6140135,59.8045619 L69.6140135,59.8045619 L68.7154272,59.7253489 C68.6361401,59.7253489 68.5568531,59.5141142 68.5568531,59.3820925 C68.5568531,59.3556882 68.5568531,59.3292838 68.6361401,59.3028795 L68.6361401,59.3028795 Z M62.6103258,59.0652405 C61.0774431,59.0652405 60.8395821,61.943313 60.8395821,65.0590246 C60.8395821,67.7786711 61.4474493,70.4983176 62.6367548,70.4983176 L62.6367548,70.4983176 L62.6631838,70.4983176 C64.1220652,70.4983176 64.2611452,67.9282253 64.2740611,65.2347685 L64.2740611,65.2347685 L64.2747369,65.0589585 C64.2749976,64.9709912 64.2751517,64.8829492 64.2752407,64.7949175 L64.2753534,64.5309379 C64.2753534,61.5208437 63.7732022,59.0652405 62.6103258,59.0652405 Z M102.385986,63.3163385 C101.437449,63.3163385 101.110589,64.9560318 101.091831,66.7413101 L101.091831,66.7413101 L101.09106,66.8519123 L101.090965,66.907328 C101.090965,68.5708012 101.513829,69.5741659 102.200983,69.5741659 L102.200983,69.5741659 L102.227412,69.5741659 C102.888138,69.5741659 103.654579,68.5179925 103.971727,66.9601367 C104.024585,66.6960934 104.077443,66.43205 104.077443,66.194411 C104.077443,66.0095806 104.024585,65.6663243 103.998156,65.4550896 C103.866011,64.7157682 103.390289,63.3163385 102.385986,63.3163385 Z M40.357099,63.3163385 C39.4085618,63.3163385 39.081701,64.9560318 39.062943,66.7413101 L39.062943,66.7413101 L39.0620774,66.907328 C39.0620774,68.5708012 39.4849416,69.5741659 40.1720959,69.5741659 L40.1720959,69.5741659 L40.1985249,69.5741659 C40.8592502,69.5741659 41.6256915,68.5179925 41.9428396,66.9601367 C41.9956976,66.6960934 42.0485556,66.43205 42.0485556,66.194411 C42.0485556,66.0095806 41.9956976,65.6663243 41.9692686,65.4550896 C41.8371235,64.7157682 41.3614014,63.3163385 40.357099,63.3163385 Z M22.70252,59.0652405 L22.676091,59.0652405 C21.8567916,59.0652405 21.1960664,60.8607353 21.1696374,64.2140859 C22.3325138,64.3197032 23.0725261,64.1348728 23.3103872,64.0556598 C23.5746773,63.9500425 23.7861094,63.6859991 23.7861094,62.9730821 L23.7861094,62.9730821 L23.7860109,62.8934276 C23.783596,61.9719697 23.7279656,59.0652405 22.70252,59.0652405 L22.70252,59.0652405 Z M79.5490927,0 C84.8315774,0 89.1138774,4.27830185 89.1138774,9.55585464 C89.1138774,11.2476384 88.6643184,12.9090956 87.8111373,14.3704555 L72.4578884,40.6680608 C69.7963729,45.2268018 63.9397449,46.7668214 59.3767437,44.1077907 C57.9474803,43.2749058 56.7589272,42.0858378 55.9272186,40.6567715 L40.6221605,14.3591662 C37.9668856,9.79679422 39.5163497,3.94774511 44.0829853,1.29494937 C45.5430415,0.446790862 47.2018564,0 48.8907857,0 L79.5490927,0 Z M53.3216176,13.8112394 L53.0149132,13.817575 L52.6907615,13.8247923 L52.3761327,13.8324213 L51.9220657,13.8446351 L51.6312857,13.8532901 L51.2130366,13.8670393 L50.9461649,13.8767154 L50.5638227,13.8919929 L50.3209187,13.9026855 L50.0876184,13.9137834 C50.0495359,13.9156667 50.0118539,13.9175669 49.9745726,13.919484 L49.649867,13.9371918 L49.4454348,13.9495008 L49.2506445,13.962212 L49.0655053,13.9753247 L48.8900269,13.988838 L48.7242188,14.0027513 C48.6973905,14.0051034 48.6709655,14.0074722 48.644944,14.0098576 L48.4936591,14.0243693 L48.3520682,14.039279 L48.2201808,14.0545859 C48.1778367,14.0597544 48.1371114,14.0649889 48.0980065,14.0702893 C47.1078561,14.2044992 46.2436894,14.5732998 45.4776193,15.1985795 L59.1911496,38.7607275 C59.6945522,39.6256886 60.4139396,40.3453877 61.2790201,40.8495023 C64.0132184,42.4428214 67.51482,41.5451866 69.1476501,38.8497888 L69.196555,38.7675605 L70.3030532,36.8751593 C69.9661108,36.8959184 69.6096013,36.9013574 69.225632,36.8940293 L69.0227491,36.889365 L68.9149187,36.874249 C67.5382178,36.6812591 66.7152038,36.3160602 65.7638341,35.5534577 L65.6534522,35.4636886 L65.5977613,35.4174574 L65.485234,35.3222533 C65.4663425,35.3060781 65.4473792,35.289748 65.4283394,35.2732613 L65.3131428,35.1724492 C65.2550463,35.1210909 65.1961732,35.0682946 65.1363928,35.014017 C64.7909357,34.7003595 64.346785,34.1575849 63.7975525,33.3771471 L63.6580515,33.1770813 C63.445505,32.8695409 63.2181066,32.528479 62.9755193,32.1534449 L62.8115406,31.8983842 C62.7838345,31.8550336 62.75594,31.8112624 62.7278566,31.7670699 L62.5570857,31.4968549 C62.4994039,31.4050949 62.4409629,31.3116448 62.3817588,31.2164998 L62.201854,30.9259751 L62.0173489,30.6252509 L61.9233644,30.4710548 L61.9233644,30.4710548 L61.7319174,30.154976 L61.5358148,29.8286236 L61.3350343,29.491968 C61.3011798,29.4349985 61.2671295,29.3775984 61.2328829,29.3197672 L61.025044,28.9676011 L60.8124718,28.6050575 L60.5951442,28.2321069 L60.3730389,27.8487195 L60.1461337,27.4548657 L59.9144065,27.0505157 L59.6778351,26.63564 L59.4363973,26.2102088 L59.1900709,25.7741925 L58.9388338,25.3275613 L58.6826637,24.8702857 L58.2891109,24.1643489 L58.0205114,23.6803323 L57.7469015,23.1855673 L57.3270431,22.4232017 L56.8957863,21.6364855 L56.453056,20.8253184 L56.1514914,20.2709071 L55.6894724,19.4187661 L55.5714313,19.2 L53.8733,16.2879831 C53.4190889,15.509261 53.2455025,14.644855 53.3216176,13.8112394 Z M79.6448279,3.77282275 L76.5105659,3.77206608 C77.6695868,5.33816459 78.1304079,7.23046713 77.8244759,9.40863088 L77.815768,9.46733725 L77.8150849,9.47654656 C77.7770354,9.89529684 77.6723739,10.3587841 77.5009261,10.8730644 L77.4601756,10.9926489 C77.4531862,11.0127308 77.446098,11.0328886 77.438911,11.0531225 L77.394603,11.1754429 C77.3870206,11.1959829 77.3793394,11.2165998 77.3715593,11.2372938 L77.3236927,11.3623874 L77.2734529,11.4893505 L77.2474431,11.5535382 L77.1936429,11.6833365 L77.1374686,11.8150455 C77.1183481,11.8592689 77.0988318,11.9038134 77.0789196,11.9486819 L77.0179955,12.0842622 L76.9546957,12.2218029 L76.8890198,12.3613206 L76.8209673,12.5028317 L76.7860497,12.57434 L76.7860497,12.57434 L76.7144314,12.7188724 C76.6901624,12.7673881 76.6654971,12.8162429 76.6404354,12.8654397 L76.5640611,13.0140583 L76.4853081,13.1647448 L76.4041759,13.3175159 L76.320664,13.4723879 L76.2347719,13.6293774 L76.1464993,13.788501 L76.0558455,13.9497753 L75.9628101,14.1132167 L75.9153992,14.1957552 L75.8187906,14.3624783 L75.6694098,14.6167092 L75.5668433,14.7889845 L75.4618929,14.9635098 L75.2999963,15.2295523 L75.1327331,15.50075 L75.018242,15.68444 L74.9113456,15.8542945 L72.5774313,19.684 L67.8313409,27.7974657 C67.346226,28.6265601 66.6190041,29.2274165 65.7910758,29.5629349 L65.7949334,29.5685922 L65.9430552,29.8048454 L66.0861617,30.0308084 L66.2242305,30.2464514 L66.3572396,30.4517447 C66.3789849,30.4850962 66.4005185,30.5180151 66.4218398,30.550501 L66.5472177,30.7402142 L66.6674803,30.9195036 L66.7826055,31.0883395 C67.1765274,31.6609367 67.4756419,32.0409054 67.6756695,32.2225203 L67.8096432,32.3431456 L67.89299,32.4168077 C67.906516,32.4286504 67.9198659,32.4402792 67.9330496,32.4516987 L68.010236,32.5177446 L68.0839051,32.579001 C68.1079277,32.5986472 68.1314428,32.6175335 68.1545288,32.6356983 L68.2225788,32.6880668 C68.534874,32.9227108 68.7785052,33.023473 69.1692218,33.0957053 L69.2552768,33.1107854 L69.334321,33.1232326 L69.4322515,33.1247652 L69.5683676,33.1255036 C70.5231211,33.1253103 71.040801,33.005362 71.6984845,32.6482965 L71.7426725,32.6240683 L71.7647518,32.6116411 L71.8110492,32.5843737 C71.819002,32.5795615 71.8270728,32.5746156 71.8352611,32.5695364 L71.8857958,32.5374617 L71.9391243,32.5021965 C71.9482438,32.4960537 71.9574787,32.4897784 71.9668284,32.4833709 L72.0243009,32.4433411 L72.0845048,32.400149 L72.1474155,32.3538062 L72.2130079,32.3043238 L72.3163703,32.2242388 L72.3885582,32.1669576 L72.4633408,32.1065768 L72.5406932,32.0431077 L72.6205904,31.9765616 L72.7451534,31.8709982 L72.831304,31.7968097 L72.9199123,31.719584 L73.0573787,31.5980757 L73.2002351,31.4697979 L73.3483976,31.3347889 L73.501782,31.1930871 L73.6603045,31.0447309 L73.7614313,30.948 L84.5498039,12.4699552 C85.066203,11.5854479 85.3383045,10.579829 85.3383045,9.55585464 C85.3383045,6.39348946 82.7979653,3.82389834 79.6448279,3.77282275 Z M70.0892481,3.77258773 L48.8907857,3.77204789 C47.868539,3.77204789 46.8645195,4.04247393 45.9808012,4.55583303 C43.4035093,6.0530029 42.4139971,9.23219407 43.5950005,11.8936464 C44.7751557,11.0577008 46.1131773,10.5327177 47.5904186,10.3324851 C47.6347198,10.3264803 47.6805565,10.3205552 47.7279302,10.3147097 L47.8746642,10.2974119 L48.0306301,10.280591 L48.112078,10.2723591 L48.112078,10.2723591 L48.2819095,10.2562519 L48.3702956,10.2483765 L48.5540142,10.2329814 L48.7470027,10.2180601 L48.9492707,10.2036118 L49.1608276,10.1896357 L49.3816829,10.1761312 C49.4192676,10.1739197 49.45724,10.1717278 49.4956005,10.1695555 L49.851327,10.1505334 L50.1001347,10.1384388 L50.3582789,10.1268125 L50.7630219,10.1102498 L51.1888254,10.0947368 L51.6357216,10.0802709 L51.9453863,10.0712075 L52.4275081,10.0584811 L52.7606864,10.050575 L53.4553184,10.0361466 L53.8167913,10.0296229 L54.1877147,10.0235585 L54.7618404,10.0153214 L55.3572833,10.0081135 L55.9740755,10.0019321 L56.6122491,9.99677468 L57.2718362,9.99263868 L58.184651,9.98870845 L59.1356673,9.98658341 L59.874045,9.98617061 L60.892097,9.98718998 L61.6808387,9.9891285 L62.7661592,9.99327361 L63.6054398,9.99754944 L64.7582618,10.0048016 L65.0224313,10.006 L70.940405,10.0062074 C71.8760337,10.0062074 72.7400974,10.3116544 73.4377257,10.8279752 L73.4587698,10.7845624 L73.5286079,10.6387754 L73.5941248,10.4982022 L73.6354014,10.4074092 L73.6747564,10.3189723 L73.7301849,10.1907684 L73.7647339,10.1082894 L73.7973597,10.0282208 L73.8280618,9.95057806 L73.8568399,9.87537666 L73.8836935,9.80263213 L73.9086221,9.73235997 L73.9316253,9.66457571 L73.9527026,9.59929485 L73.9718536,9.5365329 C73.9748849,9.52628334 73.9778359,9.51613939 73.9807066,9.50610136 L73.9969674,9.44714686 L74.0113007,9.39075005 C74.0135289,9.38156458 74.0156768,9.37248633 74.0177444,9.36351562 L74.0291857,9.31098442 C74.0361705,9.27682738 74.0418695,9.24440132 74.0462823,9.21372692 L74.0519367,9.16903164 L74.0540402,9.14767415 L74.0610793,9.04701409 L74.0732684,8.96779636 C74.4371663,6.60279512 73.2795573,4.97133614 70.0892481,3.77258773 Z"/>
</svg>