<svg width="171" height="16" viewBox="0 0 171 16" fill="none" xmlns="http://www.w3.org/2000/svg">
<g clip-path="url(#clip0)">
<path d="M9.28665 1.48158C9.41754 1.24598 9.60733 1.08891 9.85602 1.01038C10.1047 0.931845 10.4123 0.892578 10.7788 0.892578C11.1584 0.892578 11.4594 0.9253 11.6819 0.990745C11.9175 1.05619 12.0877 1.13472 12.1924 1.22635C12.3102 1.31797 12.3953 1.45541 12.4476 1.63865C12.5262 1.84808 12.5654 2.18185 12.5654 2.63996V13.5365C12.5654 13.8507 12.5524 14.0797 12.5262 14.2237C12.5131 14.3677 12.4542 14.5379 12.3495 14.7342C12.1662 15.0876 11.6558 15.2643 10.8181 15.2643C10.3076 15.2643 9.95419 15.225 9.75785 15.1465C9.56152 15.068 9.39791 14.9436 9.26702 14.7735C6.32199 10.8468 4.38482 8.28132 3.4555 7.07714V13.5365C3.4555 13.8507 3.44241 14.0797 3.41623 14.2237C3.40314 14.3677 3.34424 14.5379 3.23953 14.7342C3.05628 15.0876 2.54581 15.2643 1.70812 15.2643C0.896597 15.2643 0.399215 15.0876 0.215969 14.7342C0.111257 14.5379 0.0458115 14.3612 0.0196335 14.2041C0.00654449 14.047 0 13.818 0 13.5169V2.56143C0 2.06405 0.0589006 1.7041 0.176702 1.48158C0.307592 1.24598 0.497382 1.08891 0.746073 1.01038C0.994764 0.931845 1.31545 0.892578 1.70812 0.892578C2.10079 0.892578 2.40838 0.931845 2.63089 1.01038C2.86649 1.07583 3.03011 1.15436 3.12173 1.24598C3.17408 1.28525 3.32461 1.4554 3.5733 1.75645C6.33508 5.513 8.18063 7.99337 9.10995 9.19755V2.56143C9.10995 2.06405 9.16885 1.7041 9.28665 1.48158Z" fill="white"/>
<path d="M17.9986 11.7893H24.0457C24.3467 11.7893 24.5692 11.8024 24.7132 11.8285C24.8703 11.8416 25.047 11.9005 25.2433 12.0052C25.5967 12.1885 25.7734 12.699 25.7734 13.5366C25.7734 14.4529 25.5313 14.9895 25.047 15.1466C24.8245 15.2251 24.4842 15.2644 24.026 15.2644H16.2512C15.3349 15.2644 14.7983 15.0157 14.6412 14.5183C14.5627 14.3089 14.5234 13.9751 14.5234 13.517V2.6008C14.5234 1.93326 14.6478 1.48169 14.8965 1.24608C15.1452 0.997393 15.6164 0.873047 16.3101 0.873047H24.0457C24.3467 0.873047 24.5692 0.886137 24.7132 0.912315C24.8703 0.925404 25.047 0.984304 25.2433 1.08902C25.5967 1.27226 25.7734 1.78273 25.7734 2.62043C25.7734 3.53666 25.5313 4.07331 25.047 4.23038C24.8245 4.30891 24.4842 4.34818 24.026 4.34818H17.9986V6.33116H21.886C22.187 6.33116 22.4096 6.34425 22.5535 6.37043C22.7106 6.38352 22.8873 6.44242 23.0836 6.54713C23.437 6.73038 23.6137 7.24085 23.6137 8.07854C23.6137 8.99478 23.3651 9.53142 22.8677 9.68849C22.6452 9.76703 22.3048 9.80629 21.8467 9.80629H17.9986V11.7893Z" fill="white"/>
<path d="M36.2908 7.98037L40.2371 12.3194C40.6822 12.8168 40.9047 13.2356 40.9047 13.5759C40.9047 13.9162 40.6494 14.3154 40.139 14.7736C39.6416 15.2317 39.2162 15.4607 38.8628 15.4607C38.5225 15.4607 38.1233 15.199 37.6652 14.6754L33.9348 10.3953L30.2044 14.6754C29.7332 15.199 29.3275 15.4607 28.9871 15.4607C28.6599 15.4607 28.2345 15.2317 27.711 14.7736C27.2005 14.3024 26.9453 13.9031 26.9453 13.5759C26.9453 13.2487 27.1743 12.8298 27.6324 12.3194L31.5788 7.98037L27.6324 3.64136C27.1743 3.15707 26.9453 2.74477 26.9453 2.40445C26.9453 2.06414 27.2005 1.66492 27.711 1.20681C28.2214 0.735602 28.6468 0.5 28.9871 0.5C29.3405 0.5 29.7463 0.76178 30.2044 1.28534L33.9348 5.56545L37.6652 1.28534C38.1364 0.76178 38.5356 0.5 38.8628 0.5C39.2031 0.5 39.6285 0.729058 40.139 1.18717C40.6494 1.64529 40.9047 2.05105 40.9047 2.40445C40.9047 2.75785 40.6822 3.17016 40.2371 3.64136L36.2908 7.98037Z" fill="white"/>
<path d="M43.3238 0.853516H54.2401C54.6589 0.853516 54.9665 0.905872 55.1629 1.01058C55.3592 1.10221 55.4901 1.25273 55.5555 1.46215C55.621 1.67158 55.6537 1.94645 55.6537 2.28676C55.6537 2.62707 55.621 2.90194 55.5555 3.11137C55.4901 3.3077 55.3788 3.44514 55.2218 3.52367C54.9862 3.64147 54.6524 3.70037 54.2204 3.70037H50.4704V13.576C50.4704 13.8771 50.4574 14.0996 50.4312 14.2436C50.4181 14.3875 50.3592 14.5577 50.2545 14.754C50.1629 14.9373 49.9927 15.0682 49.744 15.1467C49.4953 15.2252 49.1681 15.2645 48.7623 15.2645C48.3566 15.2645 48.0293 15.2252 47.7807 15.1467C47.5451 15.0682 47.3749 14.9373 47.2702 14.754C47.1786 14.5577 47.1197 14.3875 47.0935 14.2436C47.0804 14.0865 47.0738 13.8574 47.0738 13.5564V3.70037H43.3042C42.8854 3.70037 42.5778 3.65456 42.3814 3.56294C42.1851 3.45823 42.0542 3.30116 41.9888 3.09173C41.9233 2.88231 41.8906 2.60744 41.8906 2.26713C41.8906 1.92681 41.9233 1.65849 41.9888 1.46215C42.0542 1.25273 42.1655 1.10875 42.3225 1.03022C42.5581 0.912417 42.8919 0.853516 43.3238 0.853516Z" fill="white"/>
<path d="M75.6285 1.0889C76.4008 1.46848 76.7869 1.88732 76.7869 2.34544C76.7869 2.55486 76.6887 2.869 76.4924 3.28785L71.0735 14.2826C70.9296 14.5706 70.7071 14.8062 70.406 14.9894C70.1181 15.1596 69.817 15.2447 69.5029 15.2447H69.3065C68.9793 15.2447 68.6652 15.1596 68.3641 14.9894C68.0762 14.8062 67.8602 14.5706 67.7162 14.2826L62.2974 3.28785C62.101 2.869 62.0029 2.55486 62.0029 2.34544C62.0029 1.88732 62.389 1.46848 63.1613 1.0889C63.5932 0.866383 63.9204 0.755127 64.1429 0.755127C64.3785 0.755127 64.5552 0.781305 64.673 0.833661C64.7908 0.886017 64.9021 0.97764 65.0068 1.10853C65.1246 1.2656 65.2293 1.4423 65.3209 1.63863C65.4257 1.82188 65.6809 2.36507 66.0866 3.26822C66.4924 4.15827 66.9243 5.10722 67.3825 6.11507C67.8537 7.12293 68.2921 8.07842 68.6979 8.98157C69.1167 9.87162 69.3523 10.369 69.4047 10.4737L73.3314 1.87424C73.4361 1.62554 73.5277 1.42921 73.6063 1.28523C73.8419 0.931828 74.1298 0.755127 74.4702 0.755127C74.8105 0.755127 75.1966 0.866383 75.6285 1.0889Z" fill="white"/>
<path d="M81.7388 11.7893H87.786C88.087 11.7893 88.3095 11.8024 88.4535 11.8285C88.6106 11.8416 88.7873 11.9005 88.9836 12.0052C89.337 12.1885 89.5137 12.699 89.5137 13.5366C89.5137 14.4529 89.2716 14.9895 88.7873 15.1466C88.5648 15.2251 88.2244 15.2644 87.7663 15.2644H79.9915C79.0752 15.2644 78.5386 15.0157 78.3815 14.5183C78.303 14.3089 78.2637 13.9751 78.2637 13.517V2.6008C78.2637 1.93326 78.3881 1.48169 78.6367 1.24608C78.8854 0.997393 79.3566 0.873047 80.0504 0.873047H87.786C88.087 0.873047 88.3095 0.886137 88.4535 0.912315C88.6106 0.925404 88.7873 0.984304 88.9836 1.08902C89.337 1.27226 89.5137 1.78273 89.5137 2.62043C89.5137 3.53666 89.2716 4.07331 88.7873 4.23038C88.5648 4.30891 88.2244 4.34818 87.7663 4.34818H81.7388V6.33116H85.6263C85.9273 6.33116 86.1498 6.34425 86.2938 6.37043C86.4509 6.38352 86.6276 6.44242 86.8239 6.54713C87.1773 6.73038 87.354 7.24085 87.354 8.07854C87.354 8.99478 87.1053 9.53142 86.608 9.68849C86.3854 9.76703 86.0451 9.80629 85.587 9.80629H81.7388V11.7893Z" fill="white"/>
<path d="M100.463 1.48158C100.594 1.24598 100.784 1.08891 101.032 1.01038C101.281 0.931845 101.588 0.892578 101.955 0.892578C102.335 0.892578 102.636 0.9253 102.858 0.990745C103.094 1.05619 103.264 1.13472 103.369 1.22635C103.486 1.31797 103.571 1.45541 103.624 1.63865C103.702 1.84808 103.742 2.18185 103.742 2.63996V13.5365C103.742 13.8507 103.729 14.0797 103.702 14.2237C103.689 14.3677 103.63 14.5379 103.526 14.7342C103.342 15.0876 102.832 15.2643 101.994 15.2643C101.484 15.2643 101.13 15.225 100.934 15.1465C100.738 15.068 100.574 14.9436 100.443 14.7735C97.4978 10.8468 95.5606 8.28132 94.6313 7.07714V13.5365C94.6313 13.8507 94.6182 14.0797 94.592 14.2237C94.5789 14.3677 94.52 14.5379 94.4153 14.7342C94.2321 15.0876 93.7216 15.2643 92.8839 15.2643C92.0724 15.2643 91.575 15.0876 91.3917 14.7342C91.287 14.5379 91.2216 14.3612 91.1954 14.2041C91.1823 14.047 91.1758 13.818 91.1758 13.5169V2.56143C91.1758 2.06405 91.2347 1.7041 91.3525 1.48158C91.4834 1.24598 91.6732 1.08891 91.9218 1.01038C92.1705 0.931845 92.4912 0.892578 92.8839 0.892578C93.2766 0.892578 93.5841 0.931845 93.8067 1.01038C94.0423 1.07583 94.2059 1.15436 94.2975 1.24598C94.3499 1.28525 94.5004 1.4554 94.7491 1.75645C97.5109 5.513 99.3564 7.99337 100.286 9.19755V2.56143C100.286 2.06405 100.345 1.7041 100.463 1.48158Z" fill="white"/>
<path d="M106.642 0.853516H117.558C117.977 0.853516 118.285 0.905872 118.481 1.01058C118.677 1.10221 118.808 1.25273 118.874 1.46215C118.939 1.67158 118.972 1.94645 118.972 2.28676C118.972 2.62707 118.939 2.90194 118.874 3.11137C118.808 3.3077 118.697 3.44514 118.54 3.52367C118.304 3.64147 117.971 3.70037 117.539 3.70037H113.789V13.576C113.789 13.8771 113.776 14.0996 113.749 14.2436C113.736 14.3875 113.677 14.5577 113.573 14.754C113.481 14.9373 113.311 15.0682 113.062 15.1467C112.813 15.2252 112.486 15.2645 112.08 15.2645C111.675 15.2645 111.348 15.2252 111.099 15.1467C110.863 15.0682 110.693 14.9373 110.588 14.754C110.497 14.5577 110.438 14.3875 110.412 14.2436C110.399 14.0865 110.392 13.8574 110.392 13.5564V3.70037H106.622C106.204 3.70037 105.896 3.65456 105.7 3.56294C105.503 3.45823 105.372 3.30116 105.307 3.09173C105.241 2.88231 105.209 2.60744 105.209 2.26713C105.209 1.92681 105.241 1.65849 105.307 1.46215C105.372 1.25273 105.484 1.10875 105.641 1.03022C105.876 0.912417 106.21 0.853516 106.642 0.853516Z" fill="white"/>
<path d="M129.858 1.40325C129.988 1.19383 130.178 1.04985 130.427 0.971317C130.676 0.892783 130.983 0.853516 131.35 0.853516C131.729 0.853516 132.03 0.886239 132.253 0.951684C132.475 1.01713 132.646 1.09566 132.763 1.18729C132.881 1.27891 132.966 1.41634 133.019 1.59959C133.097 1.8221 133.136 2.16241 133.136 2.62053V8.54985C133.136 10.2776 132.6 11.8483 131.526 13.2619C131.003 13.9294 130.329 14.4726 129.504 14.8915C128.68 15.2972 127.763 15.5001 126.755 15.5001C125.761 15.5001 124.851 15.2907 124.026 14.8718C123.215 14.453 122.554 13.9032 122.043 13.2226C120.983 11.8352 120.453 10.2645 120.453 8.51058V2.6009C120.453 2.28676 120.46 2.0577 120.473 1.91372C120.499 1.75665 120.564 1.57995 120.669 1.38362C120.774 1.18728 120.951 1.04985 121.199 0.971317C121.448 0.892783 121.782 0.853516 122.2 0.853516C122.619 0.853516 122.953 0.892783 123.202 0.971317C123.45 1.04985 123.621 1.18728 123.712 1.38362C123.869 1.68467 123.948 2.09697 123.948 2.62053V8.51058C123.948 9.30901 124.144 10.0682 124.537 10.7881C124.733 11.1546 125.028 11.4491 125.42 11.6716C125.813 11.8941 126.278 12.0053 126.814 12.0053C127.77 12.0053 128.483 11.6519 128.954 10.9451C129.426 10.2383 129.661 9.42027 129.661 8.49095V2.48309C129.661 1.97262 129.727 1.61268 129.858 1.40325Z" fill="white"/>
<path d="M146.106 12.8298C146.302 13.301 146.4 13.6414 146.4 13.8508C146.4 14.3482 145.995 14.767 145.183 15.1073C144.764 15.2906 144.424 15.3822 144.162 15.3822C143.914 15.3822 143.704 15.3233 143.534 15.2055C143.377 15.0746 143.259 14.9437 143.181 14.8128C143.05 14.5641 142.539 13.3796 141.649 11.2592L141.041 11.2984H138.567V13.517C138.567 13.8181 138.554 14.0471 138.527 14.2042C138.514 14.3482 138.455 14.5183 138.351 14.7147C138.167 15.0681 137.657 15.2448 136.819 15.2448C135.903 15.2448 135.366 15.0026 135.209 14.5183C135.131 14.2958 135.092 13.9555 135.092 13.4974V2.6008C135.092 2.29975 135.098 2.07723 135.111 1.93326C135.137 1.77619 135.203 1.59949 135.308 1.40315C135.491 1.04975 136.001 0.873047 136.839 0.873047H141.08C142.232 0.873047 143.351 1.2919 144.437 2.12959C144.961 2.53535 145.393 3.08509 145.733 3.77881C146.073 4.47252 146.243 5.24477 146.243 6.09556C146.243 7.57462 145.753 8.7919 144.771 9.74739C145.059 10.4411 145.504 11.4686 146.106 12.8298ZM138.567 7.82331H141.08C141.459 7.82331 141.839 7.67933 142.219 7.39137C142.598 7.10341 142.788 6.67148 142.788 6.09556C142.788 5.51964 142.598 5.08771 142.219 4.79975C141.839 4.4987 141.446 4.34818 141.041 4.34818H138.567V7.82331Z" fill="white"/>
<path d="M151.345 11.7893H157.392C157.694 11.7893 157.916 11.8024 158.06 11.8285C158.217 11.8416 158.394 11.9005 158.59 12.0052C158.944 12.1885 159.12 12.699 159.12 13.5366C159.12 14.4529 158.878 14.9895 158.394 15.1466C158.171 15.2251 157.831 15.2644 157.373 15.2644H149.598C148.682 15.2644 148.145 15.0157 147.988 14.5183C147.91 14.3089 147.87 13.9751 147.87 13.517V2.6008C147.87 1.93326 147.995 1.48169 148.243 1.24608C148.492 0.997393 148.963 0.873047 149.657 0.873047H157.392C157.694 0.873047 157.916 0.886137 158.06 0.912315C158.217 0.925404 158.394 0.984304 158.59 1.08902C158.944 1.27226 159.12 1.78273 159.12 2.62043C159.12 3.53666 158.878 4.07331 158.394 4.23038C158.171 4.30891 157.831 4.34818 157.373 4.34818H151.345V6.33116H155.233C155.534 6.33116 155.756 6.34425 155.9 6.37043C156.057 6.38352 156.234 6.44242 156.43 6.54713C156.784 6.73038 156.961 7.24085 156.961 8.07854C156.961 8.99478 156.712 9.53142 156.214 9.68849C155.992 9.76703 155.652 9.80629 155.194 9.80629H151.345V11.7893Z" fill="white"/>
<path d="M160.999 13.2421C160.659 12.8233 160.489 12.4503 160.489 12.123C160.489 11.7827 160.77 11.3377 161.333 10.788C161.66 10.4738 162.007 10.3168 162.373 10.3168C162.74 10.3168 163.25 10.644 163.905 11.2984C164.088 11.5209 164.35 11.7369 164.69 11.9463C165.03 12.1427 165.345 12.2408 165.633 12.2408C166.85 12.2408 167.458 11.7435 167.458 10.7487C167.458 10.4477 167.288 10.199 166.948 10.0026C166.621 9.79321 166.208 9.64269 165.711 9.55107C165.214 9.45944 164.677 9.31547 164.101 9.11913C163.525 8.90971 162.989 8.66756 162.491 8.39269C161.994 8.11782 161.575 7.68588 161.235 7.09688C160.907 6.49478 160.744 5.77489 160.744 4.93719C160.744 3.78536 161.169 2.78405 162.02 1.93327C162.884 1.06939 164.055 0.637451 165.534 0.637451C166.32 0.637451 167.033 0.742163 167.674 0.951588C168.329 1.14792 168.78 1.3508 169.029 1.56023L169.52 1.93327C169.926 2.31285 170.129 2.63353 170.129 2.89531C170.129 3.15709 169.972 3.51704 169.657 3.97515C169.212 4.6296 168.754 4.95683 168.283 4.95683C168.008 4.95683 167.668 4.82594 167.262 4.56416C167.223 4.53798 167.144 4.47253 167.027 4.36782C166.922 4.26311 166.824 4.17803 166.732 4.11259C166.457 3.94243 166.104 3.85735 165.672 3.85735C165.253 3.85735 164.9 3.96206 164.612 4.17149C164.337 4.36782 164.199 4.64923 164.199 5.01573C164.199 5.36913 164.363 5.65709 164.69 5.8796C165.03 6.10211 165.449 6.25264 165.947 6.33117C166.444 6.40971 166.987 6.53405 167.576 6.70421C168.165 6.86128 168.708 7.05761 169.206 7.29321C169.703 7.52882 170.116 7.94112 170.443 8.53012C170.783 9.10604 170.953 9.81939 170.953 10.6702C170.953 11.5209 170.783 12.2736 170.443 12.928C170.102 13.5694 169.657 14.0668 169.108 14.4202C168.048 15.1139 166.915 15.4607 165.711 15.4607C165.096 15.4607 164.513 15.3887 163.964 15.2448C163.414 15.0877 162.969 14.8979 162.629 14.6754C161.935 14.2565 161.451 13.8508 161.176 13.4581L160.999 13.2421Z" fill="white"/>
</g>
<defs>
<clipPath id="clip0">
<rect width="171" height="15" fill="white" transform="translate(0 0.5)"/>
</clipPath>
</defs>
</svg>
